<?xml version="1.0" encoding="utf-8"?>
<COLLADA xmlns="http://www.collada.org/2005/11/COLLADASchema" version="1.4.1" xmlns:xsi="http://www.w3.org/2001/XMLSchema-instance">
  <asset>
    <contributor>
      <author>Blender User</author>
      <authoring_tool>Blender 3.3.21 commit date:2024-07-15, commit time:08:57, hash:e016c21db151</authoring_tool>
    </contributor>
    <created>2025-10-31T14:51:44</created>
    <modified>2025-10-31T14:51:44</modified>
    <unit name="meter" meter="1"/>
    <up_axis>Z_UP</up_axis>
  </asset>
  <library_cameras>
    <camera id="Camera_003-camera" name="Camera.003">
      <optics>
        <technique_common>
          <perspective>
            <xfov sid="xfov">39.59775</xfov>
            <aspect_ratio>1.777778</aspect_ratio>
            <znear sid="znear">0.1</znear>
            <zfar sid="zfar">100</zfar>
          </perspective>
        </technique_common>
      </optics>
      <extra>
        <technique profile="blender">
          <shiftx sid="shiftx" type="float">0</shiftx>
          <shifty sid="shifty" type="float">0</shifty>
          <dof_distance sid="dof_distance" type="float">10</dof_distance>
        </technique>
      </extra>
    </camera>
    <camera id="Camera_002-camera" name="Camera.002">
      <optics>
        <technique_common>
          <perspective>
            <xfov sid="xfov">39.59775</xfov>
            <aspect_ratio>1.777778</aspect_ratio>
            <znear sid="znear">0.1</znear>
            <zfar sid="zfar">100</zfar>
          </perspective>
        </technique_common>
      </optics>
      <extra>
        <technique profile="blender">
          <shiftx sid="shiftx" type="float">0</shiftx>
          <shifty sid="shifty" type="float">0</shifty>
          <dof_distance sid="dof_distance" type="float">10</dof_distance>
        </technique>
      </extra>
    </camera>
    <camera id="Camera_001-camera" name="Camera.001">
      <optics>
        <technique_common>
          <perspective>
            <xfov sid="xfov">39.59775</xfov>
            <aspect_ratio>1.777778</aspect_ratio>
            <znear sid="znear">0.1</znear>
            <zfar sid="zfar">100</zfar>
          </perspective>
        </technique_common>
      </optics>
      <extra>
        <technique profile="blender">
          <shiftx sid="shiftx" type="float">0</shiftx>
          <shifty sid="shifty" type="float">0</shifty>
          <dof_distance sid="dof_distance" type="float">10</dof_distance>
        </technique>
      </extra>
    </camera>
    <camera id="Camera-camera" name="Camera">
      <optics>
        <technique_common>
          <perspective>
            <xfov sid="xfov">39.59775</xfov>
            <aspect_ratio>1.777778</aspect_ratio>
            <znear sid="znear">0.1</znear>
            <zfar sid="zfar">100</zfar>
          </perspective>
        </technique_common>
      </optics>
      <extra>
        <technique profile="blender">
          <shiftx sid="shiftx" type="float">0</shiftx>
          <shifty sid="shifty" type="float">0</shifty>
          <dof_distance sid="dof_distance" type="float">10</dof_distance>
        </technique>
      </extra>
    </camera>
  </library_cameras>
  <library_lights>
    <light id="Light_003-light" name="Light.003">
      <technique_common>
        <point>
          <color sid="color">1000 1000 1000</color>
          <constant_attenuation>1</constant_attenuation>
          <linear_attenuation>0</linear_attenuation>
          <quadratic_attenuation>0.001599967</quadratic_attenuation>
        </point>
      </technique_common>
      <extra>
        <technique profile="blender">
          <type sid="type" type="int">0</type>
          <flag sid="flag" type="int">0</flag>
          <mode sid="mode" type="int">2097153</mode>
          <gamma sid="blender_gamma" type="float">1</gamma>
          <red sid="red" type="float">1</red>
          <green sid="green" type="float">1</green>
          <blue sid="blue" type="float">1</blue>
          <shadow_r sid="blender_shadow_r" type="float">0</shadow_r>
          <shadow_g sid="blender_shadow_g" type="float">0</shadow_g>
          <shadow_b sid="blender_shadow_b" type="float">0</shadow_b>
          <energy sid="blender_energy" type="float">1000</energy>
          <dist sid="blender_dist" type="float">25</dist>
          <spotsize sid="spotsize" type="float">75</spotsize>
          <spotblend sid="spotblend" type="float">0.15</spotblend>
          <att1 sid="att1" type="float">0</att1>
          <att2 sid="att2" type="float">1</att2>
          <falloff_type sid="falloff_type" type="int">2</falloff_type>
          <clipsta sid="clipsta" type="float">0.04999995</clipsta>
          <clipend sid="clipend" type="float">40</clipend>
          <bias sid="bias" type="float">1</bias>
          <soft sid="soft" type="float">3</soft>
          <bufsize sid="bufsize" type="int">512</bufsize>
          <samp sid="samp" type="int">3</samp>
          <buffers sid="buffers" type="int">1</buffers>
          <area_shape sid="area_shape" type="int">1</area_shape>
          <area_size sid="area_size" type="float">0.1</area_size>
          <area_sizey sid="area_sizey" type="float">0.1</area_sizey>
          <area_sizez sid="area_sizez" type="float">1</area_sizez>
        </technique>
      </extra>
    </light>
    <light id="Light_002-light" name="Light.002">
      <technique_common>
        <point>
          <color sid="color">1000 1000 1000</color>
          <constant_attenuation>1</constant_attenuation>
          <linear_attenuation>0</linear_attenuation>
          <quadratic_attenuation>0.001599967</quadratic_attenuation>
        </point>
      </technique_common>
      <extra>
        <technique profile="blender">
          <type sid="type" type="int">0</type>
          <flag sid="flag" type="int">0</flag>
          <mode sid="mode" type="int">2097153</mode>
          <gamma sid="blender_gamma" type="float">1</gamma>
          <red sid="red" type="float">1</red>
          <green sid="green" type="float">1</green>
          <blue sid="blue" type="float">1</blue>
          <shadow_r sid="blender_shadow_r" type="float">0</shadow_r>
          <shadow_g sid="blender_shadow_g" type="float">0</shadow_g>
          <shadow_b sid="blender_shadow_b" type="float">0</shadow_b>
          <energy sid="blender_energy" type="float">1000</energy>
          <dist sid="blender_dist" type="float">25</dist>
          <spotsize sid="spotsize" type="float">75</spotsize>
          <spotblend sid="spotblend" type="float">0.15</spotblend>
          <att1 sid="att1" type="float">0</att1>
          <att2 sid="att2" type="float">1</att2>
          <falloff_type sid="falloff_type" type="int">2</falloff_type>
          <clipsta sid="clipsta" type="float">0.04999995</clipsta>
          <clipend sid="clipend" type="float">40</clipend>
          <bias sid="bias" type="float">1</bias>
          <soft sid="soft" type="float">3</soft>
          <bufsize sid="bufsize" type="int">512</bufsize>
          <samp sid="samp" type="int">3</samp>
          <buffers sid="buffers" type="int">1</buffers>
          <area_shape sid="area_shape" type="int">1</area_shape>
          <area_size sid="area_size" type="float">0.1</area_size>
          <area_sizey sid="area_sizey" type="float">0.1</area_sizey>
          <area_sizez sid="area_sizez" type="float">1</area_sizez>
        </technique>
      </extra>
    </light>
    <light id="Light_001-light" name="Light.001">
      <technique_common>
        <point>
          <color sid="color">1000 1000 1000</color>
          <constant_attenuation>1</constant_attenuation>
          <linear_attenuation>0</linear_attenuation>
          <quadratic_attenuation>0.001599967</quadratic_attenuation>
        </point>
      </technique_common>
      <extra>
        <technique profile="blender">
          <type sid="type" type="int">0</type>
          <flag sid="flag" type="int">0</flag>
          <mode sid="mode" type="int">2097153</mode>
          <gamma sid="blender_gamma" type="float">1</gamma>
          <red sid="red" type="float">1</red>
          <green sid="green" type="float">1</green>
          <blue sid="blue" type="float">1</blue>
          <shadow_r sid="blender_shadow_r" type="float">0</shadow_r>
          <shadow_g sid="blender_shadow_g" type="float">0</shadow_g>
          <shadow_b sid="blender_shadow_b" type="float">0</shadow_b>
          <energy sid="blender_energy" type="float">1000</energy>
          <dist sid="blender_dist" type="float">25</dist>
          <spotsize sid="spotsize" type="float">75</spotsize>
          <spotblend sid="spotblend" type="float">0.15</spotblend>
          <att1 sid="att1" type="float">0</att1>
          <att2 sid="att2" type="float">1</att2>
          <falloff_type sid="falloff_type" type="int">2</falloff_type>
          <clipsta sid="clipsta" type="float">0.04999995</clipsta>
          <clipend sid="clipend" type="float">40</clipend>
          <bias sid="bias" type="float">1</bias>
          <soft sid="soft" type="float">3</soft>
          <bufsize sid="bufsize" type="int">512</bufsize>
          <samp sid="samp" type="int">3</samp>
          <buffers sid="buffers" type="int">1</buffers>
          <area_shape sid="area_shape" type="int">1</area_shape>
          <area_size sid="area_size" type="float">0.1</area_size>
          <area_sizey sid="area_sizey" type="float">0.1</area_sizey>
          <area_sizez sid="area_sizez" type="float">1</area_sizez>
        </technique>
      </extra>
    </light>
    <light id="Light-light" name="Light">
      <technique_common>
        <point>
          <color sid="color">1000 1000 1000</color>
          <constant_attenuation>1</constant_attenuation>
          <linear_attenuation>0</linear_attenuation>
          <quadratic_attenuation>0.00111109</quadratic_attenuation>
        </point>
      </technique_common>
      <extra>
        <technique profile="blender">
          <type sid="type" type="int">0</type>
          <flag sid="flag" type="int">0</flag>
          <mode sid="mode" type="int">1</mode>
          <gamma sid="blender_gamma" type="float">1</gamma>
          <red sid="red" type="float">1</red>
          <green sid="green" type="float">1</green>
          <blue sid="blue" type="float">1</blue>
          <shadow_r sid="blender_shadow_r" type="float">0</shadow_r>
          <shadow_g sid="blender_shadow_g" type="float">0</shadow_g>
          <shadow_b sid="blender_shadow_b" type="float">0</shadow_b>
          <energy sid="blender_energy" type="float">1000</energy>
          <dist sid="blender_dist" type="float">29.99998</dist>
          <spotsize sid="spotsize" type="float">75</spotsize>
          <spotblend sid="spotblend" type="float">0.15</spotblend>
          <att1 sid="att1" type="float">0</att1>
          <att2 sid="att2" type="float">1</att2>
          <falloff_type sid="falloff_type" type="int">2</falloff_type>
          <clipsta sid="clipsta" type="float">0.04999995</clipsta>
          <clipend sid="clipend" type="float">30.002</clipend>
          <bias sid="bias" type="float">1</bias>
          <soft sid="soft" type="float">3</soft>
          <bufsize sid="bufsize" type="int">2880</bufsize>
          <samp sid="samp" type="int">3</samp>
          <buffers sid="buffers" type="int">1</buffers>
          <area_shape sid="area_shape" type="int">1</area_shape>
          <area_size sid="area_size" type="float">0.1</area_size>
          <area_sizey sid="area_sizey" type="float">0.1</area_sizey>
          <area_sizez sid="area_sizez" type="float">1</area_sizez>
        </technique>
      </extra>
    </light>
  </library_lights>
  <library_effects>
    <effect id="osg2mat0_004-effect">
      <profile_COMMON>
        <technique sid="common">
          <lambert>
            <emission>
              <color sid="emission">0 0 0 1</color>
            </emission>
            <diffuse>
              <color sid="diffuse">0.9 0.9 0.9 1</color>
            </diffuse>
            <transparent opaque="A_ONE">
              <color sid="alpha">0 0 0 0</color>
            </transparent>
            <index_of_refraction>
              <float sid="ior">1.5</float>
            </index_of_refraction>
          </lambert>
        </technique>
      </profile_COMMON>
    </effect>
  </library_effects>
  <library_images/>
  <library_materials>
    <material id="osg2mat0_004-material" name="osg2mat0.004">
      <instance_effect url="#osg2mat0_004-effect"/>
    </material>
  </library_materials>
  <library_geometries>
    <geometry id="rotor_001_001-mesh" name="rotor_001.001">
      <mesh>
        <source id="rotor_001_001-mesh-positions">
          <float_array id="rotor_001_001-mesh-positions-array" count="891">-2 -7.45454 5.04167 -2 -8.46762 3.04968 -2 -8.9576 0.87927 -2 -6.00089 1.26557 -2 -5.98181 6.72267 -2 -5.87041 2.08118 -2 -5.49317 2.70207 -2 -4.91993 3.14687 -2 -4.22507 3.35807 -2 -4.1403 7.98967 -2 -3.50089 3.30717 -1.9958 1.04911 2.95447 -2 -2.04357 8.76267 -2 0.17909 8.99567 -2 2.39064 8.67368 -1.866 4.77932 3.43247 -2 4.45473 7.81767 -2 5.0425 4.35527 -2 5.85836 4.74957 -2 6.24414 6.47868 -2 6.75372 4.88217 -2 7.64707 4.74197 -6 7.99883 -0.06942999 -6 7.70889 -2.13763 -6 7.7436 2.00337 -6 6.9606 3.93948 -6 6.89354 -4.06023 -6 5.70319 5.60667 -6 5.60834 -5.70643 -6 4.05705 6.89167 -6 3.94089 -6.96383 -6 2.13437 7.70767 -6 2.00481 -7.74683 -6 -8.9e-4 -0.002329826 -6 0.06617999 7.99767 -6 -0.06794995 -8.00203 -6 -2.00659 7.74168 -6 -2.13615 -7.71213 -6 -3.94267 6.95867 -6 -4.05883 -6.89673 -6 -5.61012 5.70168 -6 -5.70497 -5.61153 -6 -6.89532 4.05557 -6 -6.96238 -3.94413 -6 -7.71067 2.13297 -6 -7.74538 -2.00803 -6 -8.00061 0.06476998 -3.6056 4.59911 -7.73793 -3.6056 5.87471 -6.81972 3.6055 4.59911 -7.73793 3.6055 5.87471 -6.81973 -3.6056 6.97112 -5.69363 3.6055 6.97111 -5.69363 -3.6056 7.8549 -4.39393 3.6055 7.8549 -4.39393 -3.6056 8.499113 -2.96033 3.6055 8.499113 -2.96033 -3.6056 -5.00089 -7.48563 -3.6056 -3.4453 -8.31712 3.6055 -5.00089 -7.48563 3.6055 -3.44496 -8.317233 -3.6056 -1.75737 -8.82922 3.6055 -1.75665 -8.82943 -3.6056 -8.9e-4 -9.00233 3.6055 -8.9e-4 -9.00233 -3.6056 7.49365 4.98087 -1.896 8.009202 4.10117 -1.7068 8.23875 3.61787 -1.3418 8.499113 2.95567 -3.6056 8.499113 2.95567 -3.6056 6.01519 6.69167 -3.6056 4.15704 7.97968 -3.6056 2.03647 8.76367 -3.6056 -0.2125999 8.99567 -3.6056 -2.44848 8.65868 -3.6056 -4.52976 7.77467 -3.6056 -6.32525 6.40067 -3.6056 -7.72158 4.62267 -3.6056 -8.63065 2.55248 -3.6056 -8.99508 0.32108 -3.6056 -8.79186 -1.93072 -2.6748 -8.8748 -1.50352 -2.1809 -8.999732 -0.14673 -3.1522 -8.54995 -2.81543 -3.6056 -8.03383 -4.06093 -1 -3.75089 2.33887 1 -3.75089 2.33887 -3.6056 2.09911 -8.753931 3.6055 2.09911 -8.753931 -1 5.17159 3.12238 1 5.17159 3.12238 0 -5.00089 -0.002329826 -1 -5.00089 0.93118 1 -5.00089 1.10617 1 -5.00089 1.37067 -1 -5.00089 1.37067 1.3748 -5.00089 -0.58433 -1.259 -5.00089 -0.53753 -2.313 -6.00089 -0.50973 -4.1782 -6.9502 -5.63412 -4.3479 -6.49255 -6.10052 -4.5417 -5.78034 -6.70483 -1 -4.74733 2.03607 1 -4.74552 2.03817 1 5.57884 3.51017 -1 5.57893 3.51017 1 6.07904 3.76957 -1 6.07915 3.76968 1 6.63105 3.87917 -1 6.63115 3.87917 1 7.19123 3.83077 -1 7.19131 3.83077 1 7.7159 3.62837 -1 7.71601 3.62827 1 8.16394 3.28727 -1 8.16406 3.28717 1 8.499113 2.83508 -1 8.499113 2.83508 -1.6733 -5.07965 -0.53843 -4.1105 -5.05836 -7.39513 -4.3246 -5.19024 -7.24833 -2.0121 -5.29806 -0.52692 -4.4557 -5.3582 -7.08053 -1.7114 -5.29806 1.17887 -1.7071 -4.79262 2.39278 -1.683 -3.67164 2.64587 -5.1508 0.02666985 -8.57373 -1.5 5.06648 3.20547 -1.7071 5.9246 4.02497 -1.7071 7.138 4.14037 -5.1508 2.04048 -8.32713 5.2548 8.499113 -0.002329826 5.1508 8.499113 -1.10663 5.1508 8.499113 1.10197 4.9778 8.499113 -1.69952 5.072 8.499113 1.41367 4.9659 8.499113 1.72547 4.7295 8.499113 -2.20792 4.8235 8.499113 2.03877 4.6324 8.499113 2.34737 4.4072 8.499113 -2.60963 4.3676 8.499113 2.64117 4.0137 8.499113 -2.87433 4.0094 8.499113 2.87157 3.6055 8.499113 2.95567 0 8.499113 -0.002329826 1.3418 8.499113 2.95567 -4.0125 8.499113 -2.87492 -4.0107 8.499113 2.87097 -4.4032 8.499113 2.60887 -4.4088 8.499113 -2.60823 -4.7267 8.499113 2.20777 -4.7285 8.499113 -2.20963 -4.9766 8.499113 -1.70243 -4.9767 8.499113 1.69757 -5.1508 8.499113 -1.10663 -5.1508 8.499113 1.10197 -5.2548 8.499113 -0.002339959 -5.1508 -1.16784 -8.49393 -5.1508 -2.39342 -8.23302 -5.1508 -3.6977 -7.73553 -5.1508 -5.0325 -6.94153 -5.1508 -6.33935 -5.77232 -5.1508 -7.48297 -4.18423 -5.1508 -8.26608 -2.27303 -5.1508 -8.570611 -0.1733199 -5.1508 -8.34856 1.94337 -5.1508 -7.65831 3.84908 -5.1508 -6.65255 5.40367 -5.1508 -5.48446 6.58567 -5.1508 -4.27482 7.42767 -5.1508 -3.07933 7.99767 -5.1508 -1.92971 8.34967 -5.1508 -0.86492 8.525671 -5.1508 0.07096999 8.56867 -5.1508 5.86632 -6.25092 -5.1508 4.29269 -7.42083 -5.1508 7.13263 -4.75442 -5.1508 8.02585 -3.00912 -5.1508 8.01546 3.03207 -5.1508 7.137001 4.74317 -5.1508 5.98916 6.12867 -5.1508 4.73707 7.14067 -5.1508 3.47752 7.83167 -5.1508 2.2525 8.26767 -5.1508 1.10237 8.497673 2 6.26146 6.46167 2 7.64707 4.74197 2 6.75408 4.88217 2 5.85895 4.74967 2 5.04316 4.35577 2 4.49639 7.79367 2 4.38705 3.74247 2 2.45995 8.65467 1.9916 1.03584 2.94627 2 0.27493 8.99368 2 -1.92679 8.78967 2 -3.50089 3.30717 2 -4.01233 8.05467 2 -4.21819 3.35877 2 -4.91452 3.14967 2 -5.48962 2.70607 2 -5.85578 6.83267 2 -5.86839 2.08647 2 -6.00089 1.26557 2 -7.34581 5.19867 2 -8.932373 1.10617 2 -8.39242 3.25067 6 -7.47839 2.84148 6 -7.95962 0.80917 6 -7.89848 -1.27833 6 -7.29913 -3.27893 6 -6.48758 4.67987 6 -6.20241 -5.05613 6 -5.05471 6.19968 6 -4.68308 -6.48903 6 -3.27744 7.29567 6 -2.84466 -7.47983 6 -8.9e-4 -0.002329826 6 -1.27687 7.89568 6 -0.81243 -7.96103 6 0.81066 7.95667 6.00549 1.09911 -7.99241 6 2.84287 7.47567 6 3.27565 -7.30053 6 4.68129 6.48467 6 5.05293 -6.20383 6 6.20063 5.05167 6 6.4858 -4.68453 6 7.29735 3.27417 6 7.47661 -2.84613 6 7.8967 1.27367 6 7.95784 -0.81383 1.6576 8.28299 3.51577 1.8988 8.004383 4.11057 3.6055 7.44183 5.05767 3.6055 5.87572 6.81467 3.6055 3.90805 8.104681 3.6055 1.6729 8.840682 3.6055 -0.67658 8.97267 3.6055 -2.9798 8.490673 3.6055 -5.07941 7.42767 3.6055 -6.83185 5.85767 3.6055 -8.117321 3.88657 3.6055 -8.84796 1.64977 2.2811 -8.999483 -0.1617299 3.6055 -8.973813 -0.70003 2.956 -8.85632 -1.60902 3.6055 -8.48627 -3.00203 2.3485 -6.00089 -0.30623 5.1257 -5.8485 -6.28963 4.9156 -6.47571 -5.81152 4.5299 -7.32036 -4.98423 4.0897 -8.00021 -4.04023 5.1508 0.02666985 -8.57373 5.1508 2.04048 -8.32713 1.683 -3.67164 2.64577 1.683 -5.31788 1.37067 1.7071 -4.79262 2.39278 4.7679 -5.04422 -7.17183 1.8146 -5.12653 -0.37923 4.9433 -5.14915 -6.99723 2.1024 -5.35301 -0.34243 5.1236 -5.46303 -6.62893 1.5 5.06648 3.20547 1.7071 5.92717 4.02597 1.7071 7.14342 4.13947 5.1508 4.8318 7.07667 5.1508 3.91347 7.62267 5.1508 3.046 8.009673 5.1508 5.75663 6.34767 5.1508 6.64504 5.41067 5.1508 7.45116 4.23277 5.1508 8.103733 2.78777 5.1508 8.02586 -3.00913 5.1508 7.13271 -4.75433 5.1508 5.86657 -6.25073 5.1508 4.29269 -7.42083 5.1508 -1.14221 -8.49743 5.1508 -2.17531 -8.293333 5.1508 -3.04778 -8.01392 5.1508 -4.76167 -7.13003 5.1508 -3.88059 -7.64542 5.1508 -6.67612 -5.37923 5.1508 -7.55419 -4.05413 5.1508 -8.22952 -2.40213 5.1508 -8.55833 -0.49193 5.1508 -8.43597 1.52047 5.1508 -7.83186 3.48267 5.1508 -6.79325 5.22567 5.1508 -5.4664 6.60067 5.1508 -4.02045 7.56867 5.1508 -2.57937 8.17168 5.1508 -1.22172 8.48167 5.1508 0.03364998 8.56867 5.1508 1.17758 8.48767 5.1508 2.18956 8.28468</float_array>
          <technique_common>
            <accessor source="#rotor_001_001-mesh-positions-array" count="297" stride="3">
              <param name="X" type="float"/>
              <param name="Y" type="float"/>
              <param name="Z" type="float"/>
            </accessor>
          </technique_common>
        </source>
        <source id="rotor_001_001-mesh-normals">
          <float_array id="rotor_001_001-mesh-normals-array" count="1563">1 0 0 1 0 0 1 0 0 1 -1.04792e-6 0 1 3.78125e-7 0 0.9999996 -9.32949e-4 -1.274e-4 0.9999998 -2.22825e-4 6.04472e-4 0.9999998 -7.17866e-5 6.84903e-4 0.9999998 1.03385e-4 7.10133e-4 0.9993116 -0.03594756 0.009165883 0.9994181 0.01306635 0.03150665 0.9513857 0.3036576 0.05154836 -1 -3.37927e-6 0 -1 0 0 -1 -6.6466e-7 0 -1 1.0234e-6 0 -1 -2.38415e-7 0 -1 -4.60574e-7 0 -1 -4.60589e-7 0 0 0.5842118 -0.8116012 -1.00974e-6 0.5842072 -0.8116046 -9.25605e-7 0.716486 -0.6976015 9.25605e-7 0.7164922 -0.6975952 1.17802e-6 0.8269312 -0.562303 0 0.8269282 -0.5623077 0 0.9121379 -0.4098837 0 0.9121374 -0.4098848 0 -0.471401 -0.881919 8.39582e-6 -0.4713703 -0.8819354 -1.19962e-6 -0.2903223 -0.9569289 1.04943e-6 -0.2903129 -0.9569318 -1.91821e-5 -0.09807986 -0.9951786 0 -0.09800195 -0.9951863 -0.01023787 0.8712627 0.4907103 -0.06521701 0.9110232 0.4071652 -0.1723451 0.9453743 0.2767035 0 0.8956861 0.444687 0.01916551 0.7777537 0.6282771 -0.02114665 0.7564457 0.6537145 0.02077513 0.5989921 0.8004854 -0.02269053 0.5695413 0.8216495 0.02217495 0.3829846 0.9234886 -0.02391427 0.3466683 0.937683 0.02367544 0.1440353 0.9892894 -0.02502387 0.1025769 0.9944103 0.02542603 -0.1042242 0.9942288 -0.02644908 -0.1489835 0.988486 0.02645659 -0.3457894 0.9379392 -0.02841073 -0.390783 0.9200444 0.02716231 -0.5666119 0.823537 -0.02925962 -0.6074627 0.7938091 0.02872163 -0.751855 0.6587027 -0.03036302 -0.7860998 0.6173534 0.02993494 -0.890949 0.4531158 -0.0315212 -0.9151554 0.4018671 0.03083848 -0.9749881 0.2201077 -0.03297954 -0.9863877 0.1610957 -0.05601012 -0.9958804 -0.07131123 0.02851182 -0.9678199 -0.2500237 -0.1497955 -0.9314979 -0.3314707 0 -1 0 0 -1 1.39386e-7 0 -1 -1.41382e-7 0.9397109 -4.90439e-5 -0.34197 0.9396797 3.90088e-5 -0.342056 0.939689 -1.19549e-5 -0.3420303 0.9396948 -1.068e-4 -0.3420144 0.9401111 -0.03212493 -0.3393512 0.939677 -1.23616e-5 -0.3420631 0 -0.9344531 0.3560866 4.69874e-4 -0.933982 0.35732 -7.41456e-4 -0.2907539 0.9567976 0 -0.2893877 0.957212 0 -0.689593 0.7241972 -3.11582e-5 -0.6895117 0.7242745 -2.07335e-5 -0.4603686 0.8877279 2.36926e-5 -0.4605088 0.8876552 4.3635e-5 -0.194746 0.9808538 -9.74427e-6 -0.1945608 0.9808905 4.2403e-6 0.08607983 0.9962882 3.81642e-6 0.08608305 0.996288 1.44148e-5 0.3599148 0.9329852 -2.69186e-5 0.3600512 0.9329326 -6.56268e-6 0.6057468 0.7956575 -3.59884e-6 0.6057386 0.7956638 1.86376e-5 0.8033726 0.5954766 0 0.8034119 0.5954238 0.9845576 0.02267932 -0.1735857 0.9844095 0.02224349 -0.1744803 0.1057979 -0.9935548 -0.04069095 0.1865206 -0.9804294 -0.062994 0.43702 -0.8854503 -0.158087 0.5268017 -0.8274311 -0.1945193 0.6406034 -0.7319418 -0.232139 0.8343838 -0.4514364 -0.316242 0.8680406 -0.3794617 -0.3201786 0.385448 -0.9227296 0 0.9329911 -0.3075781 0.1868781 0.960798 -0.2737683 0.04379695 0.921267 -0.3601977 0.1467135 0.2823632 -0.8964275 0.3415974 0.2449762 -0.8953508 0.3719324 0.4481411 -0.259923 0.8553419 0.9171022 -0.244388 0.3149574 0.3801868 -0.2114647 0.9004115 0.9359216 -0.1024257 0.3369864 0.9331337 -0.09815102 0.3458726 0.9043348 0.02992635 0.4257735 0.256438 -0.6664558 0.7000545 0.9491887 -0.2381357 0.2057478 0.6900651 -0.4057807 0.5992932 0.2166473 -0.6463911 0.7316027 0.388118 -0.424409 0.8180718 0.9186827 -0.1718788 0.3556401 0.9376434 -0.05092275 0.3438487 0.9276595 -0.03535503 0.3717499 0.3687151 -0.1808524 0.9117795 0.2872363 -0.09068757 0.9535571 0.3948174 0.0790894 0.9153491 0.9169796 0.06185048 0.3941105 0.9372816 0.2155544 0.2739334 0.8728135 0.2090924 0.4409953 0.3563076 0.3364213 0.8717027 0.290687 0.4102365 0.8644114 0.3163198 0.8104789 0.493017 0.399887 0.555199 0.7292767 0.2055839 0.7862504 0.5827055 0.185663 -0.9752687 -0.119918 0.365459 -0.9285937 -0.06444686 0.5371193 -0.8381752 -0.0946843 0.9060928 -0.3917691 -0.1597279 0.9060678 -0.3918188 -0.1597472 0 1 0 0 1 -4.33996e-7 0 1 3.75947e-7 0 1 -5.56746e-7 0 1 -1.24659e-6 0 1 1.44621e-7 0 1 -1.12298e-6 0 1 -1.78838e-7 0 1 2.04871e-7 0 1 0 0 1 0 0 1 0 0 1 0 0 1 4.02586e-7 -0.601754 -0.1108676 -0.7909492 -0.5525991 -0.1735407 -0.8151797 -0.5629219 -0.2945553 -0.7722411 -0.5965633 -0.3133499 -0.7388668 -0.53395 -0.4322572 -0.7266713 -0.5985505 -0.4929815 -0.6314322 -0.5385817 -0.5618031 -0.6279388 -0.5791653 -0.6508806 -0.4908382 -0.5524053 -0.6764356 -0.4871174 -0.5591673 -0.7671522 -0.3143397 -0.5653725 -0.7646697 -0.3092482 -0.5459343 -0.8291528 -0.120256 -0.5737118 -0.8129179 -0.100097 -0.5380409 -0.8383186 0.08794391 -0.5804876 -0.8063838 0.1130469 -0.5331774 -0.795435 0.2881063 -0.5907874 -0.7427918 0.315009 -0.5283427 -0.712853 0.4611883 -0.6008213 -0.6300866 0.4919399 -0.5308853 -0.6027697 0.5956757 -0.6100087 -0.4526932 0.6503524 -0.5603032 -0.4985964 0.6614091 -0.5548086 -0.3580636 0.7509847 -0.6015741 -0.2994999 0.7405461 -0.5497242 -0.2445655 0.7987435 -0.5688192 -0.1341266 0.8114524 -0.6522748 -0.03478777 0.7571839 -0.5546819 -0.1019862 0.8257886 -0.252253 0.6933152 -0.6750426 -0.2985666 0.7285574 -0.6164917 -0.2474089 0.8012231 -0.5448216 -0.2959363 0.8503177 -0.43518 -0.2574462 0.8813916 -0.3960686 -0.16264 0.6108974 -0.7748244 -0.2988362 0.8446877 -0.4440719 -0.3865247 0.8686141 -0.3100135 -0.4883538 0.8393132 -0.238881 -0.6366801 0.7483219 -0.1861529 -0.159151 0.6287043 0.7611846 -0.2961776 0.8459077 0.4435301 -0.3857707 0.8685479 0.3111361 -0.4896407 0.8382645 0.239926 -0.6393715 0.7458382 0.1868945 -0.2478839 0.8618472 0.4424624 -0.2652826 0.8635947 0.4287534 -0.2659432 0.7423303 0.6149959 -0.2434325 0.7338541 0.6341915 -0.2820258 0.6030824 0.7461589 -0.2263724 0.554899 0.8005265 -0.2833836 0.461265 0.8407903 -0.2312546 0.3262191 0.916571 -0.2449038 0.3362074 0.9093881 -0.2761701 0.1884704 0.9424484 -0.2085644 0.06716316 0.9756999 -0.2480476 0.09940224 0.9636346 -0.2736139 -0.04414397 0.9608261 -0.2253051 -0.1588866 0.9612454 -0.2405099 -0.1446608 0.9598064 -0.2780901 -0.2812231 0.9184659 -0.2059204 -0.4211524 0.8833048 -0.2617406 -0.3773119 0.8883286 -0.2683511 -0.550344 0.7906385 -0.2293215 -0.5915274 0.7729858 -0.2898691 -0.6807422 0.6727303 -0.2259318 -0.7661265 0.6016687 -0.2928903 -0.8027874 0.5193725 -0.2322524 -0.8905737 0.391072 -0.292511 -0.8991028 0.3256559 -0.2367796 -0.9588597 0.1565998 -0.2931181 -0.9508585 0.0997501 -0.2378075 -0.9673808 -0.08730423 -0.2916852 -0.9466102 -0.1372915 -0.2391577 -0.9147881 -0.3255249 -0.2870175 -0.8864008 -0.3632007 -0.4493516 -0.8037068 -0.3900495 -0.235819 -0.7886008 -0.5678895 -0.3742555 -0.7263267 -0.5765262 -0.4066606 -0.5597435 -0.722021 -0.5477876 -0.6229245 -0.5584747 -0.3964717 -0.6121266 -0.6841865 -0.3843075 -0.4848958 -0.7856106 -0.1295544 -0.3327332 -0.9340794 -0.3045747 -0.4437152 -0.8428233 -0.3846812 -0.4718955 -0.7933064 -0.2470385 -0.45679 -0.8545847 -0.2815837 -0.3419637 -0.8965331 -0.2422758 -0.2816728 -0.9284195 -0.2800059 -0.1998916 -0.938957 -0.2351534 -0.06478756 -0.9697967 -0.5573017 0.05702006 0.82835 -0.6325218 0.1518853 0.7595044 -0.5579735 0.1152348 0.821819 -0.5554161 0.2788331 0.7834317 -0.6011952 0.3121923 0.7355954 -0.5403859 0.4047064 0.7376963 -0.5903539 0.5073707 0.6277399 -0.5689051 0.5060515 0.6482738 -0.5458584 0.6452167 0.534541 -0.5926147 0.6430875 0.4850221 -0.5251165 0.7570869 0.3886801 -0.6004876 0.7413067 0.2997984 -0.5176275 0.8299458 0.207971 -0.627768 0.7761521 0.05912119 -0.560786 0.8217546 0.1011848 -0.5533874 0.8312921 -0.05211663 -0.6015242 0.7911186 -0.1109063 -0.5207247 0.8284758 -0.2060915 -0.5970686 0.738523 -0.313198 -0.5288125 0.7555397 -0.3866744 -0.5869536 0.6381687 -0.4982231 -0.5426716 0.6411941 -0.542566 -0.5711509 0.4897398 -0.6587425 -0.5618041 0.4980878 -0.6605187 -0.5445461 0.3144609 -0.7775501 -0.999997 0.002292871 8.99511e-4 -0.999999 2.19799e-4 0.001416683 -0.9999991 -1.27299e-4 0.001372992 -0.9999982 -0.001810193 5.1974e-4 -1 -2.95543e-7 0 -1 3.93974e-7 0 -1 -7.99641e-7 0 1 -7.50123e-7 0 1 5.30415e-7 0 1 -6.64623e-7 0 1 5.70747e-7 0 1 1.6859e-7 0 1 -4.60589e-7 0 0.9999959 -0.002866685 2.92358e-4 0.9999971 0.002207458 9.90953e-4 1 -5.3041e-7 0 1 7.50113e-7 0 1 -3.37936e-6 0 0 0.9329533 0.3599976 0.01930826 0.908396 0.417665 0.07329213 0.8729562 0.4822611 0.02583593 0.8930581 0.4491991 -0.02382081 0.7784674 0.627233 0.03303664 0.7460874 0.665028 -0.03076195 0.6020851 0.7978392 0.03888517 0.5478636 0.8356636 -0.03569686 0.3891729 0.9204729 0.04323744 0.3124724 0.9489424 -0.03929996 0.1531992 0.9874135 0.04625946 0.05602884 0.997357 -0.04161548 -0.09218424 0.994872 0.04788511 -0.2045989 0.977674 -0.04232382 -0.332091 0.9422974 0.04815167 -0.4511703 0.8911379 -0.04168057 -0.5520372 0.8327771 0.04659372 -0.6665487 0.744004 -0.03999751 -0.7383179 0.6732659 0.04387927 -0.8368097 0.5457327 -0.03649228 -0.8803208 0.4729734 0.03986543 -0.9498179 0.3102529 -0.03166884 -0.9692477 0.2440413 0.03216123 -0.9976839 0.05993908 0.0410577 -0.9977269 0.05343651 -0.02552723 -0.9935831 -0.1101871 0.1122875 -0.9721128 -0.205884 -0.906304 5.06537e-6 -0.4226267 -0.8696209 -0.08007216 -0.4871839 -0.8999612 -0.02187561 -0.4354209 -0.9042878 -0.01076936 -0.4267877 -0.9056438 -0.006501197 -0.4239896 -0.9070469 -8.81858e-4 -0.4210289 -0.9762232 0.01176947 -0.2164484 -0.9761009 0.01148211 -0.2170143 -0.9007829 -0.428721 0.06919902 -0.2346664 -0.9079015 0.347342 -0.3801072 -0.8189957 0.4298425 -0.9360152 -0.3002938 0.1835738 -0.9330742 -0.3104956 0.1815634 -0.4467245 -0.258907 0.8563904 -0.9170913 -0.2434972 0.3156784 -0.933097 -0.1034283 0.3444311 -0.9600365 0.02008122 0.2791535 -0.8825021 -0.1215114 0.4543404 -0.3800885 -0.2113952 0.9004692 -0.4209831 -0.9070684 0 -0.9001837 -0.3870835 -0.199589 -0.03426259 -0.9993515 -0.01107466 -0.2253844 -0.9680716 -0.109724 -0.3729253 -0.9115552 -0.1731874 -0.5741918 -0.7733342 -0.2688087 -0.6379976 -0.7116389 -0.2941585 -0.8445578 -0.3563785 -0.3996458 -0.8481017 -0.3446416 -0.4024247 -0.8635532 -0.3443432 0.3683797 -0.1852998 -0.6776499 0.7116563 -0.2546544 -0.6344542 0.7298076 -0.9072185 -0.1546421 0.3912041 -0.3878393 -0.4243337 0.818243 -0.9187127 -0.1717185 0.3556399 -0.9273515 -0.05479204 0.3701584 -0.9355234 -0.03282392 0.3517367 -0.2148243 -0.1901987 0.9579536 -0.3560307 -0.08682781 0.9304317 -0.3943547 0.0791037 0.9155474 -0.9169955 0.06186914 0.3940706 -0.9369159 0.2177892 0.2734162 -0.8684507 0.2084668 0.4498167 -0.1489433 0.355899 0.9225789 -0.3337913 0.4413741 0.83293 -0.3602137 0.5650829 0.7422448 -0.3176785 0.8106239 0.4919039 -0.2056016 0.7862092 0.5827548 -0.2502555 -0.9665887 -0.05548429 -0.5784512 -0.7759484 -0.2515917 -0.3947367 -0.9154888 -0.07786571 -0.9088774 -0.3572639 -0.2151848 0.5678089 0.4206772 0.7075477 0.6500457 0.309598 0.6939667 0.5549107 0.3947424 0.7322927 0.5492154 0.5173314 0.6563009 0.6007612 0.5485153 0.5815643 0.5569796 0.6026896 0.5714359 0.6184481 0.6484994 0.4438137 0.5550987 0.7078845 0.4367666 0.5328414 0.7712175 0.3482868 0.597558 0.7680944 0.2301207 0.5417217 0.8183515 0.1919333 0.6280142 0.7759512 0.05914425 0.5751984 0.8176634 0.02394771 0.5493968 0.8339582 -0.05173999 0.5588986 0.8047129 -0.200174 0.5732899 0.7973051 -0.1887946 0.5527049 0.741868 -0.3796698 0.5787001 0.7179126 -0.3869209 0.5358387 0.6445524 -0.5453707 0.5921979 0.5862116 -0.5528631 0.5244586 0.507992 -0.6832915 0.5997346 0.4202129 -0.6809843 0.6123183 0.2951456 -0.7334545 0.4465976 0.2720761 -0.8523645 0.6415069 0.09324043 -0.7614297 0.3489122 -0.01638394 -0.9370122 0.5482795 -0.05447387 -0.8345192 0.6184616 -0.1523008 -0.770915 0.5757296 -0.1883949 -0.7956399 0.5577142 -0.2531564 -0.7904851 0.5725113 -0.4139771 -0.7077103 0.6533015 -0.306349 -0.6923492 0.5549641 -0.3946641 -0.7322945 0.5444505 -0.5209308 -0.657423 0.5993084 -0.549245 -0.5823739 0.5550993 -0.6078014 -0.5678401 0.6023552 -0.665399 -0.4409223 0.5592028 -0.7055088 -0.435373 0.5290488 -0.7854925 -0.3211059 0.6016405 -0.7651672 -0.2292331 0.5199304 -0.8418281 -0.1449069 0.5997847 -0.7998185 -0.02342545 0.5212197 -0.8518494 0.05179518 0.5942429 -0.7826437 0.185322 0.5269285 -0.8122844 0.2500811 0.5867733 -0.7128157 0.3841757 0.5379877 -0.7241406 0.431497 0.5604676 -0.5959509 0.5750814 0.5750018 -0.595297 0.5612437 0.5520504 -0.4638524 0.6928791 0.5911297 -0.4233646 0.6865335 0.5356367 -0.3259662 0.778999 0.6009898 -0.2296084 0.765566 0.5498406 -0.1859306 0.8143127 0.616113 -0.05445587 0.7857731 0.5667286 -0.02406114 0.8235533 0.5474858 0.05910521 0.8347252 0.6163845 0.154867 0.7720664 0.5778371 0.1879794 0.7942091 0.557676 0.2537742 0.790314 0.2861521 0.5716817 -0.7689586 0.2522119 0.6933292 -0.6750435 0.298528 0.7285873 -0.6164752 0.2473823 0.8012257 -0.5448298 0.2959051 0.8503297 -0.4351778 0.2574226 0.8813979 -0.39607 0.1630225 0.6121032 -0.7737916 0.298844 0.8445862 -0.4442594 0.3863439 0.8687092 -0.3099721 0.4887155 0.8391579 -0.2386861 0.6374338 0.7477186 -0.1859975 0.2486959 -0.1967171 -0.9483949 0.446396 -0.4946257 -0.7457051 0.5148605 -0.5114942 -0.6879625 0.9432953 -0.2164215 -0.2517058 0.2268483 -0.4917503 -0.8406673 0.2659803 -0.454391 -0.8501666 0.2727468 -0.3892948 -0.8798061 0.2404901 -0.296044 -0.9244039 0.2538484 -0.2808034 -0.9255865 0.2766039 -0.1862509 -0.9427624 0.2450701 -0.09501343 -0.9648384 0.316909 0.8104419 0.4926993 0.3734088 0.8644651 0.3365501 0.4308483 0.8620831 0.2668005 0.4963691 0.8382834 0.2256076 0.5749122 0.7944833 0.1956332 0.67028 0.7225034 0.169451 0.1904931 0.3560196 0.9148565 0.2677556 0.8780953 0.3965546 0.2282824 0.8697677 0.4374831 0.284268 0.7912001 0.541474 0.2551243 0.7016581 0.6652725 0.2268386 0.7270355 0.6480461 0.2741268 0.5953397 0.7552649 0.2573493 0.4938387 0.8305991 0.2228475 0.5344914 0.8152656 0.2726888 0.3919813 0.8786306 0.2336989 0.2972638 0.9257532 0.2268054 0.3046143 0.9250781 0.275881 0.1890378 0.9424195 0.2225949 0.0688591 0.9724762 0.2389324 0.05446434 0.9695076 0.2808156 -0.06635427 0.9574653 0.2506633 -0.2154929 0.9437854 0.2322149 -0.1992347 0.9520409 0.2789272 -0.3706911 0.8858825 0.2224165 -0.4403802 0.8698255 0.2920828 -0.5320451 0.7947427 0.2255327 -0.6500817 0.7256231 0.2890774 -0.6888715 0.6647484 0.2373512 -0.8136805 0.530649 0.2807242 -0.8245084 0.4913042 0.2486884 -0.9207099 0.3007448 0.2691174 -0.9204711 0.2833881 0.2518151 -0.9659914 0.05873525 0.2612973 -0.9638769 0.05162537 0.2765882 -0.94706 -0.1630223 0.2361087 -0.9506401 -0.2013362 0.2693288 -0.9143217 -0.3024532 0.3585809 -0.8640867 -0.3532337 0.3434444 -0.8307222 -0.438117 0.4851975 -0.7148171 -0.503607 0.2916965 -0.7973418 -0.5283553 0.5334392 -0.6185033 -0.5769717 0.263483 0.1172516 -0.9575119 0.268501 0.1131528 -0.9566105 0 0.1174662 -0.9930769 0 0.1174662 -0.993077 -0.2685171 0.1131523 -0.956606 -0.2634989 0.1172511 -0.9575076 -0.2559567 0.3639551 -0.8955574 -0.2610319 0.36037 -0.8955422 0 0.3764968 -0.926418 0 0.3764967 -0.9264181 0.2608057 0.3634667 -0.8943558 0.25561 0.3609113 -0.8968872 -0.563323 0.1009646 -0.8200446 -0.5642186 0.1003517 -0.8195041 -0.2890417 0.5592756 -0.7769593 -0.2723093 0.5740822 -0.77219 -0.5472813 0.3124441 -0.7764419 -0.5533329 -0.0555222 -0.8311077 -0.267652 -0.09450155 -0.9588702 0.2677806 -0.06275826 -0.9614338 0.2717589 0.562221 -0.7810599 0.009651422 -0.9991797 0.03933036 -0.03274804 -0.9954183 -0.08983439 -1 0 0 -1 2.30298e-7 0 -1 -3.45495e-7 0 -1 0 0 -1 0 0 -1 4.60585e-7 0 0 -0.08747637 0.9961666 0.4009063 -0.0801388 0.9126072 0.1771755 -0.06659412 0.9819236 0.9044916 0.03213119 0.4252794 0.01521629 -0.06422019 0.9978197 0.5908549 -0.1227393 0.7973867 -0.8047037 -0.1353192 0.5780491 -0.1808972 -0.08603322 0.9797319 -0.4024766 -0.06690788 0.9129819 0.002514302 -0.06386905 0.9979552 -0.9045175 0.03215199 0.4252228</float_array>
          <technique_common>
            <accessor source="#rotor_001_001-mesh-normals-array" count="521" stride="3">
              <param name="X" type="float"/>
              <param name="Y" type="float"/>
              <param name="Z" type="float"/>
            </accessor>
          </technique_common>
        </source>
        <source id="rotor_001_001-mesh-map-0">
          <float_array id="rotor_001_001-mesh-map-0-array" count="3540">0.0910027 0.486548 0.009749472 0.5096408 0.03042781 0.464962 0.06060862 0.427487 0.0910027 0.486548 0.03042781 0.464962 0 0.5586249 0.009749472 0.5096408 0.0910027 0.486548 0.0910027 0.486548 0.07899194 0.4996507 0 0.5586249 0 0.5586249 0.07899194 0.4996507 0.07331329 0.5146989 0 0.5586249 0.07331329 0.5146989 0.07302087 0.5310121 0 0.5586249 0.07302087 0.5310121 0.07815039 0.5464745 0.001769006 0.6088999 0 0.5586249 0.07815039 0.5464745 0.07815039 0.5464745 0.08802825 0.5590267 0.001769006 0.6088999 0.001769006 0.6088999 0.08802825 0.5590267 0.1506501 0.6374535 0.0149784 0.6573419 0.001769006 0.6088999 0.1506501 0.6374535 0.03878659 0.700985 0.0149784 0.6573419 0.1506501 0.6374535 0.07173436 0.7371308 0.03878659 0.700985 0.1506501 0.6374535 0.07173436 0.7371308 0.1506501 0.6374535 0.189596 0.7115452 0.1117737 0.7635654 0.07173436 0.7371308 0.189596 0.7115452 0.189596 0.7115452 0.1769888 0.7287858 0.1117737 0.7635654 0.1117737 0.7635654 0.1769888 0.7287858 0.1805655 0.7488642 0.1564639 0.7786353 0.1117737 0.7635654 0.1805655 0.7488642 0.1805655 0.7488642 0.1895081 0.7669547 0.1564639 0.7786353 0.2029868 0.7814225 0.1564639 0.7786353 0.1895081 0.7669547 0 0.1704061 0.01086705 0.1253347 5.54936e-4 0.2170253 0.0124942 0.2620156 5.54936e-4 0.2170253 0.01086705 0.1253347 0.01086705 0.1253347 0.03241497 0.0848847 0.0124942 0.2620156 0.03500533 0.302304 0.0124942 0.2620156 0.03241497 0.0848847 0.03241497 0.0848847 0.06317776 0.05180746 0.03500533 0.302304 0.06655269 0.3351526 0.03500533 0.302304 0.06317776 0.05180746 0.06317776 0.05180746 0.1010553 0.02836149 0.06655269 0.3351526 0.1049842 0.3583398 0.06655269 0.3351526 0.1010553 0.02836149 0.1010553 0.02836149 0.1434697 0.01614332 0.1049842 0.3583398 0.1049842 0.3583398 0.1434697 0.01614332 0.167607 0.1931167 0.1476853 0.3702543 0.1049842 0.3583398 0.167607 0.1931167 0.1434697 0.01614332 0.1875278 0.01598584 0.167607 0.1931167 0.1875278 0.01598584 0.2302289 0.02789831 0.167607 0.1931167 0.7301374 0.05936151 0.7363632 0.03207451 0.8737427 0.0535826 0.8799686 0.0262956 0.8737427 0.0535826 0.7363632 0.03207451 0.6508954 0.6902756 0.6509056 0.6656699 0.8032851 0.6902756 0.8032953 0.6656695 0.8032851 0.6902756 0.6509056 0.6656699 0.6509056 0.6656699 0.6509142 0.6369774 0.8032953 0.6656695 0.8033035 0.6369769 0.8032953 0.6656695 0.6509142 0.6369774 0.6509142 0.6369774 0.65092 0.6050744 0.8033035 0.6369769 0.8033097 0.6050738 0.8033035 0.6369769 0.65092 0.6050744 0.7339075 0.2761628 0.7277086 0.2397691 0.8775134 0.2703844 0.8713135 0.2339825 0.8775134 0.2703844 0.7277086 0.2397691 0.7277086 0.2397691 0.7237396 0.2009027 0.8713135 0.2339825 0.8673436 0.1951072 0.8713135 0.2339825 0.7237396 0.2009027 0.7237396 0.2009027 0.7221525 0.1610324 0.8673436 0.1951072 0.8657584 0.1552535 0.8673436 0.1951072 0.7221525 0.1610324 0.6509132 0.4248366 0.6848449 0.4303532 0.6870458 0.4451133 0.6509132 0.4248366 0.6870458 0.4451133 0.6910462 0.4562121 0.6509132 0.4248366 0.6910462 0.4562121 0.6987618 0.4713774 0.650922 0.4713774 0.6509132 0.4248366 0.6987618 0.4713774 0.6848329 0.3900266 0.6848449 0.4303532 0.6509132 0.4248366 0.6509132 0.4248366 0.6509002 0.3850372 0.6848329 0.3900266 0.8143709 0.7446891 0.8183325 0.703102 0.8512896 0.7086134 0.8512896 0.7086134 0.8474823 0.7517097 0.8143709 0.7446891 0.8118614 0.7920663 0.8143709 0.7446891 0.8474823 0.7517097 0.8474823 0.7517097 0.8451896 0.8003009 0.8118614 0.7920663 0.8109535 0.8423154 0.8118614 0.7920663 0.8451896 0.8003009 0.8451896 0.8003009 0.844552 0.8513199 0.8109535 0.8423154 0.8117066 0.8923369 0.8109535 0.8423154 0.844552 0.8513199 0.844552 0.8513199 0.8456165 0.9015505 0.8117066 0.8923369 0.8140723 0.9390476 0.8117066 0.8923369 0.8456165 0.9015505 0.8456165 0.9015505 0.848314 0.9478166 0.8140723 0.9390476 0.8179097 0.9795653 0.8140723 0.9390476 0.848314 0.9478166 0.848314 0.9478166 0.8524704 0.9872025 0.8179097 0.9795653 0.3261397 0.6527677 0.3264355 0.6918933 0.29243 0.6839603 0.2921945 0.6427011 0.3261397 0.6527677 0.29243 0.6839603 0.3261407 0.6069693 0.3261397 0.6527677 0.2921945 0.6427011 0.2921945 0.6427011 0.2922645 0.5952164 0.3261407 0.6069693 0.3264355 0.5575442 0.3261407 0.6069693 0.2922645 0.5952164 0.2922645 0.5952164 0.2926341 0.5445103 0.3264355 0.5575442 0.2932817 0.4937819 0.3128014 0.5035981 0.3228443 0.5342821 0.3031919 0.4740867 0.3128014 0.5035981 0.2932817 0.4937819 0.2932817 0.4937819 0.2941652 0.4462301 0.3031919 0.4740867 0.7235409 0.859066 0.7155947 0.89727 0.6944859 0.8722188 0.6944859 0.8722188 0.6733438 0.8933154 0.6678962 0.860124 0.7707833 0.703102 0.7235409 0.859066 0.6944859 0.8722188 0.6184346 0.703102 0.7707833 0.703102 0.6944859 0.8722188 0.6678962 0.860124 0.6184346 0.703102 0.6944859 0.8722188 0.1196143 0.4639272 0.09917235 0.3992184 0.1235239 0.3889949 0.1196143 0.4639272 0.1235239 0.3889949 0.1492304 0.3830808 0.1196143 0.4639272 0.1492304 0.3830808 0.1870819 0.3834928 0.1196143 0.4639272 0.1870819 0.3834928 0.2000037 0.3861055 0.2183214 0.3916076 0.1196143 0.4639272 0.2000037 0.3861055 0.07661974 0.413645 0.09917235 0.3992184 0.1196143 0.4639272 0.6734489 0.9184798 0.6733365 0.9032477 0.7155903 0.9032477 0.7155903 0.9032477 0.7157037 0.9185287 0.6734489 0.9184798 0.9337333 0.7274805 0.9324404 0.7052469 0.9742835 0.704699 0.9742835 0.704699 0.9755694 0.7268934 0.9337333 0.7274805 0.008470237 0.7942476 0.01683288 0.7957831 3.83388e-4 0.8386243 0.008746027 0.8401597 3.83388e-4 0.8386243 0.01683288 0.7957831 0.9827206 0.9365934 0.9836895 0.947656 0.9408845 0.9371826 0.9418537 0.9482452 0.9408845 0.9371826 0.9836895 0.947656 0.9836895 0.947656 0.9842326 0.960026 0.9418537 0.9482452 0.9423965 0.9606151 0.9418537 0.9482452 0.9842326 0.960026 0.9842326 0.960026 0.9843084 0.9727259 0.9423965 0.9606151 0.9424722 0.973315 0.9423965 0.9606151 0.9843084 0.9727259 0.9843084 0.9727259 0.9839117 0.9847648 0.9424722 0.973315 0.9420753 0.9853545 0.9424722 0.973315 0.9839117 0.9847648 0.9839117 0.9847648 0.9830719 0.9952 0.9420753 0.9853545 0.9412354 0.9957897 0.9420753 0.9853545 0.9830719 0.9952 0.7482471 0.4636256 0.74825 0.4741027 0.7059817 0.4636282 0.7059846 0.4741027 0.7059817 0.4636282 0.74825 0.4741027 0.06060862 0.427487 0.1196143 0.4639272 0.0910027 0.486548 0.06060862 0.427487 0.07661974 0.413645 0.1196143 0.4639272 0.6591046 0.8600429 0.6077378 0.7051033 0.6184346 0.703102 0.6678962 0.860124 0.6591046 0.8600429 0.6184346 0.703102 0.6031478 0.7083196 0.6077378 0.7051033 0.6591046 0.8600429 0.6591046 0.8600429 0.6518402 0.8601354 0.6031478 0.7083196 0.6002935 0.7119825 0.6031478 0.7083196 0.6518402 0.8601354 0.1196143 0.4639272 0.2183214 0.3916076 0.2301594 0.394181 0.1296909 0.4758464 0.1196143 0.4639272 0.2301594 0.394181 0.6733365 0.9032477 0.658165 0.8986848 0.6733438 0.8933154 0.08821743 0.5227559 0.07331329 0.5146989 0.07899194 0.4996507 0.08821743 0.5227559 0.07899194 0.4996507 0.0910027 0.486548 0.08821743 0.5227559 0.0910027 0.486548 0.1021989 0.4975822 0.658165 0.8986848 0.6733365 0.9032477 0.6734489 0.9184798 0.6584821 0.9265062 0.658165 0.8986848 0.6734489 0.9184798 0.9324404 0.7052469 0.9337333 0.7274805 0.9186936 0.7041042 0.07302087 0.5310121 0.07331329 0.5146989 0.08821743 0.5227559 0.9186936 0.7041042 0.9337333 0.7274805 0.9203916 0.7291895 0.09804028 0.5464941 0.07815039 0.5464745 0.07302087 0.5310121 0.08821743 0.5227559 0.09804028 0.5464941 0.07302087 0.5310121 0.08802825 0.5590267 0.07815039 0.5464745 0.09804028 0.5464941 3.83388e-4 0.8386243 0.008746027 0.8401597 0 0.8501176 0.1945074 0.7398809 0.1769888 0.7287858 0.189596 0.7115452 0.1982221 0.7129703 0.1945074 0.7398809 0.189596 0.7115452 0.01683288 0.8579586 0 0.8501176 0.008746027 0.8401597 0.9408845 0.9371826 0.9418537 0.9482452 0.9277619 0.9447268 0.1805655 0.7488642 0.1769888 0.7287858 0.1945074 0.7398809 0.2077023 0.763552 0.1895081 0.7669547 0.1805655 0.7488642 0.1945074 0.7398809 0.2077023 0.763552 0.1805655 0.7488642 0.9277619 0.9447268 0.9418537 0.9482452 0.9423965 0.9606151 0.928582 0.972034 0.9277619 0.9447268 0.9423965 0.9606151 0.9423965 0.9606151 0.9424722 0.973315 0.928582 0.972034 0.2029868 0.7814225 0.1895081 0.7669547 0.2077023 0.763552 0.2185704 0.7793737 0.2029868 0.7814225 0.2077023 0.763552 0.2301594 0.7767806 0.2185704 0.7793737 0.2077023 0.763552 0.928582 0.972034 0.9424722 0.973315 0.9420753 0.9853545 0.9274647 0.9973811 0.928582 0.972034 0.9420753 0.9853545 0.7059817 0.4636282 0.6987618 0.4713774 0.6910462 0.4562121 0.9420753 0.9853545 0.9412354 0.9957897 0.9274647 0.9973811 0.7059817 0.4636282 0.7059846 0.4741027 0.6987618 0.4713774 0.658165 0.8986848 0.6591046 0.8600429 0.6678962 0.860124 0.658165 0.8986848 0.6678962 0.860124 0.6733438 0.8933154 0.6518402 0.8601354 0.6591046 0.8600429 0.658165 0.8986848 0.1021989 0.4975822 0.0910027 0.486548 0.1296909 0.4758464 0.1196143 0.4639272 0.1296909 0.4758464 0.0910027 0.486548 0.835967 0.5132691 0.8381645 0.5382254 0.8359665 0.5631816 0.8323102 0.5765807 0.8343017 0.5062252 0.835967 0.5132691 0.8359665 0.5631816 0.8323102 0.5765807 0.835967 0.5132691 0.8320598 0.4991787 0.8343017 0.5062252 0.8323102 0.5765807 0.8270629 0.5880703 0.8290506 0.4920982 0.8320598 0.4991787 0.8323102 0.5765807 0.8270629 0.5880703 0.8320598 0.4991787 0.8250121 0.4851245 0.8290506 0.4920982 0.8270629 0.5880703 0.8270629 0.5880703 0.8202517 0.5971485 0.8250121 0.4851245 0.8194164 0.4784849 0.8250121 0.4851245 0.8202517 0.5971485 0.8202517 0.5971485 0.8119359 0.6031304 0.8194164 0.4784849 0.8118466 0.4732776 0.8194164 0.4784849 0.8119359 0.6031304 0.8119359 0.6031304 0.8033097 0.6050738 0.8118466 0.4732776 0.8033112 0.4713774 0.8118466 0.4732776 0.8033097 0.6050738 0.7059846 0.4741027 0.74825 0.4741027 0.7271165 0.5382259 0.65092 0.6050744 0.6987618 0.4713774 0.7059846 0.4741027 0.65092 0.6050744 0.7059846 0.4741027 0.7271165 0.5382259 0.7271165 0.5382259 0.74825 0.4741027 0.7554733 0.4713774 0.7271165 0.5382259 0.7554733 0.4713774 0.8033112 0.4713774 0.7271165 0.5382259 0.8033112 0.4713774 0.8033097 0.6050738 0.8033097 0.6050738 0.65092 0.6050744 0.7271165 0.5382259 0.650922 0.4713774 0.6987618 0.4713774 0.65092 0.6050744 0.6423214 0.6031443 0.6423609 0.4732915 0.650922 0.4713774 0.65092 0.6050744 0.6423214 0.6031443 0.650922 0.4713774 0.6340664 0.479215 0.6423609 0.4732915 0.6423214 0.6031443 0.6423214 0.6031443 0.6339467 0.5971171 0.6340664 0.479215 0.6272296 0.4882793 0.6340664 0.479215 0.6339467 0.5971171 0.6339467 0.5971171 0.6271905 0.588109 0.6272296 0.4882793 0.6272296 0.4882793 0.6271905 0.588109 0.6219475 0.5766468 0.6219466 0.4998097 0.6272296 0.4882793 0.6219475 0.5766468 0.6219475 0.5766468 0.6182666 0.5631822 0.6219466 0.4998097 0.6182671 0.5132697 0.6219466 0.4998097 0.6182666 0.5631822 0.6182666 0.5631822 0.6160691 0.5382264 0.6182671 0.5132697 0.2302289 0.02789831 0.1875278 0.01598584 0.2127537 0.004937708 0.2127537 0.004937708 0.2378513 0.0139721 0.2302289 0.02789831 0.2302289 0.02789831 0.2378513 0.0139721 0.264052 0.02845907 0.2686623 0.05107218 0.2302289 0.02789831 0.264052 0.02845907 0.264052 0.02845907 0.2902064 0.04959905 0.2686623 0.05107218 0.3002097 0.08392536 0.2686623 0.05107218 0.2902064 0.04959905 0.2902064 0.04959905 0.3149073 0.07898086 0.3002097 0.08392536 0.3227198 0.1242184 0.3002097 0.08392536 0.3149073 0.07898086 0.3149073 0.07898086 0.3352141 0.1172143 0.3227198 0.1242184 0.2440665 0.4491149 0.2618159 0.4434936 0.2609738 0.4860766 0.2432187 0.4922608 0.2440665 0.4491149 0.2609738 0.4860766 0.2609738 0.4860766 0.2603151 0.5332897 0.2432187 0.4922608 0.24259 0.5389038 0.2432187 0.4922608 0.2603151 0.5332897 0.2603151 0.5332897 0.2599045 0.5812938 0.24259 0.5389038 0.2422242 0.585865 0.24259 0.5389038 0.2599045 0.5812938 0.2599045 0.5812938 0.2597703 0.6248925 0.2422242 0.585865 0.2421455 0.6299418 0.2422242 0.585865 0.2597703 0.6248925 0.2597703 0.6248925 0.2598731 0.6608009 0.2421455 0.6299418 0.2423598 0.6681344 0.2421455 0.6299418 0.2598731 0.6608009 0.8877871 0.993887 0.8842208 0.9685125 0.9046341 0.9706714 0.9046341 0.9706714 0.8842208 0.9685125 0.881671 0.9419056 0.9008311 0.9340778 0.9046341 0.9706714 0.881671 0.9419056 0.881671 0.9419056 0.8799354 0.9153842 0.9008311 0.9340778 0.8984394 0.8910058 0.9008311 0.9340778 0.8799354 0.9153842 0.8799354 0.9153842 0.8788532 0.8897108 0.8984394 0.8910058 0.8984394 0.8910058 0.8788532 0.8897108 0.8782998 0.8658033 0.8984394 0.8910058 0.8782998 0.8658033 0.8781477 0.8446932 0.8976213 0.8443906 0.8984394 0.8910058 0.8781477 0.8446932 0.6509056 0.6656699 0.6508954 0.6902756 0.6182415 0.6774146 0.6182415 0.6774146 0.6182531 0.6445687 0.6509056 0.6656699 0.6509142 0.6369774 0.6509056 0.6656699 0.6182531 0.6445687 0.6182531 0.6445687 0.6182618 0.6058133 0.6509142 0.6369774 0.65092 0.6050744 0.6509142 0.6369774 0.6182618 0.6058133 0.7661831 0.330814 0.7682937 0.3230997 0.7682937 0.358335 0.6339467 0.5971171 0.6423214 0.6031443 0.6182618 0.6058133 0.6271905 0.588109 0.6339467 0.5971171 0.6182618 0.6058133 0.6219475 0.5766468 0.6271905 0.588109 0.6182618 0.6058133 0.6182618 0.6058133 0.6182666 0.5631822 0.6219475 0.5766468 0.739634 0.3230996 0.739634 0.3592184 0.7369114 0.3503453 0.6182633 0.4692791 0.6423609 0.4732915 0.6340664 0.479215 0.6182633 0.4692791 0.6340664 0.479215 0.6272296 0.4882793 0.6182633 0.4692791 0.6272296 0.4882793 0.6219466 0.4998097 0.6182671 0.5132697 0.6182633 0.4692791 0.6219466 0.4998097 0.650922 0.4713774 0.6182633 0.4692791 0.618256 0.4299345 0.6509132 0.4248366 0.650922 0.4713774 0.618256 0.4299345 0.618256 0.4299345 0.6182458 0.3977407 0.6509132 0.4248366 0.6509002 0.3850372 0.6509132 0.4248366 0.6182458 0.3977407 0.8853 0.7088649 0.8823033 0.7380288 0.8512896 0.7086134 0.8474823 0.7517097 0.8512896 0.7086134 0.8823033 0.7380288 0.8823033 0.7380288 0.8802673 0.7670848 0.8474823 0.7517097 0.8474823 0.7517097 0.8802673 0.7670848 0.8789935 0.7951406 0.8451896 0.8003009 0.8474823 0.7517097 0.8789935 0.7951406 0.8789935 0.7951406 0.8783342 0.8213267 0.8451896 0.8003009 0.8451896 0.8003009 0.8783342 0.8213267 0.8781477 0.8446932 0.844552 0.8513199 0.8451896 0.8003009 0.8781477 0.8446932 0.8781477 0.8446932 0.8782998 0.8658033 0.844552 0.8513199 0.844552 0.8513199 0.8782998 0.8658033 0.8788532 0.8897108 0.8456165 0.9015505 0.844552 0.8513199 0.8788532 0.8897108 0.8788532 0.8897108 0.8799354 0.9153842 0.8456165 0.9015505 0.8456165 0.9015505 0.8799354 0.9153842 0.881671 0.9419056 0.848314 0.9478166 0.8456165 0.9015505 0.881671 0.9419056 0.881671 0.9419056 0.8842208 0.9685125 0.848314 0.9478166 0.8524704 0.9872025 0.848314 0.9478166 0.8842208 0.9685125 0.2601443 0.6884147 0.2598731 0.6608009 0.29243 0.6839603 0.2921945 0.6427011 0.29243 0.6839603 0.2598731 0.6608009 0.2598731 0.6608009 0.2597703 0.6248925 0.2921945 0.6427011 0.2922645 0.5952164 0.2921945 0.6427011 0.2597703 0.6248925 0.2597703 0.6248925 0.2599045 0.5812938 0.2922645 0.5952164 0.2926341 0.5445103 0.2922645 0.5952164 0.2599045 0.5812938 0.2599045 0.5812938 0.2603151 0.5332897 0.2926341 0.5445103 0.2932817 0.4937819 0.2926341 0.5445103 0.2603151 0.5332897 0.2603151 0.5332897 0.2609738 0.4860766 0.2932817 0.4937819 0.2941652 0.4462301 0.2932817 0.4937819 0.2609738 0.4860766 0.2609738 0.4860766 0.2618159 0.4434936 0.2941652 0.4462301 0.2627515 0.4084908 0.2829719 0.4113783 0.2941652 0.4462301 0.2618159 0.4434936 0.2627515 0.4084908 0.2941652 0.4462301 0.27972 0.4011516 0.2829719 0.4113783 0.2627515 0.4084908 0.7069878 0.2789831 0.7199154 0.2855457 0.7209457 0.2957305 0.7249253 0.3603905 0.7205775 0.343303 0.7249253 0.3230996 0.2627515 0.4084908 0.2636635 0.3830803 0.27972 0.4011516 0.7213057 0.2813866 0.7199154 0.2855457 0.7069878 0.2789831 0.7010997 0.2476262 0.7339075 0.2761628 0.7245045 0.2780077 0.7010997 0.2476262 0.7245045 0.2780077 0.7213057 0.2813866 0.7069878 0.2789831 0.7010997 0.2476262 0.7213057 0.2813866 0.7277086 0.2397691 0.7339075 0.2761628 0.7010997 0.2476262 0.7010997 0.2476262 0.6973136 0.2174307 0.7277086 0.2397691 0.7237396 0.2009027 0.7277086 0.2397691 0.6973136 0.2174307 0.6973136 0.2174307 0.6952155 0.1893877 0.7237396 0.2009027 0.7237396 0.2009027 0.6952155 0.1893877 0.6944043 0.1623341 0.8783342 0.8213267 0.8976213 0.8443906 0.8781477 0.8446932 0.8976213 0.8443906 0.8783342 0.8213267 0.8789935 0.7951406 0.8984371 0.7974089 0.8976213 0.8443906 0.8789935 0.7951406 0.8789935 0.7951406 0.8802673 0.7670848 0.8984371 0.7974089 0.9008306 0.7532613 0.8984371 0.7974089 0.8802673 0.7670848 0.8802673 0.7670848 0.8823033 0.7380288 0.9008306 0.7532613 0.9008306 0.7532613 0.8823033 0.7380288 0.8853 0.7088649 0.9046341 0.7149582 0.9008306 0.7532613 0.8853 0.7088649 0.6182458 0.3977407 0.618256 0.4299345 0.6002973 0.4093176 0.6003084 0.4479615 0.6002973 0.4093176 0.618256 0.4299345 0.618256 0.4299345 0.6182633 0.4692791 0.6003084 0.4479615 0.6003147 0.4923181 0.6003084 0.4479615 0.6182633 0.4692791 0.6182633 0.4692791 0.6182671 0.5132697 0.6003147 0.4923181 0.6003147 0.4923181 0.6182671 0.5132697 0.6160691 0.5382264 0.6003166 0.5393577 0.6003147 0.4923181 0.6160691 0.5382264 0.6003166 0.5393577 0.6160691 0.5382264 0.6182666 0.5631822 0.6003133 0.5858748 0.6003166 0.5393577 0.6182666 0.5631822 0.6182666 0.5631822 0.6182618 0.6058133 0.6003133 0.5858748 0.6003055 0.6286969 0.6003133 0.5858748 0.6182618 0.6058133 0.6182618 0.6058133 0.6182531 0.6445687 0.6003055 0.6286969 0.06317776 0.05180746 0.03241497 0.0848847 0.03002923 0.06580024 0.6182531 0.6445687 0.6182415 0.6774146 0.6002935 0.6649115 0.06317776 0.05180746 0.06004887 0.03599095 0.09575682 0.01423543 0.1010553 0.02836149 0.06317776 0.05180746 0.09575682 0.01423543 0.1434697 0.01614332 0.1010553 0.02836149 0.1450862 1.23405e-4 0.5142325 0.3825469 0.5606464 0.3821503 0.5464989 0.3958829 0.5464989 0.3958829 0.5367639 0.4134477 0.5142325 0.3825469 0.5142325 0.3825469 0.5367639 0.4134477 0.5323399 0.4332587 0.4690907 0.3950061 0.5142325 0.3825469 0.5323399 0.4332587 0.5323399 0.4332587 0.5336099 0.4533195 0.4690907 0.3950061 0.4280129 0.4187867 0.4690907 0.3950061 0.5336099 0.4533195 0.5336099 0.4533195 0.5020326 0.523235 0.4280129 0.4187867 0.3934621 0.4524428 0.4280129 0.4187867 0.5020326 0.523235 0.3675326 0.4939513 0.3934621 0.4524428 0.5020326 0.523235 0.5020326 0.523235 0.4358987 0.5979153 0.3675326 0.4939513 0.3517937 0.5408113 0.3675326 0.4939513 0.4358987 0.5979153 0.4358987 0.5979153 0.4255287 0.6097953 0.3517937 0.5408113 0.3517937 0.5408113 0.4255287 0.6097953 0.4196821 0.6249354 0.3517937 0.5408113 0.4196821 0.6249354 0.4192652 0.6412115 0.3472007 0.5901991 0.3517937 0.5408113 0.4192652 0.6412115 0.4192652 0.6412115 0.4243233 0.6564889 0.3472007 0.5901991 0.3472007 0.5901991 0.4243233 0.6564889 0.4359306 0.6702421 0.3540134 0.6391141 0.3472007 0.5901991 0.4359306 0.6702421 0.3995789 0.7239477 0.3718302 0.6846119 0.3540134 0.6391141 0.4359306 0.6702421 0.3995789 0.7239477 0.3540134 0.6391141 0.6709947 0.12365 0.6824172 0.1684522 0.6824172 0.2148107 0.6824172 0.2148107 0.6709947 0.2595707 0.6709947 0.12365 0.648929 0.08346217 0.6709947 0.12365 0.6709947 0.2595707 0.6709947 0.2595707 0.6489285 0.2996774 0.648929 0.08346217 0.6177223 0.05061471 0.648929 0.08346217 0.6489285 0.2996774 0.6489285 0.2996774 0.6177228 0.332403 0.6177223 0.05061471 0.5795036 0.02738201 0.6177223 0.05061471 0.6177228 0.332403 0.6177228 0.332403 0.5795036 0.3555134 0.5795036 0.02738201 0.5795036 0.02738201 0.5795036 0.3555134 0.5148087 0.1913287 0.5368749 0.01529186 0.5795036 0.02738201 0.5148087 0.1913287 0.5795036 0.3555134 0.5368749 0.3674346 0.5148087 0.1913287 0.4927425 0.01521599 0.5368749 0.01529186 0.5148087 0.1913287 0.5368749 0.3674346 0.4965161 0.3693239 0.5148087 0.1913287 0.4501147 0.02713263 0.4927425 0.01521599 0.5148087 0.1913287 0.4501147 0.3552795 0.4501147 0.02713263 0.5148087 0.1913287 0.4965161 0.3693239 0.4501147 0.3552795 0.5148087 0.1913287 0.4118956 0.0502476 0.4501147 0.02713263 0.4501147 0.3552795 0.4501147 0.3552795 0.4118946 0.3320313 0.4118956 0.0502476 0.3806889 0.08297526 0.4118956 0.0502476 0.4118946 0.3320313 0.4118946 0.3320313 0.3806889 0.2991946 0.3806889 0.08297526 0.3586227 0.1230887 0.3806889 0.08297526 0.3806889 0.2991946 0.3806889 0.2991946 0.3586227 0.2590069 0.3586227 0.1230887 0.3472007 0.167846 0.3586227 0.1230887 0.3586227 0.2590069 0.3586227 0.2590069 0.3472007 0.2142051 0.3472007 0.167846 0.7554733 0.4713774 0.7621451 0.4585531 0.8033112 0.4713774 0.8033112 0.4713774 0.7621451 0.4585531 0.7672399 0.4448969 0.8033112 0.4713774 0.7672399 0.4448969 0.7693756 0.4303532 0.803302 0.423061 0.8033112 0.4713774 0.7693756 0.4303532 0.7693756 0.4303532 0.7693636 0.3904241 0.803302 0.423061 0.8032885 0.3821498 0.803302 0.423061 0.7693636 0.3904241 0.329796 0.7047192 0.3259751 0.7457635 0.2951887 0.7137019 0.2915121 0.759287 0.2951887 0.7137019 0.3259751 0.7457635 0.3259751 0.7457635 0.3235874 0.7925285 0.2915121 0.759287 0.2895163 0.810433 0.2915121 0.759287 0.3235874 0.7925285 0.3235874 0.7925285 0.3227739 0.8421957 0.2895163 0.810433 0.2893368 0.8636357 0.2895163 0.810433 0.3227739 0.8421957 0.3227739 0.8421957 0.3235855 0.8917664 0.2893368 0.8636357 0.2909886 0.9152578 0.2893368 0.8636357 0.3235855 0.8917664 0.3235855 0.8917664 0.3259737 0.9382494 0.2909886 0.9152578 0.2943592 0.9617722 0.2909886 0.9152578 0.3259737 0.9382494 0.3259737 0.9382494 0.329796 0.9788373 0.2943592 0.9617722 0.2992132 1 0.2943592 0.9617722 0.329796 0.9788373 0.8671058 0.6682718 0.8664625 0.630199 0.9005991 0.6455441 0.9000719 0.6000106 0.9005991 0.6455441 0.8664625 0.630199 0.8664625 0.630199 0.8660503 0.5853713 0.9000719 0.6000106 0.8998277 0.5488992 0.9000719 0.6000106 0.8660503 0.5853713 0.8660503 0.5853713 0.8658942 0.5364925 0.8998277 0.5488992 0.8998277 0.5488992 0.8658942 0.5364925 0.8718633 0.5077975 0.8998829 0.4956986 0.8998277 0.5488992 0.8718633 0.5077975 0.8718633 0.5077975 0.8862631 0.4752237 0.8998829 0.4956986 0.900234 0.4440501 0.8998829 0.4956986 0.8862631 0.4752237 0.4469174 0.7632886 0.4199552 0.7436223 0.4622963 0.6931728 0.5678953 0.7821557 0.5513119 0.7858826 0.5257655 0.7880389 0.5678953 0.7821557 0.5257655 0.7880389 0.5003881 0.7855119 0.5678953 0.7821557 0.5003881 0.7855119 0.4759535 0.7781375 0.5678953 0.7821557 0.4759535 0.7781375 0.4469174 0.7632886 0.4622963 0.6931728 0.5678953 0.7821557 0.4469174 0.7632886 0.3995789 0.7239477 0.4359306 0.6702421 0.4622963 0.6931728 0.4199552 0.7436223 0.3995789 0.7239477 0.4622963 0.6931728 0.4359306 0.6702421 0.4243233 0.6564889 0.4425927 0.655829 0.7306136 0.9265062 0.7157037 0.9185287 0.7155903 0.9032477 0.7306136 0.9265062 0.7155903 0.9032477 0.7298657 0.903004 0.4425927 0.655829 0.4243233 0.6564889 0.4192652 0.6412115 0.4329802 0.6324481 0.4425927 0.655829 0.4192652 0.6412115 0.9755694 0.7268934 0.9742835 0.704699 0.9901121 0.703102 0.4192652 0.6412115 0.4196821 0.6249354 0.4329802 0.6324481 0.4329802 0.6324481 0.4196821 0.6249354 0.4255287 0.6097953 0.4329802 0.6324481 0.4255287 0.6097953 0.4358987 0.5979153 0.4329802 0.6324481 0.4358987 0.5979153 0.4437007 0.6091663 0.9901121 0.703102 0.9908016 0.7282018 0.9755694 0.7268934 0.7155947 0.89727 0.7298657 0.903004 0.7155903 0.9032477 0.4425927 0.655829 0.4622963 0.6931728 0.4359306 0.6702421 0.7707833 0.703102 0.7953148 0.7101604 0.7235409 0.859066 0.7327682 0.8636047 0.7235409 0.859066 0.7953148 0.7101604 0.7953148 0.7101604 0.7989668 0.7140257 0.7327682 0.8636047 0.7387374 0.8642625 0.7327682 0.8636047 0.7989668 0.7140257 0.5883064 0.7791733 0.5785366 0.7801017 0.4709504 0.6815562 0.4709504 0.6815562 0.5785366 0.7801017 0.5678953 0.7821557 0.4622963 0.6931728 0.4709504 0.6815562 0.5678953 0.7821557 0.5323399 0.4332587 0.5502763 0.4473547 0.5336099 0.4533195 0.9991845 0.9437819 0.9827206 0.9365934 0.9814059 0.927749 0.9991845 0.9437819 0.9814059 0.927749 0.9920712 0.9251514 0.5488084 0.4214417 0.5502763 0.4473547 0.5323399 0.4332587 0.9836895 0.947656 0.9827206 0.9365934 0.9991845 0.9437819 0.5323399 0.4332587 0.5367639 0.4134477 0.5488084 0.4214417 0.5488084 0.4214417 0.5367639 0.4134477 0.5464989 0.3958829 0.563119 0.3985008 0.5488084 0.4214417 0.5464989 0.3958829 1 0.9711552 0.9842326 0.960026 0.9836895 0.947656 0.9991845 0.9437819 1 0.9711552 0.9836895 0.947656 0.9843084 0.9727259 0.9842326 0.960026 1 0.9711552 0.5464989 0.3958829 0.5606464 0.3821503 0.563119 0.3985008 0.563119 0.3985008 0.5606464 0.3821503 0.5754521 0.3843592 0.5883064 0.3870194 0.563119 0.3985008 0.5754521 0.3843592 0.9975548 0.997487 0.9839117 0.9847648 0.9843084 0.9727259 1 0.9711552 0.9975548 0.997487 0.9843084 0.9727259 0.9830719 0.9952 0.9839117 0.9847648 0.9975548 0.997487 0.7621451 0.4585531 0.7554733 0.4713774 0.7482471 0.4636256 0.74825 0.4741027 0.7482471 0.4636256 0.7554733 0.4713774 0.7155947 0.89727 0.7235409 0.859066 0.7327682 0.8636047 0.7387374 0.8642625 0.7155947 0.89727 0.7327682 0.8636047 0.7387374 0.8642625 0.7298657 0.903004 0.7155947 0.89727 0.4709504 0.6815562 0.4622963 0.6931728 0.4425927 0.655829 0.4118956 0.0502476 0.4085081 0.03354555 0.427568 0.02086836 0.4118956 0.0502476 0.427568 0.02086836 0.4456521 0.0117498 0.4118956 0.0502476 0.4456521 0.0117498 0.4501147 0.02713263 0.3894241 0.05028784 0.4085081 0.03354555 0.4118956 0.0502476 0.4118956 0.0502476 0.3806889 0.08297526 0.3894241 0.05028784 0.3712386 0.07162356 0.3894241 0.05028784 0.3806889 0.08297526 0.09047478 0.8474538 0.08102351 0.8244318 0.09047478 0.7942476 0.0288195 0.8324131 0.04285311 0.7942476 0.04285311 0.8466775 0.8359636 0.4748674 0.8359583 0.4417101 0.8539025 0.4632554 0.8539025 0.4632554 0.8539074 0.5089257 0.8359636 0.4748674 0.835967 0.5132691 0.8359636 0.4748674 0.8539074 0.5089257 0.8539074 0.5561486 0.8381645 0.5382254 0.835967 0.5132691 0.8539074 0.5089257 0.8539074 0.5561486 0.835967 0.5132691 0.8359665 0.5631816 0.8381645 0.5382254 0.8539074 0.5561486 0.8539025 0.6017068 0.8359617 0.6058127 0.8359665 0.5631816 0.8539074 0.5561486 0.8539025 0.6017068 0.8359665 0.5631816 0.835953 0.6445661 0.8359617 0.6058127 0.8539025 0.6017068 0.8539025 0.6017068 0.8538933 0.6424915 0.835953 0.6445661 0.914766 0.02614998 0.9250805 0 0.9426189 0.0140134 0.9426189 0.0140134 0.9321774 0.04388523 0.914766 0.02614998 0.9068212 0.05975806 0.914766 0.02614998 0.9321774 0.04388523 0.9321774 0.04388523 0.9247939 0.08219558 0.9068212 0.05975806 0.9204635 0.1301481 0.900882 0.1090783 0.9068212 0.05975806 0.9247939 0.08219558 0.9204635 0.1301481 0.9068212 0.05975806 0.9209716 0.1732919 0.8995559 0.1540789 0.900882 0.1090783 0.9209716 0.1732919 0.900882 0.1090783 0.9204635 0.1301481 0.9003372 0.180549 0.8995559 0.1540789 0.9209716 0.1732919 0.9247934 0.2198699 0.9019933 0.2041628 0.9003372 0.180549 0.9209716 0.1732919 0.9247934 0.2198699 0.9003372 0.180549 0.9019933 0.2041628 0.9247934 0.2198699 0.9041488 0.2242758 0.932177 0.2628939 0.9107511 0.2643216 0.9069259 0.2436375 0.932177 0.2628939 0.9069259 0.2436375 0.9041488 0.2242758 0.9247934 0.2198699 0.932177 0.2628939 0.9041488 0.2242758 0.9164163 0.2901835 0.9107511 0.2643216 0.932177 0.2628939 0.932177 0.2628939 0.9426189 0.2994312 0.9164163 0.2901835 0.9235219 0.3102738 0.9164163 0.2901835 0.9426189 0.2994312 0.7085904 0.3610935 0.6944043 0.3419151 0.7085904 0.3230996 0.0548402 0.8305211 0.0690369 0.7942476 0.0690369 0.844869 0.9329766 0.4578592 0.9333867 0.4210447 0.9514133 0.4387897 0.9514133 0.4387897 0.9510228 0.4835408 0.9329766 0.4578592 0.9327221 0.5007753 0.9329766 0.4578592 0.9510228 0.4835408 0.9510228 0.4835408 0.9508897 0.5306698 0.9327221 0.5007753 0.9326818 0.5463479 0.9327221 0.5007753 0.9508897 0.5306698 0.9508897 0.5306698 0.9510228 0.5769679 0.9326818 0.5463479 0.9328782 0.5911564 0.9326818 0.5463479 0.9510228 0.5769679 0.9510228 0.5769679 0.9514133 0.6192758 0.9328782 0.5911564 0.9332966 0.6313452 0.9328782 0.5911564 0.9514133 0.6192758 0.6177223 0.05061471 0.6263291 0.0378074 0.6552065 0.06750679 0.648929 0.08346217 0.6177223 0.05061471 0.6552065 0.06750679 0.5951876 0.01721215 0.6263291 0.0378074 0.6177223 0.05061471 0.6177223 0.05061471 0.5795036 0.02738201 0.5951876 0.01721215 0.2595782 0.9058918 0.2615133 0.9379277 0.2444961 0.9208791 0.5795036 0.02738201 0.5368749 0.01529186 0.5643756 0.004713118 0.2585272 0.8754851 0.2595782 0.9058918 0.242519 0.8761987 0.1125207 0.8429064 0.1024614 0.8205881 0.1125207 0.7942476 0.242519 0.8761987 0.2421455 0.8290832 0.2585272 0.8754851 0.2582898 0.8212772 0.2581523 0.8471954 0.2421455 0.8290832 0.4501147 0.02713263 0.4635722 0.005123615 0.4848229 0 0.4927425 0.01521599 0.4501147 0.02713263 0.4848229 0 0.2595478 0.7786425 0.2588037 0.798234 0.2433977 0.7827448 0.914766 0.02614998 0.9068212 0.05975806 0.8799686 0.0262956 0.8032851 0.6902756 0.8032953 0.6656695 0.8359414 0.67741 0.835953 0.6445661 0.8359414 0.67741 0.8032953 0.6656695 0.8032953 0.6656695 0.8033035 0.6369769 0.835953 0.6445661 0.8359617 0.6058127 0.835953 0.6445661 0.8033035 0.6369769 0.8033035 0.6369769 0.8033097 0.6050738 0.8359617 0.6058127 0.7541965 0.3230997 0.7541965 0.3570764 0.7516216 0.348141 0.8359617 0.6058127 0.8119359 0.6031304 0.8202517 0.5971485 0.8359617 0.6058127 0.8202517 0.5971485 0.8270629 0.5880703 0.8359617 0.6058127 0.8270629 0.5880703 0.8323102 0.5765807 0.8359665 0.5631816 0.8359617 0.6058127 0.8323102 0.5765807 0.9028889 0.2709307 0.8775134 0.2703844 0.9107511 0.2643216 0.9076377 0.2734345 0.9028889 0.2709307 0.9107511 0.2643216 0.9138964 0.2809539 0.9076377 0.2734345 0.9107511 0.2643216 0.1392599 0.7942477 0.1392599 0.8251315 0.1386123 0.8136553 0.8713135 0.2339825 0.9069259 0.2436375 0.9107511 0.2643216 0.8775134 0.2703844 0.8713135 0.2339825 0.9107511 0.2643216 0.9041488 0.2242758 0.9069259 0.2436375 0.8713135 0.2339825 0.8673436 0.1951072 0.9019933 0.2041628 0.9041488 0.2242758 0.8713135 0.2339825 0.8673436 0.1951072 0.9041488 0.2242758 0.9003372 0.180549 0.9019933 0.2041628 0.8673436 0.1951072 0.8673436 0.1951072 0.8657584 0.1552535 0.9003372 0.180549 0.8194164 0.4784849 0.8118466 0.4732776 0.8359636 0.4748674 0.8250121 0.4851245 0.8194164 0.4784849 0.8359636 0.4748674 0.8290506 0.4920982 0.8250121 0.4851245 0.8359636 0.4748674 0.8320598 0.4991787 0.8290506 0.4920982 0.8359636 0.4748674 0.8343017 0.5062252 0.8320598 0.4991787 0.8359636 0.4748674 0.8359636 0.4748674 0.835967 0.5132691 0.8343017 0.5062252 0.1245073 0.8027225 0.1266248 0.7942476 0.1266248 0.8293695 0.8359583 0.4417101 0.8359636 0.4748674 0.8033112 0.4713774 0.8033112 0.4713774 0.803302 0.423061 0.8359583 0.4417101 0.8359516 0.4144706 0.8359583 0.4417101 0.803302 0.423061 0.8032885 0.3821498 0.8359438 0.3926119 0.8359516 0.4144706 0.803302 0.423061 0.8032885 0.3821498 0.8359516 0.4144706 0.2621739 0.7374783 0.2642686 0.7159454 0.2951887 0.7137019 0.2915121 0.759287 0.2606254 0.7587046 0.2621739 0.7374783 0.2951887 0.7137019 0.2915121 0.759287 0.2621739 0.7374783 0.2595478 0.7786425 0.2606254 0.7587046 0.2915121 0.759287 0.2895163 0.810433 0.2588037 0.798234 0.2595478 0.7786425 0.2915121 0.759287 0.2895163 0.810433 0.2595478 0.7786425 0.2582898 0.8212772 0.2588037 0.798234 0.2895163 0.810433 0.2893368 0.8636357 0.2581523 0.8471954 0.2582898 0.8212772 0.2895163 0.810433 0.2893368 0.8636357 0.2582898 0.8212772 0.2585272 0.8754851 0.2581523 0.8471954 0.2893368 0.8636357 0.2909886 0.9152578 0.2595782 0.9058918 0.2585272 0.8754851 0.2893368 0.8636357 0.2909886 0.9152578 0.2585272 0.8754851 0.2615133 0.9379277 0.2595782 0.9058918 0.2909886 0.9152578 0.2909886 0.9152578 0.2943592 0.9617722 0.2615133 0.9379277 0.2645394 0.9697554 0.2615133 0.9379277 0.2943592 0.9617722 0.9013729 0.6823714 0.9005991 0.6455441 0.9338734 0.6634393 0.9332966 0.6313452 0.9338734 0.6634393 0.9005991 0.6455441 0.9005991 0.6455441 0.9000719 0.6000106 0.9332966 0.6313452 0.9328782 0.5911564 0.9332966 0.6313452 0.9000719 0.6000106 0.9000719 0.6000106 0.8998277 0.5488992 0.9328782 0.5911564 0.9326818 0.5463479 0.9328782 0.5911564 0.8998277 0.5488992 0.8998829 0.4956986 0.9327221 0.5007753 0.9326818 0.5463479 0.8998277 0.5488992 0.8998829 0.4956986 0.9326818 0.5463479 0.9329766 0.4578592 0.9327221 0.5007753 0.8998829 0.4956986 0.8998829 0.4956986 0.900234 0.4440501 0.9329766 0.4578592 0.9329766 0.4578592 0.900234 0.4440501 0.9107514 0.4209786 0.9333867 0.4210447 0.9329766 0.4578592 0.9107514 0.4209786 0.9107514 0.4209786 0.9204287 0.400183 0.9333867 0.4210447 0.9333867 0.4210447 0.9204287 0.400183 0.9290289 0.3821498 0.9338791 0.3917734 0.9333867 0.4210447 0.9290289 0.3821498 0.9235219 0.3102738 0.9157412 0.3052539 0.9164163 0.2901835 0.8657584 0.1552535 0.900882 0.1090783 0.8995559 0.1540789 0.8657584 0.1552535 0.8670791 0.1083131 0.900882 0.1090783 0.8657584 0.1552535 0.7234738 0.1140919 0.8670791 0.1083131 0.7221525 0.1610324 0.7234738 0.1140919 0.8657584 0.1552535 0.7221525 0.1610324 0.6957303 0.1173335 0.7234738 0.1140919 0.7221525 0.1610324 0.6944043 0.1623341 0.6957303 0.1173335 0.7301374 0.05936151 0.7234738 0.1140919 0.7016701 0.06801331 0.7234738 0.1140919 0.6957303 0.1173335 0.7016701 0.06801331 0.7301374 0.05936151 0.8670791 0.1083131 0.7234738 0.1140919 0.7301374 0.05936151 0.8737427 0.0535826 0.8670791 0.1083131 0.8737427 0.0535826 0.900882 0.1090783 0.8670791 0.1083131 0.8737427 0.0535826 0.9068212 0.05975806 0.900882 0.1090783 0.1434697 0.01614332 0.1878887 0 0.1875278 0.01598584 0.1434697 0.01614332 0.1450862 1.23405e-4 0.1878887 0 0.7301374 0.05936151 0.7096134 0.03441041 0.7363632 0.03207451 0.7301374 0.05936151 0.7016701 0.06801331 0.7096134 0.03441041 0.1010553 0.02836149 0.09575682 0.01423543 0.1450862 1.23405e-4 0.1875278 0.01598584 0.1878887 0 0.2127537 0.004937708 0.7237396 0.2009027 0.6944043 0.1623341 0.7221525 0.1610324 0.8657584 0.1552535 0.8995559 0.1540789 0.9003372 0.180549 0.8737427 0.0535826 0.8799686 0.0262956 0.9068212 0.05975806 0.3264355 0.5575442 0.2926341 0.5445103 0.3228443 0.5342821 0.2926341 0.5445103 0.2932817 0.4937819 0.3228443 0.5342821 0.6944859 0.8722188 0.7155947 0.89727 0.7155903 0.9032477 0.6944859 0.8722188 0.6733365 0.9032477 0.6733438 0.8933154 0.6944859 0.8722188 0.7155903 0.9032477 0.6733365 0.9032477 0.167607 0.1931167 0.3346592 0.1692081 0.3352141 0.2158274 0.167607 0.1931167 0.3352141 0.2158274 0.324347 0.2608988 0.167607 0.1931167 0.324347 0.2608988 0.3027991 0.3013494 0.167607 0.1931167 0.3027991 0.3013494 0.2720373 0.3344245 0.167607 0.1931167 0.2720373 0.3344245 0.2341598 0.3578612 0.167607 0.1931167 0.2341598 0.3578612 0.1917462 0.3700793 0.1476853 0.3702543 0.167607 0.1931167 0.1917462 0.3700793 0.167607 0.1931167 0.3227198 0.1242184 0.3346592 0.1692081 0.167607 0.1931167 0.2686623 0.05107218 0.3002097 0.08392536 0.167607 0.1931167 0.3002097 0.08392536 0.3227198 0.1242184 0.2302289 0.02789831 0.2686623 0.05107218 0.167607 0.1931167 0.9755694 0.7268934 0.9814059 0.927749 0.9395698 0.9283356 0.9337333 0.7274805 0.9755694 0.7268934 0.9395698 0.9283356 0.9337333 0.7274805 0.9395698 0.9283356 0.9203916 0.7291895 0.9395698 0.9283356 0.9293168 0.9260317 0.9203916 0.7291895 0.08802825 0.5590267 0.09804028 0.5464941 0.1506501 0.6374535 0.9166209 0.835648 0.9203916 0.7291895 0.9293168 0.9260317 0.1506501 0.6374535 0.1982221 0.7129703 0.189596 0.7115452 0.5336099 0.4533195 0.5502763 0.4473547 0.5020326 0.523235 0.9755694 0.7268934 0.9920712 0.9251514 0.9814059 0.927749 0.9755694 0.7268934 0.9908016 0.7282018 0.9920712 0.9251514 1 0.8341857 0.9920712 0.9251514 0.9908016 0.7282018 0.5020326 0.523235 0.4437007 0.6091663 0.4358987 0.5979153</float_array>
          <technique_common>
            <accessor source="#rotor_001_001-mesh-map-0-array" count="1770" stride="2">
              <param name="S" type="float"/>
              <param name="T" type="float"/>
            </accessor>
          </technique_common>
        </source>
        <vertices id="rotor_001_001-mesh-vertices">
          <input semantic="POSITION" source="#rotor_001_001-mesh-positions"/>
        </vertices>
        <triangles material="osg2mat0_004-material" count="590">
          <input semantic="VERTEX" source="#rotor_001_001-mesh-vertices" offset="0"/>
          <input semantic="NORMAL" source="#rotor_001_001-mesh-normals" offset="1"/>
          <input semantic="TEXCOORD" source="#rotor_001_001-mesh-map-0" offset="2" set="0"/>
          <p>3 0 0 0 0 1 1 0 2 2 1 3 3 1 4 1 1 5 4 2 6 0 2 7 3 2 8 3 0 9 5 0 10 4 0 11 4 3 12 5 3 13 6 3 14 4 4 15 6 4 16 7 4 17 4 0 18 7 0 19 8 0 20 9 0 21 4 0 22 8 0 23 8 0 24 10 0 25 9 0 26 9 5 27 10 5 28 11 5 29 12 6 30 9 6 31 11 6 32 13 7 33 12 7 34 11 7 35 14 8 36 13 8 37 11 8 38 14 9 39 11 9 40 15 9 41 16 10 42 14 10 43 15 10 44 15 11 45 17 11 46 16 11 47 16 0 48 17 0 49 18 0 50 19 0 51 16 0 52 18 0 53 18 0 54 20 0 55 19 0 56 21 0 57 19 0 58 20 0 59 22 12 60 23 12 61 24 12 62 25 13 63 24 13 64 23 13 65 23 13 66 26 13 67 25 13 68 27 13 69 25 13 70 26 13 71 26 13 72 28 13 73 27 13 74 29 13 75 27 13 76 28 13 77 28 14 78 30 14 79 29 14 80 31 13 81 29 13 82 30 13 83 30 15 84 32 15 85 31 15 86 31 16 87 32 16 88 33 16 89 34 17 90 31 17 91 33 17 92 32 13 93 35 13 94 33 13 95 35 18 96 37 18 97 33 18 98 47 19 99 48 19 100 49 19 101 50 20 102 49 20 103 48 20 104 48 21 105 51 21 106 50 21 107 52 22 108 50 22 109 51 22 110 51 23 111 53 23 112 52 23 113 54 24 114 52 24 115 53 24 116 53 25 117 55 25 118 54 25 119 56 26 120 54 26 121 55 26 122 57 27 123 58 27 124 59 27 125 60 28 126 59 28 127 58 28 128 58 29 129 61 29 130 60 29 131 62 30 132 60 30 133 61 30 134 61 31 135 63 31 136 62 31 137 64 32 138 62 32 139 63 32 140 65 33 141 21 33 142 66 33 143 65 34 144 66 34 145 67 34 146 65 35 147 67 35 148 68 35 149 69 36 150 65 36 151 68 36 152 19 37 153 21 37 154 65 37 155 65 38 156 70 38 157 19 38 158 16 39 159 19 39 160 70 39 161 70 40 162 71 40 163 16 40 164 14 41 165 16 41 166 71 41 167 71 42 168 72 42 169 14 42 170 13 43 171 14 43 172 72 43 173 72 44 174 73 44 175 13 44 176 12 45 177 13 45 178 73 45 179 73 46 180 74 46 181 12 46 182 9 47 183 12 47 184 74 47 185 74 48 186 75 48 187 9 48 188 4 49 189 9 49 190 75 49 191 75 50 192 76 50 193 4 50 194 0 51 195 4 51 196 76 51 197 77 52 198 0 52 199 76 52 200 1 53 201 0 53 202 77 53 203 77 54 204 78 54 205 1 54 206 2 55 207 1 55 208 78 55 209 78 56 210 79 56 211 2 56 212 80 57 213 81 57 214 82 57 215 83 58 216 81 58 217 80 58 218 80 59 219 84 59 220 83 59 221 96 60 222 93 60 223 91 60 224 91 61 225 92 61 226 97 61 227 59 60 228 96 60 229 91 60 230 57 62 231 59 62 232 91 62 233 97 60 234 57 60 235 91 60 236 98 63 237 81 63 238 83 63 239 98 64 240 83 64 241 84 64 242 98 65 243 84 65 244 99 65 245 98 66 246 99 66 247 100 66 248 101 67 249 98 67 250 100 67 251 82 68 252 81 68 253 98 68 254 102 69 255 95 69 256 94 69 257 94 70 258 103 70 259 102 70 260 85 71 261 102 71 262 103 71 263 103 72 264 86 72 265 85 72 266 90 73 267 104 73 268 89 73 269 105 74 270 89 74 271 104 74 272 104 75 273 106 75 274 105 75 275 107 76 276 105 76 277 106 76 278 106 77 279 108 77 280 107 77 281 109 78 282 107 78 283 108 78 284 108 79 285 110 79 286 109 79 287 111 80 288 109 80 289 110 80 290 110 81 291 112 81 292 111 81 293 113 82 294 111 82 295 112 82 296 112 83 297 114 83 298 113 83 299 115 84 300 113 84 301 114 84 302 114 85 303 116 85 304 115 85 305 117 86 306 115 86 307 116 86 308 2 87 309 98 87 310 3 87 311 2 88 312 82 88 313 98 88 314 118 89 315 119 89 316 57 89 317 97 90 318 118 90 319 57 90 320 120 91 321 119 91 322 118 91 323 118 92 324 121 92 325 120 92 326 122 93 327 120 93 328 121 93 329 98 94 330 101 94 331 122 94 332 121 95 333 98 95 334 122 95 335 95 96 336 123 96 337 92 96 338 124 97 339 6 97 340 5 97 341 124 98 342 5 98 343 3 98 344 124 99 345 3 99 346 123 99 347 123 100 348 95 100 349 102 100 350 124 101 351 123 101 352 102 101 353 102 102 354 85 102 355 124 102 356 7 103 357 6 103 358 124 103 359 124 104 360 85 104 361 125 104 362 125 105 363 8 105 364 7 105 365 124 106 366 125 106 367 7 106 368 10 107 369 8 107 370 125 107 371 89 108 372 105 108 373 127 108 374 128 109 375 17 109 376 15 109 377 127 110 378 128 110 379 15 110 380 128 111 381 127 111 382 105 111 383 105 112 384 107 112 385 128 112 386 18 113 387 17 113 388 128 113 389 129 114 390 20 114 391 18 114 392 128 115 393 129 115 394 18 115 395 128 116 396 107 116 397 109 116 398 129 117 399 128 117 400 109 117 401 109 118 402 111 118 403 129 118 404 21 119 405 20 119 406 129 119 407 66 120 408 21 120 409 129 120 410 67 121 411 66 121 412 129 121 413 129 122 414 111 122 415 113 122 416 67 123 417 129 123 418 113 123 419 115 124 420 68 124 421 67 124 422 113 125 423 115 125 424 67 125 425 115 126 426 117 126 427 68 126 428 123 127 429 118 127 430 97 127 431 123 128 432 97 128 433 92 128 434 121 129 435 118 129 436 123 129 437 123 130 438 3 130 439 121 130 440 98 131 441 121 131 442 3 131 443 133 132 444 131 132 445 132 132 446 134 133 447 135 133 448 133 133 449 132 132 450 134 132 451 133 132 452 136 132 453 135 132 454 134 132 455 137 134 456 138 134 457 136 134 458 134 135 459 137 135 460 136 135 461 139 132 462 138 132 463 137 132 464 137 132 465 140 132 466 139 132 467 141 132 468 139 132 469 140 132 470 140 132 471 142 132 472 141 132 473 143 132 474 141 132 475 142 132 476 142 132 477 56 132 478 143 132 479 144 132 480 143 132 481 56 132 482 117 132 483 116 132 484 145 132 485 55 136 486 68 136 487 117 136 488 55 137 489 117 137 490 145 137 491 145 138 492 116 138 493 146 138 494 145 132 495 146 132 496 144 132 497 145 132 498 144 132 499 56 132 500 56 139 501 55 139 502 145 139 503 69 132 504 68 132 505 55 132 506 147 140 507 148 140 508 69 140 509 55 132 510 147 132 511 69 132 512 149 141 513 148 141 514 147 141 515 147 142 516 150 142 517 149 142 518 151 143 519 149 143 520 150 143 521 150 144 522 152 144 523 151 144 524 151 132 525 152 132 526 153 132 527 154 132 528 151 132 529 153 132 530 153 145 531 155 145 532 154 145 533 156 132 534 154 132 535 155 132 536 155 132 537 157 132 538 156 132 539 37 146 540 35 146 541 158 146 542 158 147 543 159 147 544 37 147 545 37 148 546 159 148 547 160 148 548 39 149 549 37 149 550 160 149 551 160 150 552 161 150 553 39 150 554 41 151 555 39 151 556 161 151 557 161 152 558 162 152 559 41 152 560 43 153 561 41 153 562 162 153 563 162 154 564 163 154 565 43 154 566 43 155 567 163 155 568 164 155 569 45 156 570 43 156 571 164 156 572 164 157 573 165 157 574 45 157 575 46 158 576 45 158 577 165 158 578 165 159 579 166 159 580 46 159 581 44 160 582 46 160 583 166 160 584 166 161 585 167 161 586 44 161 587 42 162 588 44 162 589 167 162 590 167 163 591 168 163 592 42 163 593 40 164 594 42 164 595 168 164 596 168 165 597 169 165 598 40 165 599 40 166 600 169 166 601 170 166 602 38 167 603 40 167 604 170 167 605 170 168 606 171 168 607 38 168 608 36 169 609 38 169 610 171 169 611 171 170 612 172 170 613 36 170 614 36 171 615 172 171 616 173 171 617 36 172 618 173 172 619 174 172 620 34 173 621 36 173 622 174 173 623 51 174 624 48 174 625 175 174 626 175 175 627 177 175 628 51 175 629 53 176 630 51 176 631 177 176 632 177 177 633 178 177 634 53 177 635 55 178 636 53 178 637 178 178 638 147 179 639 55 179 640 178 179 641 150 180 642 147 180 643 178 180 644 152 181 645 150 181 646 178 181 647 153 182 648 152 182 649 178 182 650 178 183 651 155 183 652 153 183 653 179 184 654 69 184 655 148 184 656 179 185 657 148 185 658 149 185 659 179 186 660 149 186 661 151 186 662 179 187 663 151 187 664 154 187 665 156 188 666 179 188 667 154 188 668 69 189 669 179 189 670 180 189 671 65 190 672 69 190 673 180 190 674 180 191 675 181 191 676 65 191 677 70 192 678 65 192 679 181 192 680 181 193 681 182 193 682 70 193 683 71 194 684 70 194 685 182 194 686 182 195 687 183 195 688 71 195 689 71 196 690 183 196 691 184 196 692 72 197 693 71 197 694 184 197 695 184 198 696 185 198 697 72 198 698 72 199 699 185 199 700 174 199 701 73 200 702 72 200 703 174 200 704 174 201 705 173 201 706 73 201 707 73 202 708 173 202 709 172 202 710 74 203 711 73 203 712 172 203 713 172 204 714 171 204 715 74 204 716 74 205 717 171 205 718 170 205 719 75 206 720 74 206 721 170 206 722 170 207 723 169 207 724 75 207 725 76 208 726 75 208 727 169 208 728 169 209 729 168 209 730 76 209 731 77 210 732 76 210 733 168 210 734 168 211 735 167 211 736 77 211 737 78 212 738 77 212 739 167 212 740 167 213 741 166 213 742 78 213 743 79 214 744 78 214 745 166 214 746 166 215 747 165 215 748 79 215 749 80 216 750 79 216 751 165 216 752 165 217 753 164 217 754 80 217 755 84 218 756 80 218 757 164 218 758 164 219 759 163 219 760 84 219 761 162 220 762 99 220 763 84 220 764 163 221 765 162 221 766 84 221 767 100 222 768 99 222 769 162 222 770 161 223 771 122 223 772 101 223 773 161 224 774 101 224 775 100 224 776 162 225 777 161 225 778 100 225 779 120 226 780 122 226 781 161 226 782 160 227 783 57 227 784 119 227 785 160 228 786 119 228 787 120 228 788 161 229 789 160 229 790 120 229 791 58 230 792 57 230 793 160 230 794 160 231 795 159 231 796 58 231 797 61 232 798 58 232 799 159 232 800 159 233 801 158 233 802 61 233 803 61 234 804 158 234 805 126 234 806 185 235 807 34 235 808 174 235 809 34 236 810 185 236 811 184 236 812 31 237 813 34 237 814 184 237 815 184 238 816 183 238 817 31 238 818 29 239 819 31 239 820 183 239 821 183 240 822 182 240 823 29 240 824 29 241 825 182 241 826 181 241 827 27 242 828 29 242 829 181 242 830 181 243 831 180 243 832 27 243 833 25 244 834 27 244 835 180 244 836 180 245 837 179 245 838 25 245 839 24 246 840 25 246 841 179 246 842 179 247 843 156 247 844 24 247 845 24 248 846 156 248 847 157 248 848 22 249 849 24 249 850 157 249 851 22 250 852 157 250 853 155 250 854 23 251 855 22 251 856 155 251 857 155 252 858 178 252 859 23 252 860 26 253 861 23 253 862 178 253 863 178 254 864 177 254 865 26 254 866 28 255 867 26 255 868 177 255 869 177 256 870 175 256 871 28 256 872 28 257 873 175 257 874 176 257 875 30 258 876 28 258 877 176 258 878 32 259 879 30 259 880 130 259 881 186 13 882 187 13 883 188 13 884 188 13 885 189 13 886 186 13 887 186 13 888 189 13 889 190 13 890 191 13 891 186 13 892 190 13 893 190 13 894 192 13 895 191 13 896 193 13 897 191 13 898 192 13 899 192 260 900 194 260 901 193 260 902 195 261 903 193 261 904 194 261 905 196 262 906 195 262 907 194 262 908 194 263 909 197 263 910 196 263 911 198 13 912 196 13 913 197 13 914 197 13 915 199 13 916 198 13 917 198 264 918 199 264 919 200 264 920 198 265 921 200 265 922 201 265 923 202 13 924 198 13 925 201 13 926 201 13 927 203 13 928 202 13 929 202 13 930 203 13 931 204 13 932 205 13 933 202 13 934 204 13 935 206 266 936 207 266 937 205 266 938 204 13 939 206 13 940 205 13 941 208 0 942 209 0 943 210 0 944 210 0 945 211 0 946 208 0 947 212 0 948 208 0 949 211 0 950 211 267 951 213 267 952 212 267 953 214 268 954 212 268 955 213 268 956 213 0 957 215 0 958 214 0 959 216 269 960 214 269 961 215 269 962 215 270 963 217 270 964 216 270 965 216 271 966 217 271 967 218 271 968 219 0 969 216 0 970 218 0 971 217 272 972 220 272 973 218 272 974 221 0 975 219 0 976 218 0 977 220 273 978 222 273 979 218 273 980 223 0 981 221 0 982 218 0 983 224 0 984 223 0 985 218 0 986 222 274 987 224 274 988 218 274 989 225 0 990 223 0 991 224 0 992 224 0 993 226 0 994 225 0 995 227 0 996 225 0 997 226 0 998 226 275 999 228 275 1000 227 275 1001 229 276 1002 227 276 1003 228 276 1004 228 0 1005 230 0 1006 229 0 1007 231 0 1008 229 0 1009 230 0 1010 230 277 1011 232 277 1012 231 277 1013 146 278 1014 233 278 1015 144 278 1016 144 279 1017 233 279 1018 234 279 1019 144 280 1020 234 280 1021 187 280 1022 235 281 1023 144 281 1024 187 281 1025 187 282 1026 186 282 1027 235 282 1028 236 283 1029 235 283 1030 186 283 1031 186 284 1032 191 284 1033 236 284 1034 237 285 1035 236 285 1036 191 285 1037 191 286 1038 193 286 1039 237 286 1040 238 287 1041 237 287 1042 193 287 1043 193 288 1044 195 288 1045 238 288 1046 239 289 1047 238 289 1048 195 289 1049 195 290 1050 196 290 1051 239 290 1052 240 291 1053 239 291 1054 196 291 1055 196 292 1056 198 292 1057 240 292 1058 241 293 1059 240 293 1060 198 293 1061 198 294 1062 202 294 1063 241 294 1064 242 295 1065 241 295 1066 202 295 1067 202 296 1068 205 296 1069 242 296 1070 243 297 1071 242 297 1072 205 297 1073 205 298 1074 207 298 1075 243 298 1076 244 299 1077 243 299 1078 207 299 1079 207 300 1080 206 300 1081 244 300 1082 244 301 1083 206 301 1084 245 301 1085 246 302 1086 244 302 1087 245 302 1088 245 303 1089 247 303 1090 246 303 1091 248 304 1092 246 304 1093 247 304 1094 247 305 1095 245 305 1096 249 305 1097 250 306 1098 251 306 1099 252 306 1100 250 307 1101 252 307 1102 253 307 1103 250 308 1104 253 308 1105 248 308 1106 250 309 1107 248 309 1108 247 309 1109 249 310 1110 250 310 1111 247 310 1112 206 311 1113 204 311 1114 249 311 1115 245 312 1116 206 312 1117 249 312 1118 204 313 1119 203 313 1120 257 313 1121 258 314 1122 103 314 1123 94 314 1124 258 315 1125 94 315 1126 257 315 1127 257 316 1128 203 316 1129 201 316 1130 258 317 1131 257 317 1132 201 317 1133 86 318 1134 103 318 1135 258 318 1136 201 319 1137 200 319 1138 258 319 1139 258 320 1140 200 320 1141 199 320 1142 258 321 1143 199 321 1144 197 321 1145 258 322 1146 197 322 1147 256 322 1148 258 323 1149 256 323 1150 86 323 1151 93 324 1152 257 324 1153 94 324 1154 257 325 1155 249 325 1156 204 325 1157 59 326 1158 259 326 1159 96 326 1160 260 327 1161 96 327 1162 259 327 1163 259 328 1164 261 328 1165 260 328 1166 262 329 1167 260 329 1168 261 329 1169 261 330 1170 263 330 1171 262 330 1172 262 331 1173 263 331 1174 250 331 1175 249 332 1176 262 332 1177 250 332 1178 190 333 1179 264 333 1180 192 333 1181 265 334 1182 104 334 1183 90 334 1184 265 335 1185 90 335 1186 264 335 1187 265 336 1188 264 336 1189 190 336 1190 106 337 1191 104 337 1192 265 337 1193 190 338 1194 189 338 1195 265 338 1196 265 339 1197 189 339 1198 188 339 1199 266 340 1200 265 340 1201 188 340 1202 266 341 1203 108 341 1204 106 341 1205 265 342 1206 266 342 1207 106 342 1208 110 343 1209 108 343 1210 266 343 1211 188 344 1212 187 344 1213 266 344 1214 266 345 1215 187 345 1216 234 345 1217 233 346 1218 266 346 1219 234 346 1220 233 347 1221 112 347 1222 110 347 1223 266 348 1224 233 348 1225 110 348 1226 114 349 1227 112 349 1228 233 349 1229 233 350 1230 146 350 1231 114 350 1232 116 351 1233 114 351 1234 146 351 1235 93 352 1236 96 352 1237 260 352 1238 262 353 1239 93 353 1240 260 353 1241 262 354 1242 257 354 1243 93 354 1244 262 355 1245 249 355 1246 257 355 1247 225 356 1248 267 356 1249 268 356 1250 225 357 1251 268 357 1252 269 357 1253 225 358 1254 269 358 1255 223 358 1256 270 359 1257 267 359 1258 225 359 1259 225 360 1260 227 360 1261 270 360 1262 271 361 1263 270 361 1264 227 361 1265 229 362 1266 272 362 1267 271 362 1268 227 363 1269 229 363 1270 271 363 1271 273 364 1272 272 364 1273 229 364 1274 229 365 1275 231 365 1276 273 365 1277 133 366 1278 273 366 1279 231 366 1280 232 367 1281 131 367 1282 133 367 1283 231 368 1284 232 368 1285 133 368 1286 132 369 1287 131 369 1288 232 369 1289 230 370 1290 274 370 1291 132 370 1292 232 371 1293 230 371 1294 132 371 1295 275 372 1296 274 372 1297 230 372 1298 230 373 1299 228 373 1300 275 373 1301 276 374 1302 275 374 1303 228 374 1304 228 375 1305 226 375 1306 276 375 1307 277 376 1308 276 376 1309 226 376 1310 226 377 1311 224 377 1312 277 377 1313 222 378 1314 255 378 1315 277 378 1316 224 379 1317 222 379 1318 277 379 1319 220 380 1320 254 380 1321 255 380 1322 220 381 1323 255 381 1324 222 381 1325 278 382 1326 254 382 1327 220 382 1328 217 383 1329 279 383 1330 278 383 1331 220 384 1332 217 384 1333 278 384 1334 279 385 1335 217 385 1336 280 385 1337 215 386 1338 281 386 1339 282 386 1340 215 387 1341 282 387 1342 280 387 1343 217 388 1344 215 388 1345 280 388 1346 250 389 1347 281 389 1348 215 389 1349 215 390 1350 213 390 1351 250 390 1352 283 391 1353 250 391 1354 213 391 1355 211 392 1356 284 392 1357 283 392 1358 213 393 1359 211 393 1360 283 393 1361 285 394 1362 284 394 1363 211 394 1364 211 395 1365 210 395 1366 285 395 1367 286 396 1368 285 396 1369 210 396 1370 210 397 1371 209 397 1372 286 397 1373 287 398 1374 286 398 1375 209 398 1376 209 399 1377 208 399 1378 287 399 1379 288 400 1380 287 400 1381 208 400 1382 208 401 1383 212 401 1384 288 401 1385 289 402 1386 288 402 1387 212 402 1388 214 403 1389 290 403 1390 289 403 1391 212 404 1392 214 404 1393 289 404 1394 291 405 1395 290 405 1396 214 405 1397 214 406 1398 216 406 1399 291 406 1400 292 407 1401 291 407 1402 216 407 1403 216 408 1404 219 408 1405 292 408 1406 293 409 1407 292 409 1408 219 409 1409 221 410 1410 294 410 1411 293 410 1412 219 411 1413 221 411 1414 293 411 1415 295 412 1416 294 412 1417 221 412 1418 223 413 1419 296 413 1420 295 413 1421 221 414 1422 223 414 1423 295 414 1424 269 415 1425 296 415 1426 223 415 1427 276 416 1428 277 416 1429 50 416 1430 50 417 1431 52 417 1432 276 417 1433 275 418 1434 276 418 1435 52 418 1436 52 419 1437 54 419 1438 275 419 1439 274 420 1440 275 420 1441 54 420 1442 54 421 1443 56 421 1444 274 421 1445 274 422 1446 56 422 1447 142 422 1448 274 423 1449 142 423 1450 140 423 1451 274 424 1452 140 424 1453 137 424 1454 274 425 1455 137 425 1456 134 425 1457 132 426 1458 274 426 1459 134 426 1460 259 427 1461 59 427 1462 281 427 1463 261 428 1464 259 428 1465 281 428 1466 263 429 1467 261 429 1468 281 429 1469 281 430 1470 250 430 1471 263 430 1472 60 431 1473 282 431 1474 281 431 1475 59 432 1476 60 432 1477 281 432 1478 280 433 1479 282 433 1480 60 433 1481 62 434 1482 279 434 1483 280 434 1484 60 435 1485 62 435 1486 280 435 1487 278 436 1488 279 436 1489 62 436 1490 62 437 1491 64 437 1492 278 437 1493 141 438 1494 143 438 1495 273 438 1496 139 439 1497 141 439 1498 273 439 1499 138 440 1500 139 440 1501 273 440 1502 136 441 1503 138 441 1504 273 441 1505 135 442 1506 136 442 1507 273 442 1508 273 443 1509 133 443 1510 135 443 1511 143 444 1512 144 444 1513 273 444 1514 272 445 1515 273 445 1516 144 445 1517 144 446 1518 235 446 1519 272 446 1520 271 447 1521 272 447 1522 235 447 1523 236 448 1524 270 448 1525 271 448 1526 235 449 1527 236 449 1528 271 449 1529 267 450 1530 270 450 1531 236 450 1532 237 451 1533 268 451 1534 267 451 1535 236 452 1536 237 452 1537 267 452 1538 269 453 1539 268 453 1540 237 453 1541 238 454 1542 296 454 1543 269 454 1544 237 455 1545 238 455 1546 269 455 1547 295 456 1548 296 456 1549 238 456 1550 239 457 1551 294 457 1552 295 457 1553 238 458 1554 239 458 1555 295 458 1556 293 459 1557 294 459 1558 239 459 1559 240 460 1560 292 460 1561 293 460 1562 239 461 1563 240 461 1564 293 461 1565 291 462 1566 292 462 1567 240 462 1568 240 463 1569 241 463 1570 291 463 1571 290 464 1572 291 464 1573 241 464 1574 241 465 1575 242 465 1576 290 465 1577 289 466 1578 290 466 1579 242 466 1580 242 467 1581 243 467 1582 289 467 1583 288 468 1584 289 468 1585 243 468 1586 243 469 1587 244 469 1588 288 469 1589 287 470 1590 288 470 1591 244 470 1592 246 471 1593 286 471 1594 287 471 1595 244 472 1596 246 472 1597 287 472 1598 285 473 1599 286 473 1600 246 473 1601 246 474 1602 248 474 1603 285 474 1604 285 475 1605 248 475 1606 253 475 1607 284 476 1608 285 476 1609 253 476 1610 253 477 1611 252 477 1612 284 477 1613 284 478 1614 252 478 1615 251 478 1616 283 479 1617 284 479 1618 251 479 1619 283 480 1620 251 480 1621 250 480 1622 64 481 1623 255 481 1624 254 481 1625 64 482 1626 88 482 1627 255 482 1628 64 483 1629 87 483 1630 88 483 1631 63 484 1632 87 484 1633 64 484 1634 63 485 1635 130 485 1636 87 485 1637 63 486 1638 126 486 1639 130 486 1640 47 487 1641 87 487 1642 176 487 1643 87 488 1644 130 488 1645 176 488 1646 47 489 1647 88 489 1648 87 489 1649 47 490 1650 49 490 1651 88 490 1652 49 491 1653 255 491 1654 88 491 1655 49 492 1656 277 492 1657 255 492 1658 32 493 1659 126 493 1660 35 493 1661 32 494 1662 130 494 1663 126 494 1664 47 495 1665 175 495 1666 48 495 1667 47 496 1668 176 496 1669 175 496 1670 30 497 1671 176 497 1672 130 497 1673 35 498 1674 126 498 1675 158 498 1676 61 499 1677 126 499 1678 63 499 1679 64 500 1680 254 500 1681 278 500 1682 49 501 1683 50 501 1684 277 501 1685 2 502 1686 79 502 1687 82 502 1688 79 503 1689 80 503 1690 82 503 1691 91 60 1692 93 60 1693 94 60 1694 91 60 1695 95 60 1696 92 60 1697 91 60 1698 94 60 1699 95 60 1700 33 13 1701 45 13 1702 46 13 1703 33 13 1704 46 13 1705 44 13 1706 33 504 1707 44 504 1708 42 504 1709 33 505 1710 42 505 1711 40 505 1712 33 506 1713 40 506 1714 38 506 1715 33 507 1716 38 507 1717 36 507 1718 34 13 1719 33 13 1720 36 13 1721 33 13 1722 43 13 1723 45 13 1724 33 13 1725 39 13 1726 41 13 1727 33 508 1728 41 508 1729 43 508 1730 37 509 1731 39 509 1732 33 509 1733 86 510 1734 90 510 1735 89 510 1736 85 510 1737 86 510 1738 89 510 1739 85 511 1740 89 511 1741 125 511 1742 89 512 1743 127 512 1744 125 512 1745 10 513 1746 125 513 1747 11 513 1748 11 514 1749 125 514 1750 127 514 1751 11 515 1752 127 515 1753 15 515 1754 192 516 1755 264 516 1756 194 516 1757 86 517 1758 264 517 1759 90 517 1760 86 518 1761 256 518 1762 264 518 1763 194 519 1764 264 519 1765 256 519 1766 194 520 1767 256 520 1768 197 520 1769</p>
        </triangles>
      </mesh>
    </geometry>
  </library_geometries>
  <library_visual_scenes>
    <visual_scene id="Scene" name="Scene">
      <node id="Light_003" name="Light.003" type="NODE">
        <matrix sid="transform">-0.2908646 -0.7711008 0.5663932 4.076245 0.9551712 -0.1998834 0.2183912 1.005454 -0.055189 0.6045247 0.7946723 5.903862 0 0 0 1</matrix>
        <instance_light url="#Light_003-light"/>
      </node>
      <node id="Camera_003" name="Camera.003" type="NODE">
        <matrix sid="transform">0.6859207 -0.3240135 0.6515582 7.358891 0.7276763 0.3054209 -0.6141704 -6.925791 -4.01133e-9 0.8953956 0.4452714 4.958309 0 0 0 1</matrix>
        <instance_camera url="#Camera_003-camera"/>
      </node>
      <node id="rotor" name="rotor" type="NODE">
        <matrix sid="transform">0.001 0 0 0 0 0.001 0 0 0 0 0.001 0 0 0 0 1</matrix>
        <instance_geometry url="#rotor_001_001-mesh" name="rotor">
          <bind_material>
            <technique_common>
              <instance_material symbol="osg2mat0_004-material" target="#osg2mat0_004-material">
                <bind_vertex_input semantic="UVMap" input_semantic="TEXCOORD" input_set="0"/>
              </instance_material>
            </technique_common>
          </bind_material>
        </instance_geometry>
      </node>
      <node id="Camera_002" name="Camera.002" type="NODE">
        <matrix sid="transform">0.6859207 -0.3240135 0.6515582 7.358891 0.7276763 0.3054209 -0.6141704 -6.925791 -4.01133e-9 0.8953956 0.4452714 4.958309 0 0 0 1</matrix>
        <instance_camera url="#Camera_002-camera"/>
      </node>
      <node id="Light_002" name="Light.002" type="NODE">
        <matrix sid="transform">-0.2908649 -0.7711006 0.5663933 4.076245 0.9551711 -0.1998835 0.2183913 1.005454 -0.05518904 0.6045247 0.7946722 5.903862 0 0 0 1</matrix>
        <instance_light url="#Light_002-light"/>
      </node>
      <node id="Light_001" name="Light.001" type="NODE">
        <matrix sid="transform">-0.2908646 -0.7711008 0.5663932 4.076245 0.9551712 -0.1998834 0.2183912 1.005454 -0.055189 0.6045247 0.7946723 5.903862 0 0 0 1</matrix>
        <instance_light url="#Light_001-light"/>
      </node>
      <node id="Camera_001" name="Camera.001" type="NODE">
        <matrix sid="transform">0.6859207 -0.3240135 0.6515582 7.358891 0.7276763 0.3054209 -0.6141704 -6.925791 -4.01133e-9 0.8953956 0.4452714 4.958309 0 0 0 1</matrix>
        <instance_camera url="#Camera_001-camera"/>
      </node>
      <node id="Camera" name="Camera" type="NODE">
        <matrix sid="transform">0.6859207 -0.3240135 0.6515582 7.358891 0.7276763 0.3054208 -0.6141704 -6.925791 0 0.8953956 0.4452714 4.958309 0 0 0 1</matrix>
        <instance_camera url="#Camera-camera"/>
      </node>
      <node id="Light" name="Light" type="NODE">
        <matrix sid="transform">-0.2908646 -0.7711008 0.5663932 4.076245 0.9551712 -0.1998834 0.2183912 1.005454 -0.05518906 0.6045247 0.7946723 5.903862 0 0 0 1</matrix>
        <instance_light url="#Light-light"/>
      </node>
    </visual_scene>
  </library_visual_scenes>
  <scene>
    <instance_visual_scene url="#Scene"/>
  </scene>
</COLLADA>