<?xml version="1.0" encoding="utf-8"?>
<COLLADA xmlns="http://www.collada.org/2005/11/COLLADASchema" version="1.4.1" xmlns:xsi="http://www.w3.org/2001/XMLSchema-instance">
  <asset>
    <contributor>
      <author>Blender User</author>
      <authoring_tool>Blender 3.3.21 commit date:2024-07-15, commit time:08:57, hash:e016c21db151</authoring_tool>
    </contributor>
    <created>2025-10-31T15:16:20</created>
    <modified>2025-10-31T15:16:20</modified>
    <unit name="meter" meter="1"/>
    <up_axis>Z_UP</up_axis>
  </asset>
  <library_cameras>
    <camera id="Camera_004-camera" name="Camera.004">
      <optics>
        <technique_common>
          <perspective>
            <xfov sid="xfov">39.59775</xfov>
            <aspect_ratio>1.777778</aspect_ratio>
            <znear sid="znear">0.1</znear>
            <zfar sid="zfar">100</zfar>
          </perspective>
        </technique_common>
      </optics>
      <extra>
        <technique profile="blender">
          <shiftx sid="shiftx" type="float">0</shiftx>
          <shifty sid="shifty" type="float">0</shifty>
          <dof_distance sid="dof_distance" type="float">10</dof_distance>
        </technique>
      </extra>
    </camera>
    <camera id="Camera_003-camera" name="Camera.003">
      <optics>
        <technique_common>
          <perspective>
            <xfov sid="xfov">39.59775</xfov>
            <aspect_ratio>1.777778</aspect_ratio>
            <znear sid="znear">0.1</znear>
            <zfar sid="zfar">100</zfar>
          </perspective>
        </technique_common>
      </optics>
      <extra>
        <technique profile="blender">
          <shiftx sid="shiftx" type="float">0</shiftx>
          <shifty sid="shifty" type="float">0</shifty>
          <dof_distance sid="dof_distance" type="float">10</dof_distance>
        </technique>
      </extra>
    </camera>
    <camera id="Camera_002-camera" name="Camera.002">
      <optics>
        <technique_common>
          <perspective>
            <xfov sid="xfov">39.59775</xfov>
            <aspect_ratio>1.777778</aspect_ratio>
            <znear sid="znear">0.1</znear>
            <zfar sid="zfar">100</zfar>
          </perspective>
        </technique_common>
      </optics>
      <extra>
        <technique profile="blender">
          <shiftx sid="shiftx" type="float">0</shiftx>
          <shifty sid="shifty" type="float">0</shifty>
          <dof_distance sid="dof_distance" type="float">10</dof_distance>
        </technique>
      </extra>
    </camera>
    <camera id="Camera_001-camera" name="Camera.001">
      <optics>
        <technique_common>
          <perspective>
            <xfov sid="xfov">39.59775</xfov>
            <aspect_ratio>1.777778</aspect_ratio>
            <znear sid="znear">0.1</znear>
            <zfar sid="zfar">100</zfar>
          </perspective>
        </technique_common>
      </optics>
      <extra>
        <technique profile="blender">
          <shiftx sid="shiftx" type="float">0</shiftx>
          <shifty sid="shifty" type="float">0</shifty>
          <dof_distance sid="dof_distance" type="float">10</dof_distance>
        </technique>
      </extra>
    </camera>
    <camera id="Camera-camera" name="Camera">
      <optics>
        <technique_common>
          <perspective>
            <xfov sid="xfov">39.59775</xfov>
            <aspect_ratio>1.777778</aspect_ratio>
            <znear sid="znear">0.1</znear>
            <zfar sid="zfar">100</zfar>
          </perspective>
        </technique_common>
      </optics>
      <extra>
        <technique profile="blender">
          <shiftx sid="shiftx" type="float">0</shiftx>
          <shifty sid="shifty" type="float">0</shifty>
          <dof_distance sid="dof_distance" type="float">10</dof_distance>
        </technique>
      </extra>
    </camera>
  </library_cameras>
  <library_lights>
    <light id="Light_004-light" name="Light.004">
      <technique_common>
        <point>
          <color sid="color">1000 1000 1000</color>
          <constant_attenuation>1</constant_attenuation>
          <linear_attenuation>0</linear_attenuation>
          <quadratic_attenuation>0.001599967</quadratic_attenuation>
        </point>
      </technique_common>
      <extra>
        <technique profile="blender">
          <type sid="type" type="int">0</type>
          <flag sid="flag" type="int">0</flag>
          <mode sid="mode" type="int">2097153</mode>
          <gamma sid="blender_gamma" type="float">1</gamma>
          <red sid="red" type="float">1</red>
          <green sid="green" type="float">1</green>
          <blue sid="blue" type="float">1</blue>
          <shadow_r sid="blender_shadow_r" type="float">0</shadow_r>
          <shadow_g sid="blender_shadow_g" type="float">0</shadow_g>
          <shadow_b sid="blender_shadow_b" type="float">0</shadow_b>
          <energy sid="blender_energy" type="float">1000</energy>
          <dist sid="blender_dist" type="float">25</dist>
          <spotsize sid="spotsize" type="float">75</spotsize>
          <spotblend sid="spotblend" type="float">0.15</spotblend>
          <att1 sid="att1" type="float">0</att1>
          <att2 sid="att2" type="float">1</att2>
          <falloff_type sid="falloff_type" type="int">2</falloff_type>
          <clipsta sid="clipsta" type="float">0.04999995</clipsta>
          <clipend sid="clipend" type="float">40</clipend>
          <bias sid="bias" type="float">1</bias>
          <soft sid="soft" type="float">3</soft>
          <bufsize sid="bufsize" type="int">512</bufsize>
          <samp sid="samp" type="int">3</samp>
          <buffers sid="buffers" type="int">1</buffers>
          <area_shape sid="area_shape" type="int">1</area_shape>
          <area_size sid="area_size" type="float">0.1</area_size>
          <area_sizey sid="area_sizey" type="float">0.1</area_sizey>
          <area_sizez sid="area_sizez" type="float">1</area_sizez>
        </technique>
      </extra>
    </light>
    <light id="Light_003-light" name="Light.003">
      <technique_common>
        <point>
          <color sid="color">1000 1000 1000</color>
          <constant_attenuation>1</constant_attenuation>
          <linear_attenuation>0</linear_attenuation>
          <quadratic_attenuation>0.001599967</quadratic_attenuation>
        </point>
      </technique_common>
      <extra>
        <technique profile="blender">
          <type sid="type" type="int">0</type>
          <flag sid="flag" type="int">0</flag>
          <mode sid="mode" type="int">2097153</mode>
          <gamma sid="blender_gamma" type="float">1</gamma>
          <red sid="red" type="float">1</red>
          <green sid="green" type="float">1</green>
          <blue sid="blue" type="float">1</blue>
          <shadow_r sid="blender_shadow_r" type="float">0</shadow_r>
          <shadow_g sid="blender_shadow_g" type="float">0</shadow_g>
          <shadow_b sid="blender_shadow_b" type="float">0</shadow_b>
          <energy sid="blender_energy" type="float">1000</energy>
          <dist sid="blender_dist" type="float">25</dist>
          <spotsize sid="spotsize" type="float">75</spotsize>
          <spotblend sid="spotblend" type="float">0.15</spotblend>
          <att1 sid="att1" type="float">0</att1>
          <att2 sid="att2" type="float">1</att2>
          <falloff_type sid="falloff_type" type="int">2</falloff_type>
          <clipsta sid="clipsta" type="float">0.04999995</clipsta>
          <clipend sid="clipend" type="float">40</clipend>
          <bias sid="bias" type="float">1</bias>
          <soft sid="soft" type="float">3</soft>
          <bufsize sid="bufsize" type="int">512</bufsize>
          <samp sid="samp" type="int">3</samp>
          <buffers sid="buffers" type="int">1</buffers>
          <area_shape sid="area_shape" type="int">1</area_shape>
          <area_size sid="area_size" type="float">0.1</area_size>
          <area_sizey sid="area_sizey" type="float">0.1</area_sizey>
          <area_sizez sid="area_sizez" type="float">1</area_sizez>
        </technique>
      </extra>
    </light>
    <light id="Light_002-light" name="Light.002">
      <technique_common>
        <point>
          <color sid="color">1000 1000 1000</color>
          <constant_attenuation>1</constant_attenuation>
          <linear_attenuation>0</linear_attenuation>
          <quadratic_attenuation>0.001599967</quadratic_attenuation>
        </point>
      </technique_common>
      <extra>
        <technique profile="blender">
          <type sid="type" type="int">0</type>
          <flag sid="flag" type="int">0</flag>
          <mode sid="mode" type="int">2097153</mode>
          <gamma sid="blender_gamma" type="float">1</gamma>
          <red sid="red" type="float">1</red>
          <green sid="green" type="float">1</green>
          <blue sid="blue" type="float">1</blue>
          <shadow_r sid="blender_shadow_r" type="float">0</shadow_r>
          <shadow_g sid="blender_shadow_g" type="float">0</shadow_g>
          <shadow_b sid="blender_shadow_b" type="float">0</shadow_b>
          <energy sid="blender_energy" type="float">1000</energy>
          <dist sid="blender_dist" type="float">25</dist>
          <spotsize sid="spotsize" type="float">75</spotsize>
          <spotblend sid="spotblend" type="float">0.15</spotblend>
          <att1 sid="att1" type="float">0</att1>
          <att2 sid="att2" type="float">1</att2>
          <falloff_type sid="falloff_type" type="int">2</falloff_type>
          <clipsta sid="clipsta" type="float">0.04999995</clipsta>
          <clipend sid="clipend" type="float">40</clipend>
          <bias sid="bias" type="float">1</bias>
          <soft sid="soft" type="float">3</soft>
          <bufsize sid="bufsize" type="int">512</bufsize>
          <samp sid="samp" type="int">3</samp>
          <buffers sid="buffers" type="int">1</buffers>
          <area_shape sid="area_shape" type="int">1</area_shape>
          <area_size sid="area_size" type="float">0.1</area_size>
          <area_sizey sid="area_sizey" type="float">0.1</area_sizey>
          <area_sizez sid="area_sizez" type="float">1</area_sizez>
        </technique>
      </extra>
    </light>
    <light id="Light_001-light" name="Light.001">
      <technique_common>
        <point>
          <color sid="color">1000 1000 1000</color>
          <constant_attenuation>1</constant_attenuation>
          <linear_attenuation>0</linear_attenuation>
          <quadratic_attenuation>0.001599967</quadratic_attenuation>
        </point>
      </technique_common>
      <extra>
        <technique profile="blender">
          <type sid="type" type="int">0</type>
          <flag sid="flag" type="int">0</flag>
          <mode sid="mode" type="int">2097153</mode>
          <gamma sid="blender_gamma" type="float">1</gamma>
          <red sid="red" type="float">1</red>
          <green sid="green" type="float">1</green>
          <blue sid="blue" type="float">1</blue>
          <shadow_r sid="blender_shadow_r" type="float">0</shadow_r>
          <shadow_g sid="blender_shadow_g" type="float">0</shadow_g>
          <shadow_b sid="blender_shadow_b" type="float">0</shadow_b>
          <energy sid="blender_energy" type="float">1000</energy>
          <dist sid="blender_dist" type="float">25</dist>
          <spotsize sid="spotsize" type="float">75</spotsize>
          <spotblend sid="spotblend" type="float">0.15</spotblend>
          <att1 sid="att1" type="float">0</att1>
          <att2 sid="att2" type="float">1</att2>
          <falloff_type sid="falloff_type" type="int">2</falloff_type>
          <clipsta sid="clipsta" type="float">0.04999995</clipsta>
          <clipend sid="clipend" type="float">40</clipend>
          <bias sid="bias" type="float">1</bias>
          <soft sid="soft" type="float">3</soft>
          <bufsize sid="bufsize" type="int">512</bufsize>
          <samp sid="samp" type="int">3</samp>
          <buffers sid="buffers" type="int">1</buffers>
          <area_shape sid="area_shape" type="int">1</area_shape>
          <area_size sid="area_size" type="float">0.1</area_size>
          <area_sizey sid="area_sizey" type="float">0.1</area_sizey>
          <area_sizez sid="area_sizez" type="float">1</area_sizez>
        </technique>
      </extra>
    </light>
    <light id="Light-light" name="Light">
      <technique_common>
        <point>
          <color sid="color">1000 1000 1000</color>
          <constant_attenuation>1</constant_attenuation>
          <linear_attenuation>0</linear_attenuation>
          <quadratic_attenuation>0.00111109</quadratic_attenuation>
        </point>
      </technique_common>
      <extra>
        <technique profile="blender">
          <type sid="type" type="int">0</type>
          <flag sid="flag" type="int">0</flag>
          <mode sid="mode" type="int">1</mode>
          <gamma sid="blender_gamma" type="float">1</gamma>
          <red sid="red" type="float">1</red>
          <green sid="green" type="float">1</green>
          <blue sid="blue" type="float">1</blue>
          <shadow_r sid="blender_shadow_r" type="float">0</shadow_r>
          <shadow_g sid="blender_shadow_g" type="float">0</shadow_g>
          <shadow_b sid="blender_shadow_b" type="float">0</shadow_b>
          <energy sid="blender_energy" type="float">1000</energy>
          <dist sid="blender_dist" type="float">29.99998</dist>
          <spotsize sid="spotsize" type="float">75</spotsize>
          <spotblend sid="spotblend" type="float">0.15</spotblend>
          <att1 sid="att1" type="float">0</att1>
          <att2 sid="att2" type="float">1</att2>
          <falloff_type sid="falloff_type" type="int">2</falloff_type>
          <clipsta sid="clipsta" type="float">0.04999995</clipsta>
          <clipend sid="clipend" type="float">30.002</clipend>
          <bias sid="bias" type="float">1</bias>
          <soft sid="soft" type="float">3</soft>
          <bufsize sid="bufsize" type="int">2880</bufsize>
          <samp sid="samp" type="int">3</samp>
          <buffers sid="buffers" type="int">1</buffers>
          <area_shape sid="area_shape" type="int">1</area_shape>
          <area_size sid="area_size" type="float">0.1</area_size>
          <area_sizey sid="area_sizey" type="float">0.1</area_sizey>
          <area_sizez sid="area_sizez" type="float">1</area_sizez>
        </technique>
      </extra>
    </light>
  </library_lights>
  <library_effects>
    <effect id="black_spec_007-effect">
      <profile_COMMON>
        <technique sid="common">
          <lambert>
            <emission>
              <color sid="emission">0 0 0 1</color>
            </emission>
            <diffuse>
              <color sid="diffuse">0.16355 0.16355 0.16355 1</color>
            </diffuse>
            <transparent opaque="A_ONE">
              <color sid="alpha">0 0 0 0</color>
            </transparent>
            <index_of_refraction>
              <float sid="ior">1.5</float>
            </index_of_refraction>
          </lambert>
        </technique>
      </profile_COMMON>
    </effect>
  </library_effects>
  <library_images/>
  <library_materials>
    <material id="black_spec_007-material" name="black_spec.007">
      <instance_effect url="#black_spec_007-effect"/>
    </material>
  </library_materials>
  <library_geometries>
    <geometry id="th_proximal_001-mesh" name="th_proximal_001">
      <mesh>
        <source id="th_proximal_001-mesh-positions">
          <float_array id="th_proximal_001-mesh-positions-array" count="621">6.56299 -2.38277 47.24268 5.35263 -4.47927 47.24261 8.87247 -3.22337 44.3999 6.60916 0.001129925 47.53578 2.84679 -2.37657 49.09227 2.54221 1.3979 49.16618 10.14795 -3.68767 40.89576 10.66138 2.26448 37.15411 10.65737 -0.005539894 41.13606 12.34216 2.62174 3.91527 11.52786 5.12782 3.91527 11.01634 0.001129925 12.1286 9.95809 4.42892 37.15411 10.15396 0.001129925 28.83627 8.87557 6.44006 12.12189 10.19228 0.001129925 20.46215 8.19527 5.94582 20.45875 8.177802 5.93308 28.83789 8.44714 9.368062 3.91528 6.45203 8.863552 12.12188 5.95784 8.1833 20.45874 5.94505 8.16576 28.8379 7.29732 8.0911 37.15418 6.31535 10.9169 3.91528 3.39832 10.41953 12.12189 3.90808 11.98867 3.91527 3.13846 9.619852 20.45875 3.13175 9.59923 28.83789 3.37712 10.35445 37.15417 1.33067 12.53653 3.91528 -3.37208 10.41953 12.12189 -3.11222 9.619852 20.45875 -3.1055 9.59923 28.83789 -1.30443 12.53653 3.91528 -1.12475 10.82762 37.15418 -3.88184 11.98867 3.91527 -6.28911 10.9169 3.91528 -6.42579 8.863552 12.12189 -5.9316 8.1833 20.45875 -5.9188 8.16576 28.83789 -7.27106 8.0911 37.15418 -8.4209 9.368062 3.91528 -11.50162 5.12782 3.91528 -8.84933 6.44006 12.12189 -8.16902 5.94582 20.45875 -8.15156 5.93308 28.83789 -9.93184 4.42892 37.15411 -10.9901 0.001129925 12.1286 -10.16603 0.001129925 20.46214 -10.12771 0.001129925 28.83627 -12.59134 0.001129925 3.91535 -10.63514 2.26448 37.15411 3.49825 -6.03527 47.24268 7.23523 -6.05897 44.3999 9.6797 -0.008859992 44.25639 12.91713 1.09479 -0.14384 9.76257 3.16892 -7.26175 8.30649 6.02662 -7.26175 4.71547 5.68328 -9.958292 6.03859 8.2945 -7.26168 4.72706 -8.16367 44.39983 8.2751 -6.93147 40.89576 7.16706 9.84777 -3.83483 7.64245 10.50204 0.009079992 3.18089 9.75057 -7.26168 3.77422 11.57655 -3.83483 4.02411 12.34569 0.009139955 -2.27218 7.03446 -9.958722 -3.11307 2.27245 -11.67954 -3.15472 9.75057 -7.26175 0.01311993 12.17225 -3.83483 0.01311993 12.98097 0.009139955 -3.74798 11.57655 -3.83482 -3.99787 12.34569 0.009149968 -5.6417 4.78556 -9.95684 -6.01242 8.2945 -7.26175 -7.14089 9.84777 -3.8349 -7.61621 10.50204 0.009079992 -8.28025 6.02662 -7.26175 -9.83349 7.15513 -3.83482 -10.48777 7.63049 0.009079992 -6.82884 2.31377 -9.9581 -9.73633 3.16892 -7.26175 -11.56236 3.76221 -3.83482 -12.33148 4.01212 0.009079992 -12.08549 0.03692996 -3.51346 -12.7593 -0.06819999 -0.007479906 8.2751 6.93376 40.89576 7.23524 6.06125 44.3999 5.35263 4.48149 47.24261 5.40581 9.341442 40.89576 4.72706 8.16591 44.39983 3.49824 6.0375 47.24268 1.88597 10.62254 40.89576 1.65022 9.28577 44.3999 -1.85971 10.62254 40.89576 -1.62397 9.28577 44.3999 -1.19723 6.86544 47.24269 -2.82054 2.37884 49.09227 -5.37955 9.341442 40.89577 -4.70088 8.16591 44.3999 -8.24885 6.93376 40.89577 -7.20898 6.06125 44.39991 -5.32638 4.48149 47.24262 -10.61057 1.65543 40.89317 -9.63732 1.11884 44.52992 -6.58291 0.001129925 47.53579 9.95809 -4.42667 37.15411 10.66138 -2.26227 37.15411 -12.31592 -2.61947 3.91528 -10.40525 -3.38397 12.12189 -9.60558 -3.12417 20.45875 -9.585 -3.11747 28.83789 -10.63514 -2.26227 37.15411 -11.50162 -5.12557 3.91528 -9.93184 -4.42667 37.15411 -8.84933 -6.43777 12.12189 -8.16902 -5.94357 20.45875 -8.15156 -5.93087 28.83789 -8.4209 -9.36577 3.91528 -6.42579 -8.86127 12.12189 -5.9316 -8.18107 20.45875 -5.9188 -8.163472 28.83789 -7.27106 -8.088871 37.15418 -6.28911 -10.91467 3.91528 -3.37208 -10.41727 12.12189 -3.88184 -11.98637 3.91528 -3.11222 -9.61757 20.45875 -3.1055 -9.59697 28.83789 -3.35086 -10.35217 37.15417 -1.30443 -12.53427 3.91528 1.33067 -12.53427 3.91528 1.151 -10.82537 37.15418 3.39832 -10.41727 12.12189 3.90808 -11.98637 3.91528 3.13846 -9.61757 20.45875 3.13175 -9.59697 28.83789 6.31535 -10.91467 3.91528 6.45203 -8.86127 12.12188 5.95784 -8.18107 20.45874 5.94505 -8.163472 28.8379 7.29732 -8.088871 37.15418 8.44714 -9.36577 3.91528 11.52786 -5.12557 3.91527 8.87557 -6.43777 12.12189 8.19527 -5.94357 20.45875 8.177802 -5.93087 28.83789 10.43149 -3.38397 12.12188 9.631832 -3.12417 20.45875 9.61125 -3.11747 28.8379 12.34216 -2.61947 3.91527 -3.66193 -1.19297 -11.67954 -6.96572 -1.29969 -9.956521 -9.73633 -3.16667 -7.26174 -11.64271 -3.81134 -3.89589 -12.33148 -4.00987 0.009079992 -5.96978 -4.34567 -9.958722 -8.28025 -6.02437 -7.26175 -9.83349 -7.15287 -3.83482 -10.48777 -7.62827 0.009079992 -6.01242 -8.29227 -7.26175 -7.14089 -9.84547 -3.8349 -7.61621 -10.49977 0.009079992 0.01311993 -7.39417 -9.95865 0.01311993 -10.25007 -7.26175 -3.74798 -11.57427 -3.83482 -3.99787 -12.34347 0.009149968 0.01311993 -12.16997 -3.83483 0.01311993 -12.97867 0.009149968 3.13931 -2.27017 -11.67954 2.29842 -7.03217 -9.95873 3.18089 -9.74827 -7.26168 3.77422 -11.57427 -3.83483 4.02411 -12.34347 0.009149968 5.99602 -4.34567 -9.95873 6.03859 -8.29227 -7.26168 7.16706 -9.84547 -3.83483 7.64245 -10.49977 0.009079992 8.30649 -6.02437 -7.26175 9.85972 -7.15287 -3.83483 10.51401 -7.62827 0.009069979 7.0465 -2.28417 -9.958722 9.76257 -3.16667 -7.26175 11.5886 -3.75997 -3.83483 12.35772 -4.00987 0.009069979 -10.1217 -3.68767 40.89577 -8.84622 -3.22337 44.39991 -6.53674 -2.38277 47.24269 -3.46287 -1.26402 49.09227 -8.24885 -6.93147 40.89577 -7.20898 -6.05897 44.39991 -5.32638 -4.47927 47.24262 -5.37955 -9.33917 40.89577 -4.70088 -8.16367 44.39991 -3.47199 -6.03527 47.24269 -1.85971 -10.62027 40.89576 -1.62397 -9.283472 44.39991 1.88597 -10.62027 40.89576 1.65022 -9.283472 44.3999 5.40581 -9.33917 40.89576 -3.19907 -6.56849 -9.78374 -3.78335 -9.397952 -7.68514 9.97586 6.39629 -3.98794 10.94574 6.09801 -0.28748 11.56665 1.4405 -3.96156 1.4419 7.54037 -9.95509 7.22986 1.88477 -9.95264</float_array>
          <technique_common>
            <accessor source="#th_proximal_001-mesh-positions-array" count="207" stride="3">
              <param name="X" type="float"/>
              <param name="Y" type="float"/>
              <param name="Z" type="float"/>
            </accessor>
          </technique_common>
        </source>
        <source id="th_proximal_001-mesh-normals">
          <float_array id="th_proximal_001-mesh-normals-array" count="1230">0.6593989 -0.3807087 0.64827 0.442309 -0.1178783 0.8890824 0.375674 0.0121693 0.9266721 0.9221954 0.2996487 0.2444719 0.9415944 0.3059505 -0.1406926 0.944749 0.3142005 0.0934211 0.9191676 0.305857 0.2481583 0.9479322 0.318443 0.004337787 0.9435662 0.3170287 0.09579098 0.9387844 0.3127841 -0.144396 0.9487362 0.3160595 0.002458393 0.7979038 0.5797119 0.1651778 0.6912494 0.6912631 0.2105461 0.7036165 0.7036314 0.09912997 0.7036326 0.7036164 0.09912174 0.7071126 0.7070965 0.002549231 0.707093 0.707116 0.002559483 0.8026378 0.5831621 -0.1252778 0.706901 0.7069231 -0.02346748 0.5771748 0.7944117 0.1891545 0.4517632 0.8866141 0.09912347 0.3970806 0.8918731 0.2165395 0.4453057 0.87394 0.1947614 0.4539903 0.891003 0.002558231 0.4517558 0.8866176 0.09912627 0.4530158 0.8890798 -0.06568104 0.4539946 0.8910008 0.002556085 0.4978375 0.8622704 -0.09299302 0.2038825 0.9591623 0.1960602 0 0.9683013 0.2497853 0 0.9954311 0.09548276 0 0.999997 0.002460896 0 0.9954311 0.09548258 0 0.995902 -0.09043991 0 0.999997 0.002461194 0 0.9683011 0.2497858 0.1030201 0.9801628 -0.1693157 -0.2038826 0.9591623 0.1960602 -0.3988372 0.8958182 0.1960582 -0.4517627 0.8866141 0.0991261 -0.4438221 0.8710296 0.2105456 -0.4517562 0.8866177 0.09912317 -0.4539904 0.8910029 0.00255692 -0.4539945 0.8910009 0.002558529 -0.4060568 0.9120158 -0.05783867 -0.4538711 0.8907582 -0.02347129 -0.5771749 0.7944116 0.1891543 -0.7879439 0.5724759 0.2267506 -0.7024336 0.7024469 0.1146975 -0.7036173 0.7036317 0.0991221 -0.7036335 0.7036142 0.09913116 -0.7071139 0.7070952 0.002560257 -0.7029588 0.702984 -0.1079926 -0.7070919 0.7071172 0.002548515 -0.8072081 0.5864836 -0.06672406 -0.9191675 0.3058571 0.2481585 -0.9445427 0.3141345 0.09570032 -0.9437884 0.3171017 0.0933274 -0.9479386 0.3184439 0.002459406 -0.938785 0.3127827 -0.1443954 -0.9487307 0.316056 0.004341423 -0.9608321 0.204236 0.187322 -0.9415926 0.3059548 -0.1406946 0.4894447 -0.5832687 0.6482605 0.4312075 -0.2489774 0.8672199 0.7263253 -0.09771829 0.6803696 0.9223467 -0.1508198 0.3557106 0.9508917 0.3089725 0.0184642 0.5581383 0.2843875 -0.7794906 0.4921319 0.4921585 -0.7180434 0.6005796 -0.7157229 0.3564337 0.8090103 0.587781 0.00397557 0.5840181 0.8038308 0.1130442 0.3972281 0.7796048 -0.484176 0.3075932 0.6036859 -0.735493 0.3972343 0.7795976 -0.4841822 0.4445031 0.8723657 -0.2034583 0.4444956 0.8723717 -0.2034488 0.4531894 0.889426 0.05950546 0.404886 0.9094034 0.09514653 5.1946e-6 0.8825315 -0.4702534 7.55057e-6 0.7046037 -0.709601 0.1531628 0.9670312 -0.2034501 0.119631 0.7553203 -0.6443446 0.2077413 0.9773189 0.04112762 0.1557347 0.9832687 0.09449619 0.153163 0.9670313 -0.2034499 0 0.9935892 0.1130506 -0.1368774 0.8642011 -0.4841705 -0.1531633 0.9670311 -0.2034501 -0.1561574 0.985938 0.05950814 -0.1531634 0.9670308 -0.2034513 -0.2069742 0.9737091 0.09514468 -0.2457966 0.3675268 -0.8969438 -0.3890692 0.582344 -0.7137932 -0.2874424 0.5641378 -0.7740321 -0.3972303 0.7796086 -0.4841678 -0.4444929 0.8723731 -0.2034482 -0.3972205 0.7796089 -0.4841755 -0.4444953 0.8723722 -0.2034468 -0.4063875 0.9127749 0.04112571 -0.451963 0.8870173 0.09449887 -0.584018 0.8038309 0.1130444 -0.6187058 0.6186923 -0.4841725 -0.4955528 0.4955418 -0.7133483 -0.6187129 0.6186896 -0.484167 -0.6923268 0.6923107 -0.2034443 -0.6923159 0.6923177 -0.2034572 -0.7058529 0.7058549 0.05950355 -0.7980163 0.5797939 0.1643447 -0.6117191 0.2941678 -0.7343466 -0.4102714 0.1974971 -0.8903215 -0.5979368 0.304666 -0.7413841 -0.7796087 0.3972334 -0.4841652 -0.7795951 0.3972442 -0.4841783 -0.8723605 0.4445134 -0.2034581 -0.8894217 0.4531971 0.05951142 -0.8723656 0.444507 -0.2034497 -0.9675481 0.205663 0.1468108 -0.8736977 0.08131557 -0.4796252 -0.9720718 0.1190589 -0.2022409 -0.993741 0.1040272 0.04070925 -0.9773513 0.1032246 -0.1847406 0.9307862 -0.2207314 0.2914017 0.936477 0.3042886 0.1744114 0.924799 0.3243695 0.198825 0.9039361 0.320142 0.2835642 0.703707 0.2678281 0.6580764 0.8735277 0.3436217 0.3447803 0.417657 0.1754685 0.8915008 0.7384807 0.2481334 0.6269579 0.8086584 0.587534 -0.02958983 0.6005778 0.7157241 0.3564341 0.6412733 0.7642216 0.06880521 0.4894261 0.5832784 0.6482656 0.6005709 0.7157266 0.356441 0.2693349 0.3209407 0.9079955 0.4894467 0.5832739 0.6482543 0.4996678 0.8654432 -0.03660768 0.3412052 0.9374669 0.06881058 0.3195519 0.8779741 0.3564381 0.2604311 0.7154988 0.648257 0.3195583 0.8779744 0.3564316 0 0.9343227 0.3564282 0.1044835 0.9940865 -0.02958756 0 0.9985013 0.05472898 0 0.6585759 0.7525144 0 0.9343227 0.3564283 0.1347788 0.7643639 0.6305416 0.06535506 0.3706347 0.9264764 0.05374711 0.363896 0.9298876 -0.3195517 0.8779769 0.3564313 -0.4065571 0.913139 -0.02980965 -0.3386593 0.9304751 -0.1397356 -0.2604114 0.7155007 0.6482629 -0.319546 0.8779813 0.3564255 -0.6005805 0.7157273 0.3564236 -0.6412732 0.7642217 0.06880384 -0.4233302 0.5044816 0.7525224 -0.6005869 0.7157156 0.356436 -0.3880816 0.6721636 0.6305465 -0.2578036 0.446504 0.8568381 -0.8086575 0.5875352 -0.02959114 -0.9043475 0.4045709 0.1359345 -0.8554264 0.3825787 0.3491122 -0.6792389 0.350686 0.6447123 -0.8553299 0.4279298 0.2920395 -0.6395013 0.2274048 0.7343877 -0.4752147 0.1894983 0.8592215 -0.9495338 0.3085349 0.05649626 0.7431357 -0.1575832 0.6503206 0.9509746 -0.3090052 0.01277583 -0.9763393 -0.1026172 0.1903453 0.6593963 -0.3807278 0.6482616 -0.9807239 -0.1696341 0.09697979 -0.9636114 -0.1668987 0.2088012 -0.9794033 -0.1757407 0.09942072 -0.9842877 -0.1765144 0.004504144 -0.9851904 -0.1714451 0.002556681 -0.9921213 0 -0.1252811 -0.9851033 -0.1714377 -0.01344656 0.8091393 -0.4671683 0.3564372 -0.9338844 -0.3034446 0.1891599 -0.9473637 -0.3078356 -0.08797293 -0.8866267 -0.4517388 0.09912258 -0.8710409 -0.4437979 0.2105498 -0.8910036 -0.4539892 0.002551317 -0.8866174 -0.4517556 0.09912991 -0.8858031 -0.4513207 -0.1079939 -0.8910111 -0.4539745 0.002544701 -0.7979011 -0.5797153 0.1651793 -0.6912506 -0.6912621 0.2105453 -0.7036183 -0.70363 0.09912747 -0.707117 -0.707092 0.002545118 -0.7036374 -0.7036123 0.09911733 -0.7070792 -0.7071297 0.002565205 -0.8026384 -0.5831607 -0.1252807 -0.706887 -0.7069375 -0.023458 -0.5771898 -0.7944004 0.1891562 -0.4517679 -0.8866124 0.09911811 -0.3970593 -0.8918808 0.2165468 -0.4453101 -0.8739385 0.1947575 -0.4517433 -0.8866237 0.09912872 -0.4539775 -0.8910095 0.002565026 -0.4530228 -0.8890757 -0.06568759 -0.4540018 -0.8909971 0.002554476 -0.4978289 -0.8622756 -0.09299093 -0.2038959 -0.9591603 0.1960563 0 -0.9683011 0.249786 -0.1040832 -0.9902119 -0.09299141 0 -0.9954309 0.09548515 0 -0.999997 0.002458691 0 -0.995431 0.09548503 0 -0.9892662 -0.1461248 0 -0.9999971 0.002458453 0.3988167 -0.8958281 0.1960548 0.4438267 -0.8710262 0.2105503 0.4517678 -0.8866112 0.09912824 0.4539778 -0.8910094 0.002554178 0.4517438 -0.8866246 0.09911757 0.4540016 -0.8909972 0.002564132 0.4060531 -0.912017 -0.05784529 0.4538787 -0.8907544 -0.02347028 0.5771896 -0.7944005 0.1891564 0.7879419 -0.5724788 0.22675 0.7024338 -0.702446 0.1147012 0.703619 -0.7036306 0.09911787 0.7071154 -0.7070935 0.00256443 0.7036351 -0.7036132 0.09912699 0.7029473 -0.702995 -0.1079967 0.7070806 -0.7071285 0.002545773 0.807211 -0.5864799 -0.06672322 0.8866261 -0.4517385 0.0991286 0.8710411 -0.4437977 0.2105497 0.891003 -0.4539902 0.002545535 0.8866181 -0.4517561 0.09912085 0.8858022 -0.4513223 -0.1079942 0.8910099 -0.4539768 0.002551496 0.9338846 -0.303444 0.1891598 0.9473651 -0.3078317 -0.08797258 0.9739516 0 0.2267562 0.9800118 -0.1695248 0.1041064 0.8647228 -0.4992587 0.0547288 0.9804944 -0.1695991 0.09933257 0.984295 -0.1765133 0.002558767 0.9796512 -0.175782 0.09687238 0.9796162 -0.1705318 -0.1061645 0.809137 -0.4671842 0.3564214 0.9851839 -0.1714425 0.004508256 0.9981445 0 -0.06089073 -0.4188265 0.06633448 -0.9056401 -0.4627861 0.01714348 -0.8863041 -0.6757578 0.025276 -0.7366903 -0.8473392 -8.16675e-7 -0.5310523 -0.6972289 -1.09049e-6 -0.7168487 -0.8649154 -0.04988414 -0.4994328 -0.9772033 -0.09349417 -0.190611 -0.9936807 -0.1044356 0.04113161 -0.9931998 -0.107612 0.04442656 -0.9782091 -0.1069203 -0.1779753 -0.9449568 -0.3070427 0.1130549 -0.4535943 -0.1476762 -0.8788879 -0.6109688 -0.1992141 -0.7661795 -0.7668552 -0.3907334 -0.5091763 -0.6157477 -0.3137388 -0.7227882 -0.8642356 -0.4711511 -0.17639 -0.7648199 -0.4229807 -0.4859402 -0.8723648 -0.4445029 -0.2034621 -0.8894231 -0.4531942 0.05951267 -0.6187113 -0.6186922 -0.4841656 -0.4886661 -0.4886506 -0.7227905 -0.6923192 -0.6923124 -0.2034646 -0.6187098 -0.6186959 -0.4841629 -0.6923106 -0.6923252 -0.2034499 -0.5840334 -0.8038199 0.1130424 -0.4444968 -0.87237 -0.2034534 -0.4531995 -0.8894212 0.05949991 -0.4445034 -0.8723649 -0.2034611 -0.4048638 -0.9094113 0.09516513 -0.1531628 -0.9670281 -0.2034648 -0.1368782 -0.8642052 -0.4841632 -0.1531445 -0.9670349 -0.2034459 -0.2077554 -0.9773164 0.04111289 -0.1557155 -0.9832697 0.09451687 0 -0.9935904 0.1130408 -0.04632937 -0.292516 -0.9551377 0 0 -1 0.05507928 -0.3479267 -0.9359024 0.1080937 -0.682555 -0.7227963 0.136907 -0.864202 -0.4841606 0.1081407 -0.68257 -0.7227751 0.1531629 -0.9670321 -0.2034452 0.1368751 -0.8641934 -0.4841849 0.1531439 -0.9670314 -0.2034633 0.1561385 -0.9859412 0.05950415 0.2069876 -0.9737042 0.09516537 0.2680498 -0.3689333 -0.889965 0.4141677 -0.5700455 -0.7095867 0.3972101 -0.7796066 -0.4841877 0.2753279 -0.5403872 -0.7950953 0.444507 -0.8723631 -0.2034606 0.3972426 -0.7796048 -0.484164 0.4445031 -0.8723641 -0.2034648 0.4063658 -0.9127854 0.04110807 0.4519719 -0.8870109 0.09451562 0.5840336 -0.8038198 0.1130425 0.4886493 -0.4886718 -0.7227875 0.618695 -0.6187095 -0.4841645 0.6186957 -0.6187095 -0.4841634 0.692308 -0.6923232 -0.2034657 0.6923079 -0.6923233 -0.2034654 0.7058465 -0.7058607 0.05951023 0.7980129 -0.5797966 0.1643518 0.3942439 -0.200891 -0.8967801 0.6157368 -0.3137584 -0.7227891 0.7796096 -0.3972331 -0.4841638 0.6157552 -0.3137447 -0.7227793 0.7795922 -0.3972477 -0.4841801 0.8723573 -0.4445165 -0.2034648 0.8894233 -0.4531938 0.05951243 0.8723676 -0.4445039 -0.2034485 0.9449569 -0.3070427 0.1130548 0.1338348 0.1842082 -0.9737328 0.8825304 0 -0.4702554 0.972886 -0.1126672 -0.2019878 0.9932975 -0.1075873 0.04225236 0.9901163 0 0.1402493 -0.9999785 0 0.006570875 -0.9654142 -0.08821219 0.2453446 -0.9907086 -0.09059548 0.1014343 0.3200755 -0.381416 0.8672218 -0.7209399 -0.151593 0.6762138 -0.9169182 -0.1777502 0.3573039 -0.7589473 -0.09392189 0.6443428 0.8086599 -0.5875323 -0.02958148 -0.5383825 0.0949313 0.8373364 -0.9509733 -0.3090088 0.01277679 -0.8647227 -0.4992588 0.05472892 -0.8091453 -0.4671693 0.3564219 -0.6593903 -0.380724 0.6482698 -0.809131 -0.4671823 0.3564377 -0.6594068 -0.380713 0.6482594 -0.4312026 -0.2489727 0.8672238 -0.8086588 -0.5875339 -0.02958273 -0.6412753 -0.7642191 0.06881445 -0.60058 -0.7157227 0.3564333 -0.6005992 -0.7157152 0.3564162 -0.4894518 -0.5832617 0.6482613 -0.2898886 -0.3454419 0.8925438 -0.4894351 -0.5832662 0.64827 -0.4996597 -0.8654482 -0.03660398 -0.3195534 -0.8779819 0.3564177 -0.3412055 -0.937467 0.06880861 -0.2603982 -0.7155027 0.648266 -0.31953 -0.8779822 0.3564379 -0.1044902 -0.9940858 -0.02958762 0 -0.998501 0.0547344 0 -0.9343204 0.3564344 1.8639e-6 -0.9343202 0.356435 0 -0.6585823 0.7525088 1.01431e-6 -0.6585843 0.7525069 1.7112e-6 -0.3614439 0.9323939 -0.08131402 -0.4611588 0.8835841 -2.57534e-6 0 1 0.3195521 -0.877974 0.3564379 0.3195445 -0.87798 0.3564303 0.2604187 -0.715506 0.648254 0.641276 -0.7642183 0.06881588 0.6005813 -0.7157208 0.356435 0.4894374 -0.5832837 0.6482524 0.9999996 0 0.00100708 0.9865469 -0.1417971 0.08135575 0.3419739 -0.9395788 -0.01567059 0.40473 -0.9090437 -0.09916251 -0.7058465 -0.7058607 0.05951052 -0.7980126 -0.5797968 0.1643521 -0.3698024 -0.5214855 -0.7689598 -0.1380395 -0.339961 -0.9302536 -0.2159814 -0.3412324 -0.9148293 -0.1393804 -0.8626085 -0.486292 -0.07282608 -0.6847548 -0.7251257 -0.4061464 -0.7971161 -0.4468235 -0.460513 -0.7416177 -0.4877818 -0.1878399 -0.5598012 -0.8070558 -0.3924959 -0.494258 -0.775665 0.6708008 0.5670965 -0.4779414 0.9298946 0.3651232 -0.04451161 0.8005602 0.59863 0.02730649 0.7848865 0.5993127 -0.1574082 0.7556552 0.6238048 -0.199632 0.8756369 -0.008072137 -0.4829027 0.9426273 -0.004156291 -0.3338213 0.8959184 0.2857763 -0.3400918 0.7951498 0.4051514 -0.4512085 0.6471197 0.6471375 -0.40305 0.9115894 0.3531455 -0.2104593 0.9100521 0.2905497 -0.2956113 0.3428059 0.6055166 -0.7182157 -0.1086304 0.8017177 -0.5877484 -0.04631084 0.3467134 -0.9368272 0.120158 0.213479 -0.9695303 0.242457 0.1590681 -0.9570329 0.4029601 -0.01638811 -0.9150709 0.6994173 -0.02972066 -0.7140953 0.7281855 0 -0.6853801 0.5760293 0.380221 -0.7236174 0.2038958 -0.9591603 0.1960561 0 -0.9683013 0.2497854 -0.01761543 -0.02099573 0.9996244 -0.3126869 -0.1218761 0.9420049</float_array>
          <technique_common>
            <accessor source="#th_proximal_001-mesh-normals-array" count="410" stride="3">
              <param name="X" type="float"/>
              <param name="Y" type="float"/>
              <param name="Z" type="float"/>
            </accessor>
          </technique_common>
        </source>
        <source id="th_proximal_001-mesh-map-0">
          <float_array id="th_proximal_001-mesh-map-0-array" count="2460">0.1382181 0.7379844 0.1065812 0.7385444 0.1415173 0.6961743 0.2655761 0.8377888 0.2765036 0.8073638 0.2987241 0.8455373 0.3219417 0.8005801 0.2987241 0.8455373 0.2765036 0.8073638 0.2244988 0.1498484 0.2490561 0.1522446 0.1872239 0.2607882 0.2364155 0.6011711 0.2152065 0.5991012 0.1845512 0.4867241 0.1872239 0.2607882 0.250032 0.2669224 0.1835802 0.3740158 0.250032 0.2669224 0.1872239 0.2607882 0.2490561 0.1522446 0.1835802 0.3740158 0.2414481 0.3797451 0.1845512 0.4867241 0.2414481 0.3797451 0.1835802 0.3740158 0.250032 0.2669224 0.1845512 0.4867241 0.2423931 0.4924852 0.2364155 0.6011711 0.2423931 0.4924852 0.1845512 0.4867241 0.2414481 0.3797451 1 0.5960595 0.9429328 0.6037742 0.9613527 0.4879943 0.9205958 0.4918099 0.9613527 0.4879943 0.9429328 0.6037742 0.9613527 0.4879943 0.9205958 0.4918099 0.9551152 0.3755087 0.9174882 0.3790299 0.9551152 0.3755087 0.9205958 0.4918099 0.9551152 0.3755087 0.9174882 0.3790299 0.9548342 0.2642407 0.917286 0.2677539 0.9548342 0.2642407 0.9174882 0.3790299 0.917286 0.2677539 0.9341093 0.1583956 0.9833971 0.1517353 0.9548342 0.2642407 0.917286 0.2677539 0.9833971 0.1517353 0.9429328 0.6037742 0.9097262 0.6056879 0.9205958 0.4918099 0.9205958 0.4918099 0.8760344 0.4929159 0.9174882 0.3790299 0.9205958 0.4918099 0.9097262 0.6056879 0.8753001 0.6061773 0.8760344 0.4929159 0.9205958 0.4918099 0.8753001 0.6061773 0.9174882 0.3790299 0.8763463 0.3800485 0.917286 0.2677539 0.8763463 0.3800485 0.9174882 0.3790299 0.8760344 0.4929159 0.917286 0.2677539 0.8762328 0.2687724 0.9341093 0.1583956 0.8762328 0.2687724 0.917286 0.2677539 0.8763463 0.3800485 0.8756976 0.1604725 0.9341093 0.1583956 0.8762328 0.2687724 0.8753001 0.6061773 0.8411609 0.6052224 0.8760344 0.4929159 0.7928836 0.4868484 0.8760344 0.4929159 0.8411609 0.6052224 0.8760344 0.4929159 0.7928836 0.4868484 0.8763463 0.3800485 0.8763463 0.3800485 0.7995783 0.3744505 0.8762328 0.2687724 0.7995783 0.3744505 0.8763463 0.3800485 0.7928836 0.4868484 0.8762328 0.2687724 0.7996302 0.2631863 0.8756976 0.1604725 0.7996302 0.2631863 0.8762328 0.2687724 0.7995783 0.3744505 0.8411609 0.6052224 0.8087983 0.6028591 0.7928836 0.4868484 0.8182619 0.1576078 0.8756976 0.1604725 0.7996302 0.2631863 0.7928836 0.4868484 0.8087983 0.6028591 0.7796281 0.5991987 0.5107065 0.5494014 0.4843139 0.5479412 0.4954626 0.4394384 0.4954626 0.4394384 0.4596699 0.4376519 0.4878556 0.327287 0.4596699 0.4376519 0.4954626 0.4394384 0.4843139 0.5479412 0.4548097 0.3256359 0.4878556 0.327287 0.4596699 0.4376519 0.4878556 0.327287 0.4548097 0.3256359 0.4879759 0.2141251 0.4550012 0.2124779 0.4879759 0.2141251 0.4548097 0.3256359 0.4550012 0.2124779 0.446708 0.09916883 0.5140962 0.1028889 0.4879759 0.2141251 0.4550012 0.2124779 0.5140962 0.1028889 0.4843139 0.5479412 0.453879 0.5468431 0.4596699 0.4376519 0.4596699 0.4376519 0.453879 0.5468431 0.3863214 0.5458922 0.4172654 0.4366135 0.4596699 0.4376519 0.3863214 0.5458922 0.4596699 0.4376519 0.4172654 0.4366135 0.4548097 0.3256359 0.415661 0.324677 0.4548097 0.3256359 0.4172654 0.4366135 0.4548097 0.3256359 0.415661 0.324677 0.4550012 0.2124779 0.4550012 0.2124779 0.4159353 0.2115231 0.446708 0.09916883 0.4159353 0.2115231 0.4550012 0.2124779 0.415661 0.324677 0.3883598 0.09834522 0.446708 0.09916883 0.4159353 0.2115231 0.3291926 0.4369716 0.4172654 0.4366135 0.3863214 0.5458922 0.4172654 0.4366135 0.3291926 0.4369716 0.415661 0.324677 0.334231 0.3250311 0.415661 0.324677 0.3291926 0.4369716 0.415661 0.324677 0.334231 0.3250311 0.4159353 0.2115231 0.4159353 0.2115231 0.3347747 0.2119567 0.3883598 0.09834522 0.3347747 0.2119567 0.4159353 0.2115231 0.334231 0.3250311 0.3863214 0.5458922 0.3197137 0.5467078 0.3291926 0.4369716 0.3588479 0.09851235 0.3883598 0.09834522 0.3347747 0.2119567 0.1065812 0.7385444 0.07749468 0.7402592 0.0987268 0.6969332 0.2678225 0.868367 0.2655761 0.8377888 0.2987241 0.8455373 0.1664326 0.743094 0.1382181 0.7379844 0.1838545 0.6948066 0.143063 0.6470643 0.1891815 0.6515045 0.1415173 0.6961743 0.2490561 0.1522446 0.2244988 0.1498484 0.2094194 0.09367424 0.7328858 0.9367676 0.7050236 0.9689871 0.7043951 0.8893536 0.7502818 0.8972702 0.7328858 0.9367676 0.7043951 0.8893536 0.0987268 0.6969332 0.05938273 0.6992498 0.09411191 0.6479327 0.9279652 0.6577013 0.9429328 0.6037742 1 0.5960595 0.9097262 0.6056879 0.9429328 0.6037742 0.9279652 0.6577013 0.9183871 0.7473213 0.876686 0.7483558 0.925151 0.706679 0.7555077 0.8543611 0.7502818 0.8972702 0.7043951 0.8893536 0.8756408 0.7079085 0.925151 0.706679 0.876686 0.7483558 0.925151 0.706679 0.8756408 0.7079085 0.9279652 0.6577013 0.8751645 0.6590104 0.9279652 0.6577013 0.8756408 0.7079085 0.9279652 0.6577013 0.8751645 0.6590104 0.9097262 0.6056879 0.8753001 0.6061773 0.9097262 0.6056879 0.8751645 0.6590104 0.876686 0.7483558 0.7988757 0.7426822 0.8756408 0.7079085 0.7286454 0.7750319 0.7555077 0.8543611 0.6908605 0.7952467 0.8756408 0.7079085 0.8267466 0.7060106 0.8751645 0.6590104 0.485386 0.793215 0.5081984 0.7481738 0.5081984 0.8535837 0.823022 0.6569852 0.8411609 0.6052224 0.8753001 0.6061773 0.8751645 0.6590104 0.823022 0.6569852 0.8753001 0.6061773 0.823022 0.6569852 0.8751645 0.6590104 0.8267466 0.7060106 0.8087983 0.6028591 0.8411609 0.6052224 0.823022 0.6569852 0.7832564 0.7011725 0.8267466 0.7060106 0.7988757 0.7426822 0.8267466 0.7060106 0.7832564 0.7011725 0.823022 0.6569852 0.823022 0.6569852 0.7766417 0.6518248 0.8087983 0.6028591 0.7766417 0.6518248 0.823022 0.6569852 0.7832564 0.7011725 0.7796281 0.5991987 0.8087983 0.6028591 0.7766417 0.6518248 0.6497966 0.7640677 0.6908605 0.7952467 0.6247234 0.8053913 0.6908605 0.7952467 0.6497966 0.7640677 0.7286454 0.7750319 0.6991874 0.7463774 0.7286454 0.7750319 0.6497966 0.7640677 0.4880769 0.7016181 0.4545816 0.6999471 0.5063188 0.6543076 0.5063188 0.6543076 0.4665503 0.6523222 0.5140962 0.6019559 0.4665503 0.6523222 0.5063188 0.6543076 0.4545816 0.6999471 0.4716849 0.5998432 0.5140962 0.6019559 0.4665503 0.6523222 0.4716849 0.5998432 0.4843139 0.5479412 0.5107065 0.5494014 0.5140962 0.6019559 0.4716849 0.5998432 0.5107065 0.5494014 0.453879 0.5468431 0.4843139 0.5479412 0.4716849 0.5998432 0.4545816 0.6999471 0.4149007 0.6989763 0.4665503 0.6523222 0.4149007 0.6989763 0.4545816 0.6999471 0.415276 0.7377446 0.4194375 0.6511684 0.4665503 0.6523222 0.4149007 0.6989763 0.4665503 0.6523222 0.4194375 0.6511684 0.4716849 0.5998432 0.4214413 0.5986099 0.4716849 0.5998432 0.4194375 0.6511684 0.4716849 0.5998432 0.4214413 0.5986099 0.453879 0.5468431 0.3863214 0.5458922 0.453879 0.5468431 0.4214413 0.5986099 0.415276 0.7377446 0.3793765 0.7376611 0.4149007 0.6989763 0.6153195 0.7613005 0.6497966 0.7640677 0.6247234 0.8053913 0.3729186 0.6987972 0.4149007 0.6989763 0.3793765 0.7376611 0.4149007 0.6989763 0.3729186 0.6987972 0.4194375 0.6511684 0.3695915 0.6509575 0.4194375 0.6511684 0.3729186 0.6987972 0.4194375 0.6511684 0.3695915 0.6509575 0.4214413 0.5986099 0.4214413 0.5986099 0.3682836 0.598387 0.3863214 0.5458922 0.3682836 0.598387 0.4214413 0.5986099 0.3695915 0.6509575 0.3197137 0.5467078 0.3863214 0.5458922 0.3682836 0.598387 0.3227415 0.6474124 0.3695915 0.6509575 0.3729186 0.6987972 0.3695915 0.6509575 0.3227415 0.6474124 0.3682836 0.598387 0.3682836 0.598387 0.317785 0.5995886 0.3197137 0.5467078 0.317785 0.5995886 0.3682836 0.598387 0.3227415 0.6474124 0.1415173 0.6961743 0.1891815 0.6515045 0.1838545 0.6948066 0.2152065 0.5991012 0.2364155 0.6011711 0.1891815 0.6515045 0.2563975 0.6550814 0.1891815 0.6515045 0.2364155 0.6011711 0.1891815 0.6515045 0.2563975 0.6550814 0.1838545 0.6948066 1 0.04625624 0.9424458 0.05714988 0.9621958 0 0.9424458 0.05714988 1 0.04625624 0.9513117 0.1067482 0.2765036 0.8073638 0.3156878 0.759339 0.3219417 0.8005801 0.04593473 0.7938223 0.0667963 0.7525792 0.0667963 0.8389884 0.9833971 0.1517353 0.9341093 0.1583956 0.9513117 0.1067482 0.9513117 0.1067482 0.9051517 0.1101222 0.9424458 0.05714988 0.9051517 0.1101222 0.9513117 0.1067482 0.9341093 0.1583956 0.9424458 0.05714988 0.9020951 0.06010204 0.9264474 0.01382988 0.9020951 0.06010204 0.9424458 0.05714988 0.9051517 0.1101222 0.3156878 0.759339 0.3445972 0.7481728 0.3219417 0.8005801 0.896615 0.01601022 0.9264474 0.01382988 0.9020951 0.06010204 0.9341093 0.1583956 0.8756976 0.1604725 0.9051517 0.1101222 0.8561122 0.1101341 0.9051517 0.1101222 0.8756976 0.1604725 0.9051517 0.1101222 0.8561122 0.1101341 0.9020951 0.06010204 0.9020951 0.06010204 0.8592276 0.06011003 0.896615 0.01601022 0.8592276 0.06011003 0.9020951 0.06010204 0.8561122 0.1101341 0.8561122 0.1101341 0.8101101 0.1067801 0.8592276 0.06011003 0.8561122 0.1101341 0.8756976 0.1604725 0.8182619 0.1576078 0.8101101 0.1067801 0.8561122 0.1101341 0.8182619 0.1576078 0.8592276 0.06011003 0.8190155 0.05717772 0.896615 0.01601022 0.8190155 0.05717772 0.8592276 0.06011003 0.8101101 0.1067801 0.8351919 0.01384979 0.896615 0.01601022 0.8190155 0.05717772 0.3445972 0.7481728 0.4011765 0.7577634 0.3219417 0.8005801 0.3870788 0.811412 0.3219417 0.8005801 0.4011765 0.7577634 0.8101101 0.1067801 0.7726909 0.1004619 0.8190155 0.05717772 0.507621 0.05187016 0.5140962 0.1028889 0.446708 0.09916883 0.472399 0.04964607 0.507621 0.05187016 0.446708 0.09916883 0.8190155 0.05717772 0.7863054 0.05165529 0.8351919 0.01384979 0.7863054 0.05165529 0.8190155 0.05717772 0.7726909 0.1004619 0.472399 0.04964607 0.4276307 0.04826945 0.4625736 0.003198862 0.4276307 0.04826945 0.472399 0.04964607 0.446708 0.09916883 0.459592 0.7685078 0.4762092 0.8046205 0.4011765 0.7577634 0.4234403 0.001997292 0.4625736 0.003198862 0.4276307 0.04826945 0.434309 0.8040634 0.4011765 0.7577634 0.4762092 0.8046205 0.4011765 0.7577634 0.434309 0.8040634 0.3870788 0.811412 0.446708 0.09916883 0.3883598 0.09834522 0.4276307 0.04826945 0.3519608 0.0482217 0.4276307 0.04826945 0.3883598 0.09834522 0.4276307 0.04826945 0.3519608 0.0482217 0.4234403 0.001997292 0.4762092 0.8046205 0.4762092 0.8743808 0.434309 0.8040634 0.3513506 0 0.4234403 0.001997292 0.3519608 0.0482217 0.4230409 0.8626118 0.434309 0.8040634 0.4762092 0.8743808 0.434309 0.8040634 0.4230409 0.8626118 0.3870788 0.811412 0.3883598 0.09834522 0.3588479 0.09851235 0.3519608 0.0482217 0.1838545 0.6948066 0.1382181 0.7379844 0.1415173 0.6961743 0.1327649 0.5966046 0.1622229 0.5967667 0.143063 0.6470643 0.3197137 0.5467078 0.2904289 0.5477502 0.3291926 0.4369716 0.0987268 0.6969332 0.1415173 0.6961743 0.1065812 0.7385444 0.3291926 0.4369716 0.2926752 0.438579 0.334231 0.3250311 0.2926752 0.438579 0.3291926 0.4369716 0.2904289 0.5477502 0.3006326 0.3264913 0.334231 0.3250311 0.2926752 0.438579 0.3006326 0.3264913 0.3347747 0.2119567 0.334231 0.3250311 0.3011542 0.2133334 0.3347747 0.2119567 0.3006326 0.3264913 0.3011542 0.2133334 0.30554 0.09995263 0.3588479 0.09851235 0.3011542 0.2133334 0.3588479 0.09851235 0.3347747 0.2119567 0.09411191 0.6479327 0.143063 0.6470643 0.0987268 0.6969332 0.2904289 0.5477502 0.2655752 0.5491587 0.2926752 0.438579 0.284075 0.1011661 0.30554 0.09995263 0.3011542 0.2133334 0.7453781 0.4382129 0.7097761 0.4364782 0.7381494 0.3259184 0.7097761 0.4364782 0.7453781 0.4382129 0.7477707 0.5476747 0.7381494 0.3259184 0.7052796 0.324319 0.7387018 0.2127087 0.7052796 0.324319 0.7381494 0.3259184 0.7097761 0.4364782 0.7387018 0.2127087 0.7059032 0.2111132 0.7361716 0.09937173 0.7059032 0.2111132 0.7387018 0.2127087 0.7052796 0.324319 0.7477707 0.5476747 0.6874631 0.5454705 0.7097761 0.4364782 0.6674764 0.4353681 0.7097761 0.4364782 0.6874631 0.5454705 0.7097761 0.4364782 0.6674764 0.4353681 0.7052796 0.324319 0.7052796 0.324319 0.6662272 0.3232924 0.7059032 0.2111132 0.6662272 0.3232924 0.7052796 0.324319 0.6674764 0.4353681 0.6669335 0.2100868 0.7059032 0.2111132 0.6662272 0.3232924 0.6669335 0.2100868 0.684085 0.09746992 0.7361716 0.09937173 0.7059032 0.2111132 0.6669335 0.2100868 0.7361716 0.09937173 0.6874631 0.5454705 0.6535414 0.5448896 0.6674764 0.4353681 0.6674764 0.4353681 0.6226224 0.4349822 0.6662272 0.3232924 0.6674764 0.4353681 0.6535414 0.5448896 0.6190557 0.5446906 0.6226224 0.4349822 0.6674764 0.4353681 0.6190557 0.5446906 0.6248148 0.3229383 0.6662272 0.3232924 0.6226224 0.4349822 0.6662272 0.3232924 0.6248148 0.3229383 0.6669335 0.2100868 0.6669335 0.2100868 0.6256108 0.2097327 0.684085 0.09746992 0.6256108 0.2097327 0.6669335 0.2100868 0.6248148 0.3229383 0.6250044 0.09679752 0.684085 0.09746992 0.6256108 0.2097327 0.6190557 0.5446906 0.5855131 0.5448896 0.6226224 0.4349822 0.5855131 0.5448896 0.5543767 0.5454705 0.6226224 0.4349822 0.5691442 0.09746992 0.6250044 0.09679752 0.6256108 0.2097327 0.6226224 0.4349822 0.5426245 0.4364782 0.6248148 0.3229383 0.6248148 0.3229383 0.5509591 0.324319 0.6256108 0.2097327 0.5509591 0.324319 0.6248148 0.3229383 0.5426245 0.4364782 0.6256108 0.2097327 0.5519129 0.2111132 0.5691442 0.09746992 0.5519129 0.2111132 0.6256108 0.2097327 0.5509591 0.324319 0.004057586 0.1537575 0.03071779 0.151045 0.02060461 0.2656601 0.05672544 0.26232 0.02060461 0.2656601 0.03071779 0.151045 0.02060461 0.2656601 0.05672544 0.26232 0.02963119 0.3785803 0.02963119 0.3785803 0.06297934 0.3754959 0.03102958 0.4913225 0.06297934 0.3754959 0.02963119 0.3785803 0.05672544 0.26232 0.06430649 0.4882459 0.03102958 0.4913225 0.06297934 0.3754959 0.06430649 0.4882459 0.07429748 0.5983273 0.006223022 0.6052542 0.03102958 0.4913225 0.06430649 0.4882459 0.006223022 0.6052542 0.03071779 0.151045 0.06134897 0.1489512 0.05672544 0.26232 0.05672544 0.26232 0.06134897 0.1489512 0.1290452 0.1469579 0.09930425 0.2602819 0.05672544 0.26232 0.1290452 0.1469579 0.05672544 0.26232 0.09930425 0.2602819 0.06297934 0.3754959 0.06297934 0.3754959 0.1022887 0.3736139 0.06430649 0.4882459 0.1022887 0.3736139 0.06297934 0.3754959 0.09930425 0.2602819 0.06430649 0.4882459 0.1035312 0.486368 0.07429748 0.5983273 0.1035312 0.486368 0.06430649 0.4882459 0.1022887 0.3736139 0.1327649 0.5966046 0.07429748 0.5983273 0.1035312 0.486368 0.09930425 0.2602819 0.1441717 0.2597458 0.1022887 0.3736139 0.1441717 0.2597458 0.09930425 0.2602819 0.1290452 0.1469579 0.1022887 0.3736139 0.1437135 0.3731186 0.1035312 0.486368 0.1437135 0.3731186 0.1022887 0.3736139 0.1441717 0.2597458 0.1035312 0.486368 0.1448675 0.4858736 0.1327649 0.5966046 0.1448675 0.4858736 0.1035312 0.486368 0.1437135 0.3731186 0.1290452 0.1469579 0.1631536 0.1471459 0.1441717 0.2597458 0.1622229 0.5967667 0.1327649 0.5966046 0.1448675 0.4858736 0.1441717 0.2597458 0.1631536 0.1471459 0.2244988 0.1498484 0.1441717 0.2597458 0.2244988 0.1498484 0.1872239 0.2607882 0.143063 0.6470643 0.09411191 0.6479327 0.1327649 0.5966046 0.1441717 0.2597458 0.1872239 0.2607882 0.1437135 0.3731186 0.1437135 0.3731186 0.1835802 0.3740158 0.1448675 0.4858736 0.1437135 0.3731186 0.1872239 0.2607882 0.1835802 0.3740158 0.1448675 0.4858736 0.1845512 0.4867241 0.1622229 0.5967667 0.1415173 0.6961743 0.0987268 0.6969332 0.143063 0.6470643 0.1845512 0.4867241 0.1448675 0.4858736 0.1835802 0.3740158 0.2152065 0.5991012 0.1622229 0.5967667 0.1845512 0.4867241 0.6247234 0.8053913 0.5811225 0.8154823 0.6153195 0.7613005 0.5717081 0.7772769 0.6153195 0.7613005 0.5811225 0.8154823 0.3793765 0.7376611 0.3360413 0.7386876 0.3729186 0.6987972 0.2983093 0.7008144 0.3227415 0.6474124 0.3729186 0.6987972 0.2983093 0.7008144 0.3729186 0.6987972 0.3360413 0.7386876 0.2799423 0.6541364 0.3227415 0.6474124 0.2983093 0.7008144 0.2799423 0.6541364 0.317785 0.5995886 0.3227415 0.6474124 0.2738155 0.6009414 0.2904289 0.5477502 0.3197137 0.5467078 0.2738155 0.6009414 0.3197137 0.5467078 0.317785 0.5995886 0.2738155 0.6009414 0.317785 0.5995886 0.2799423 0.6541364 0.2655752 0.5491587 0.2904289 0.5477502 0.2738155 0.6009414 0.5396448 0.8046533 0.5717081 0.7772769 0.5811225 0.8154823 0.5717081 0.7772769 0.5396448 0.8046533 0.5468958 0.7558526 0.7369444 0.7004206 0.7036281 0.6987972 0.75614 0.6540808 0.7036281 0.6987972 0.7369444 0.7004206 0.6855489 0.7368932 0.75614 0.6540808 0.7159289 0.6513832 0.7635122 0.6010289 0.7159289 0.6513832 0.75614 0.6540808 0.7036281 0.6987972 0.7213271 0.5989759 0.7635122 0.6010289 0.7159289 0.6513832 0.7635122 0.6010289 0.7213271 0.5989759 0.7477707 0.5476747 0.7036281 0.6987972 0.6640453 0.6977588 0.7159289 0.6513832 0.6640453 0.6977588 0.7036281 0.6987972 0.6855489 0.7368932 0.7159289 0.6513832 0.6689325 0.6501498 0.7213271 0.5989759 0.6689325 0.6501498 0.7159289 0.6513832 0.6640453 0.6977588 0.6712077 0.5976589 0.7213271 0.5989759 0.6689325 0.6501498 0.6535414 0.5448896 0.6874631 0.5454705 0.6712077 0.5976589 0.6689325 0.6501498 0.6190961 0.6497201 0.6712077 0.5976589 0.6712077 0.5976589 0.6180596 0.5972054 0.6535414 0.5448896 0.6180596 0.5972054 0.6712077 0.5976589 0.6190961 0.6497201 0.6190557 0.5446906 0.6535414 0.5448896 0.6180596 0.5972054 0.6190961 0.6497201 0.5712971 0.6501458 0.6180596 0.5972054 0.5712971 0.6501458 0.6190961 0.6497201 0.5818116 0.6977588 0.5670855 0.5976589 0.6180596 0.5972054 0.5712971 0.6501458 0.5670855 0.5976589 0.5855131 0.5448896 0.6190557 0.5446906 0.6180596 0.5972054 0.5670855 0.5976589 0.6190557 0.5446906 0.5543767 0.5454705 0.5855131 0.5448896 0.5670855 0.5976589 0.5811225 0.8154823 0.5971287 0.9059139 0.528703 0.8944881 0.5971287 0.9059139 0.5811225 0.8154823 0.6247234 0.8053913 0.5427034 0.9213303 0.528703 0.8944881 0.5971287 0.9059139 0.5976686 0.7361412 0.5727071 0.7368932 0.5818116 0.6977588 0.5818116 0.6977588 0.5472114 0.6987972 0.5712971 0.6501458 0.5472114 0.6987972 0.5818116 0.6977588 0.5727071 0.7368932 0.5712971 0.6501458 0.5302159 0.6513832 0.5670855 0.5976589 0.5302159 0.6513832 0.5712971 0.6501458 0.5472114 0.6987972 0.5232739 0.5989759 0.5670855 0.5976589 0.5302159 0.6513832 0.5670855 0.5976589 0.5232739 0.5989759 0.5543767 0.5454705 0.527012 0.5464134 0.5543767 0.5454705 0.5232739 0.5989759 0.5903773 0.9544788 0.5427034 0.9213303 0.5971287 0.9059139 0.5427034 0.9213303 0.5903773 0.9544788 0.5232739 0.9498068 0.02439272 0.005536317 0.05819314 0.002410054 0.006989121 0.04989075 0.5527309 0.9784613 0.5232739 0.9498068 0.5903773 0.9544788 0.006989121 0.04989075 0.0471214 0.04617965 0 0.1008677 0.0471214 0.04617965 0.006989121 0.04989075 0.05819314 0.002410054 0.04279911 0.09690892 0 0.1008677 0.0471214 0.04617965 0.04279911 0.09690892 0.03071779 0.151045 0.004057586 0.1537575 0 0.1008677 0.04279911 0.09690892 0.004057586 0.1537575 0.06134897 0.1489512 0.03071779 0.151045 0.04279911 0.09690892 0.5893571 0.9957567 0.5527309 0.9784613 0.5903773 0.9544788 0.05819314 0.002410054 0.09803766 5.0231e-4 0.0471214 0.04617965 0.09442764 0.04391479 0.0471214 0.04617965 0.09803766 5.0231e-4 0.0471214 0.04617965 0.09442764 0.04391479 0.04279911 0.09690892 0.09324866 0.09449386 0.04279911 0.09690892 0.09442764 0.04391479 0.04279911 0.09690892 0.09324866 0.09449386 0.06134897 0.1489512 0.1290452 0.1469579 0.06134897 0.1489512 0.09324866 0.09449386 0.6193839 0.9575404 0.5903773 0.9544788 0.5971287 0.9059139 0.5903773 0.9544788 0.6193839 0.9575404 0.5893571 0.9957567 0.09803766 5.0231e-4 0.1400246 0 0.09442764 0.04391479 0.6295663 1 0.5893571 0.9957567 0.6193839 0.9575404 0.1442785 0.04331898 0.09442764 0.04391479 0.1400246 0 0.09442764 0.04391479 0.1442785 0.04331898 0.09324866 0.09449386 0.09324866 0.09449386 0.1464132 0.0938583 0.1290452 0.1469579 0.1464132 0.0938583 0.09324866 0.09449386 0.1442785 0.04331898 0.1631536 0.1471459 0.1290452 0.1469579 0.1464132 0.0938583 0.5971287 0.9059139 0.6247234 0.8053913 0.7043951 0.8893536 0.1400246 0 0.2141796 0.003267467 0.1442785 0.04331898 0.1442785 0.04331898 0.2094194 0.09367424 0.1464132 0.0938583 0.1464132 0.0938583 0.2094194 0.09367424 0.1631536 0.1471459 0.2244988 0.1498484 0.1631536 0.1471459 0.2094194 0.09367424 0.3588479 0.09851235 0.30554 0.09995263 0.3519608 0.0482217 0.291837 0.05025482 0.3513506 0 0.3519608 0.0482217 0.291837 0.05025482 0.3519608 0.0482217 0.30554 0.09995263 0.2801088 0.895064 0.2678225 0.868367 0.2987241 0.8455373 0.4762092 0.8743808 0.4448014 0.9244447 0.4230409 0.8626118 0.4448014 0.9244447 0.4762092 0.8743808 0.4719572 0.9500973 0.4110875 0.8926489 0.4230409 0.8626118 0.4448014 0.9244447 0.07429748 0.5983273 0.1327649 0.5966046 0.09411191 0.6479327 0.374754 0.8584263 0.3870788 0.811412 0.4110875 0.8926489 0.30554 0.09995263 0.284075 0.1011661 0.291837 0.05025482 0.702503 0.04748564 0.7429201 0.04927605 0.7361716 0.09937173 0.7429201 0.04927605 0.702503 0.04748564 0.7307848 0.002526462 0.4448014 0.9244447 0.4114686 0.9520886 0.4110875 0.8926489 0.6954522 9.58864e-4 0.7307848 0.002526462 0.702503 0.04748564 0.3864455 0.9130895 0.4110875 0.8926489 0.4114686 0.9520886 0.4110875 0.8926489 0.3864455 0.9130895 0.374754 0.8584263 0.7361716 0.09937173 0.684085 0.09746992 0.702503 0.04748564 0.6550254 0.04647904 0.702503 0.04748564 0.684085 0.09746992 0.702503 0.04748564 0.6550254 0.04647904 0.6954522 9.58864e-4 0.6539504 8.35525e-5 0.6954522 9.58864e-4 0.6550254 0.04647904 0.4114686 0.9520886 0.3723652 0.9671937 0.3864455 0.9130895 0.3864455 0.9130895 0.3575342 0.9242557 0.374754 0.8584263 0.3575342 0.9242557 0.3864455 0.9130895 0.3723652 0.9671937 0.684085 0.09746992 0.6250044 0.09679752 0.6550254 0.04647904 0.6550254 0.04647904 0.606213 0.04638749 0.6539504 8.35525e-5 0.606213 0.04638749 0.6550254 0.04647904 0.6250044 0.09679752 0.3723652 0.9671937 0.332207 0.9679318 0.3575342 0.9242557 0.6112812 0 0.6539504 8.35525e-5 0.606213 0.04638749 0.606213 0.04638749 0.6250044 0.09679752 0.5691442 0.09746992 0.5619548 0.0472151 0.606213 0.04638749 0.5691442 0.09746992 0.606213 0.04638749 0.5619548 0.0472151 0.6112812 0 0.5725945 7.24122e-4 0.6112812 0 0.5619548 0.0472151 0.332207 0.9679318 0.2958368 0.9542192 0.3575342 0.9242557 0.2801088 0.895064 0.3575342 0.9242557 0.2958368 0.9542192 0.3575342 0.9242557 0.2801088 0.895064 0.374754 0.8584263 0.2987241 0.8455373 0.374754 0.8584263 0.2801088 0.895064 0.374754 0.8584263 0.2987241 0.8455373 0.3870788 0.811412 0.0134682 0.6546974 0.04910498 0.6505835 0.02823185 0.7028475 0.05938273 0.6992498 0.02823185 0.7028475 0.04910498 0.6505835 0.02823185 0.7028475 0.05938273 0.6992498 0.07749468 0.7402592 0.09411191 0.6479327 0.04910498 0.6505835 0.07429748 0.5983273 0.04910498 0.6505835 0.09411191 0.6479327 0.05938273 0.6992498 0.05938273 0.6992498 0.0987268 0.6969332 0.07749468 0.7402592 0.2152065 0.5991012 0.1891815 0.6515045 0.1622229 0.5967667 0.143063 0.6470643 0.1622229 0.5967667 0.1891815 0.6515045 0.006223022 0.6052542 0.04910498 0.6505835 0.0134682 0.6546974 0.006223022 0.6052542 0.07429748 0.5983273 0.04910498 0.6505835 0.6874631 0.5454705 0.7213271 0.5989759 0.6712077 0.5976589 0.7477707 0.5476747 0.7213271 0.5989759 0.6874631 0.5454705 0.6855489 0.7368932 0.6402945 0.7336267 0.6640453 0.6977588 0.528703 0.8944881 0.5255135 0.8504948 0.5811225 0.8154823 0.5255135 0.8504948 0.5396448 0.8046533 0.5811225 0.8154823 0.5818116 0.6977588 0.6190961 0.6497201 0.6314354 0.7032176 0.5976686 0.7361412 0.5818116 0.6977588 0.6314354 0.7032176 0.6689325 0.6501498 0.6314354 0.7032176 0.6190961 0.6497201 0.6640453 0.6977588 0.6314354 0.7032176 0.6689325 0.6501498 0.5976686 0.7361412 0.6314354 0.7032176 0.6402945 0.7336267 0.6640453 0.6977588 0.6402945 0.7336267 0.6314354 0.7032176 0 0.811378 0.01271075 0.7525802 0.03675699 0.811378 0.2094194 0.09367424 0.2563975 0.09699648 0.2490561 0.1522446 0.9885134 0.6537227 0.9279652 0.6577013 1 0.5960595 0.9279652 0.6577013 0.9885134 0.6537227 0.9753041 0.7027043 0.9279652 0.6577013 0.9753041 0.7027043 0.925151 0.706679 0.2141796 0.003267467 0.2050009 0.04432559 0.1442785 0.04331898 0.2050009 0.04432559 0.2094194 0.09367424 0.1442785 0.04331898 0.2141796 0.003267467 0.2536728 0.04868423 0.2050009 0.04432559 0.7050236 0.9689871 0.7328858 0.9367676 0.7555077 0.9608755 0.07597208 0.7861416 0.09626972 0.7525797 0.09626972 0.8264077 0.2094194 0.09367424 0.2536728 0.04868423 0.2563975 0.09699648 0.2094194 0.09367424 0.2050009 0.04432559 0.2536728 0.04868423 0.7043951 0.8893536 0.7126451 0.8392798 0.7555077 0.8543611 0.7126451 0.8392798 0.6908605 0.7952467 0.7555077 0.8543611 0.6908605 0.7952467 0.7126451 0.8392798 0.6247234 0.8053913 0.7126451 0.8392798 0.7043951 0.8893536 0.6247234 0.8053913 0.7043951 0.8893536 0.6698343 0.9394394 0.5971287 0.9059139 0.6698343 0.9394394 0.6193839 0.9575404 0.5971287 0.9059139 0.6193839 0.9575404 0.6698343 0.9394394 0.6295663 1 0.6295663 1 0.6698343 0.9394394 0.7050236 0.9689871 0.6698343 0.9394394 0.7043951 0.8893536 0.7050236 0.9689871 0.5543767 0.5454705 0.527012 0.5464134 0.5426245 0.4364782 0.6226224 0.4349822 0.5543767 0.5454705 0.5426245 0.4364782 0.2987241 0.8455373 0.3219417 0.8005801 0.3870788 0.811412 0.3870788 0.811412 0.4230409 0.8626118 0.4110875 0.8926489</float_array>
          <technique_common>
            <accessor source="#th_proximal_001-mesh-map-0-array" count="1230" stride="2">
              <param name="S" type="float"/>
              <param name="T" type="float"/>
            </accessor>
          </technique_common>
        </source>
        <vertices id="th_proximal_001-mesh-vertices">
          <input semantic="POSITION" source="#th_proximal_001-mesh-positions"/>
        </vertices>
        <triangles material="black_spec_007-material" count="410">
          <input semantic="VERTEX" source="#th_proximal_001-mesh-vertices" offset="0"/>
          <input semantic="NORMAL" source="#th_proximal_001-mesh-normals" offset="1"/>
          <input semantic="TEXCOORD" source="#th_proximal_001-mesh-map-0" offset="2" set="0"/>
          <p>0 0 0 1 0 1 2 0 2 0 1 3 3 1 4 4 1 5 5 2 6 4 2 7 3 2 8 9 3 9 10 3 10 11 3 11 12 4 12 7 4 13 13 4 14 11 5 15 14 5 16 15 5 17 14 6 18 11 6 19 10 6 20 15 7 21 16 7 22 13 7 23 16 8 24 15 8 25 14 8 26 13 9 27 17 9 28 12 9 29 17 10 30 13 10 31 16 10 32 10 11 33 18 11 34 14 11 35 19 12 36 14 12 37 18 12 38 14 13 39 19 13 40 16 13 41 20 14 42 16 14 43 19 14 44 16 15 45 20 15 46 17 15 47 21 16 48 17 16 49 20 16 50 21 17 51 22 17 52 12 17 53 17 18 54 21 18 55 12 18 56 18 19 57 23 19 58 19 19 59 19 20 60 24 20 61 20 20 62 19 21 63 23 21 64 25 21 65 24 22 66 19 22 67 25 22 68 20 23 69 26 23 70 21 23 71 26 24 72 20 24 73 24 24 74 21 25 75 27 25 76 22 25 77 27 26 78 21 26 79 26 26 80 28 27 81 22 27 82 27 27 83 25 28 84 29 28 85 24 28 86 30 29 87 24 29 88 29 29 89 24 30 90 30 30 91 26 30 92 26 31 93 31 31 94 27 31 95 31 32 96 26 32 97 30 32 98 27 33 99 32 33 100 28 33 101 32 34 102 27 34 103 31 34 104 29 35 105 33 35 106 30 35 107 34 36 108 28 36 109 32 36 110 30 37 111 33 37 112 35 37 113 35 38 114 36 38 115 30 38 116 30 39 117 37 39 118 31 39 119 37 40 120 30 40 121 36 40 122 38 41 123 31 41 124 37 41 125 31 42 126 38 42 127 32 42 128 39 43 129 32 43 130 38 43 131 39 44 132 40 44 133 34 44 134 32 45 135 39 45 136 34 45 137 36 46 138 41 46 139 37 46 140 37 47 141 41 47 142 42 47 143 43 48 144 37 48 145 42 48 146 37 49 147 43 49 148 38 49 149 44 50 150 38 50 151 43 50 152 38 51 153 44 51 154 39 51 155 39 52 156 45 52 157 40 52 158 45 53 159 39 53 160 44 53 161 46 54 162 40 54 163 45 54 164 47 55 165 43 55 166 42 55 167 43 56 168 47 56 169 44 56 170 48 57 171 44 57 172 47 57 173 44 58 174 48 58 175 45 58 176 45 59 177 49 59 178 46 59 179 49 60 180 45 60 181 48 60 182 42 61 183 50 61 184 47 61 185 51 62 186 46 62 187 49 62 188 1 63 189 52 63 190 53 63 191 1 64 192 0 64 193 4 64 194 3 65 195 0 65 196 54 65 197 6 66 198 8 66 199 2 66 200 10 67 201 9 67 202 55 67 203 57 68 204 56 68 205 58 68 206 59 69 207 57 69 208 58 69 209 53 70 210 60 70 211 61 70 212 63 71 213 18 71 214 10 71 215 23 72 216 18 72 217 63 72 218 59 73 219 64 73 220 62 73 221 64 74 222 59 74 223 58 74 224 65 75 225 62 75 226 64 75 227 62 76 228 65 76 229 63 76 230 66 77 231 63 77 232 65 77 233 63 78 234 66 78 235 23 78 236 25 79 237 23 79 238 66 79 239 64 80 240 69 80 241 65 80 242 69 81 243 64 81 244 67 81 245 65 82 246 70 82 247 66 82 248 70 83 249 65 83 250 69 83 251 71 84 252 29 84 253 25 84 254 66 85 255 71 85 256 25 85 257 71 86 258 66 86 259 70 86 260 33 87 261 29 87 262 71 87 263 72 88 264 70 88 265 69 88 266 70 89 267 72 89 268 71 89 269 71 90 270 73 90 271 33 90 272 73 91 273 71 91 274 72 91 275 35 92 276 33 92 277 73 92 278 74 93 279 67 93 280 68 93 281 67 94 282 74 94 283 69 94 284 75 95 285 69 95 286 74 95 287 69 96 288 75 96 289 72 96 290 72 97 291 76 97 292 73 97 293 76 98 294 72 98 295 75 98 296 77 99 297 73 99 298 76 99 299 77 100 300 36 100 301 35 100 302 73 101 303 77 101 304 35 101 305 41 102 306 36 102 307 77 102 308 75 103 309 78 103 310 76 103 311 78 104 312 75 104 313 74 104 314 79 105 315 76 105 316 78 105 317 76 106 318 79 106 319 77 106 320 80 107 321 77 107 322 79 107 323 77 108 324 80 108 325 41 108 326 42 109 327 41 109 328 80 109 329 74 110 330 81 110 331 78 110 332 81 111 333 74 111 334 68 111 335 82 112 336 78 112 337 81 112 338 78 113 339 82 113 340 79 113 341 83 114 342 79 114 343 82 114 344 79 115 345 83 115 346 80 115 347 80 116 348 84 116 349 42 116 350 84 117 351 80 117 352 83 117 353 50 118 354 42 118 355 84 118 356 85 119 357 83 119 358 82 119 359 83 120 360 85 120 361 84 120 362 84 121 363 86 121 364 50 121 365 86 122 366 84 122 367 85 122 368 2 123 369 8 123 370 54 123 371 7 124 372 12 124 373 8 124 374 87 125 375 8 125 376 12 125 377 8 126 378 87 126 379 54 126 380 54 127 381 88 127 382 3 127 383 88 128 384 54 128 385 87 128 386 3 129 387 89 129 388 5 129 389 89 130 390 3 130 391 88 130 392 12 131 393 22 131 394 87 131 395 87 132 396 90 132 397 88 132 398 90 133 399 87 133 400 22 133 401 88 134 402 91 134 403 89 134 404 91 135 405 88 135 406 90 135 407 89 136 408 92 136 409 5 136 410 92 137 411 89 137 412 91 137 413 22 138 414 28 138 415 90 138 416 93 139 417 90 139 418 28 139 419 90 140 420 93 140 421 91 140 422 91 141 423 94 141 424 92 141 425 94 142 426 91 142 427 93 142 428 93 143 429 95 143 430 94 143 431 93 144 432 28 144 433 34 144 434 95 145 435 93 145 436 34 145 437 94 146 438 96 146 439 92 146 440 96 147 441 94 147 442 95 147 443 97 148 444 92 148 445 96 148 446 92 149 447 97 149 448 5 149 449 98 150 450 5 150 451 97 150 452 95 151 453 99 151 454 96 151 455 95 152 456 34 152 457 40 152 458 99 153 459 95 153 460 40 153 461 96 154 462 100 154 463 97 154 464 100 155 465 96 155 466 99 155 467 99 156 468 101 156 469 100 156 470 101 157 471 99 157 472 40 157 473 100 158 474 102 158 475 97 158 476 102 159 477 100 159 478 101 159 479 103 160 480 97 160 481 102 160 482 97 161 483 103 161 484 98 161 485 40 162 486 46 162 487 101 162 488 104 163 489 101 163 490 46 163 491 101 164 492 104 164 493 102 164 494 102 165 495 105 165 496 103 165 497 105 166 498 102 166 499 104 166 500 106 167 501 103 167 502 105 167 503 103 168 504 106 168 505 98 168 506 46 169 507 51 169 508 104 169 509 54 170 510 0 170 511 2 170 512 107 171 513 108 171 514 6 171 515 50 172 516 109 172 517 47 172 518 53 173 519 2 173 520 1 173 521 47 174 522 110 174 523 48 174 524 110 175 525 47 175 526 109 175 527 111 176 528 48 176 529 110 176 530 111 177 531 49 177 532 48 177 533 112 178 534 49 178 535 111 178 536 112 179 537 113 179 538 51 179 539 112 180 540 51 180 541 49 180 542 61 181 543 6 181 544 53 181 545 109 182 546 114 182 547 110 182 548 115 183 549 113 183 550 112 183 551 110 184 552 116 184 553 111 184 554 116 185 555 110 185 556 114 185 557 111 186 558 117 186 559 112 186 560 117 187 561 111 187 562 116 187 563 112 188 564 118 188 565 115 188 566 118 189 567 112 189 568 117 189 569 114 190 570 119 190 571 116 190 572 120 191 573 116 191 574 119 191 575 116 192 576 120 192 577 117 192 578 117 193 579 121 193 580 118 193 581 121 194 582 117 194 583 120 194 584 122 195 585 118 195 586 121 195 587 122 196 588 123 196 589 115 196 590 118 197 591 122 197 592 115 197 593 119 198 594 124 198 595 120 198 596 120 199 597 125 199 598 121 199 599 120 200 600 124 200 601 126 200 602 125 201 603 120 201 604 126 201 605 127 202 606 121 202 607 125 202 608 121 203 609 127 203 610 122 203 611 122 204 612 128 204 613 123 204 614 128 205 615 122 205 616 127 205 617 129 206 618 123 206 619 128 206 620 126 207 621 130 207 622 125 207 623 130 208 624 131 208 625 125 208 626 132 209 627 129 209 628 128 209 629 125 210 630 133 210 631 127 210 632 127 211 633 135 211 634 128 211 635 135 212 636 127 212 637 133 212 638 128 213 639 136 213 640 132 213 641 136 214 642 128 214 643 135 214 644 134 215 645 137 215 646 133 215 647 138 216 648 133 216 649 137 216 650 133 217 651 138 217 652 135 217 653 135 218 654 139 218 655 136 218 656 139 219 657 135 219 658 138 219 659 140 220 660 136 220 661 139 220 662 140 221 663 141 221 664 132 221 665 136 222 666 140 222 667 132 222 668 137 223 669 142 223 670 138 223 671 138 224 672 142 224 673 143 224 674 144 225 675 138 225 676 143 225 677 138 226 678 144 226 679 139 226 680 139 227 681 145 227 682 140 227 683 145 228 684 139 228 685 144 228 686 140 229 687 146 229 688 141 229 689 146 230 690 140 230 691 145 230 692 107 231 693 141 231 694 146 231 695 144 232 696 147 232 697 145 232 698 147 233 699 144 233 700 143 233 701 145 234 702 148 234 703 146 234 704 148 235 705 145 235 706 147 235 707 146 236 708 149 236 709 107 236 710 149 237 711 146 237 712 148 237 713 143 238 714 150 238 715 147 238 716 108 239 717 107 239 718 149 239 719 147 240 720 150 240 721 9 240 722 147 241 723 9 241 724 11 241 725 6 242 726 61 242 727 107 242 728 147 243 729 11 243 730 148 243 731 148 244 732 15 244 733 149 244 734 148 245 735 11 245 736 15 245 737 149 246 738 13 246 739 108 246 740 2 247 741 53 247 742 6 247 743 13 248 744 149 248 745 15 248 746 7 249 747 108 249 748 13 249 749 68 250 750 151 250 751 81 250 752 152 251 753 81 251 754 151 251 755 81 252 756 152 252 757 82 252 758 153 253 759 85 253 760 82 253 761 153 254 762 82 254 763 152 254 764 154 255 765 85 255 766 153 255 767 154 256 768 86 256 769 85 256 770 155 257 771 109 257 772 50 257 773 155 258 774 50 258 775 86 258 776 155 259 777 86 259 778 154 259 779 114 260 780 109 260 781 155 260 782 156 261 783 152 261 784 151 261 785 152 262 786 156 262 787 153 262 788 153 263 789 157 263 790 154 263 791 157 264 792 153 264 793 156 264 794 154 265 795 158 265 796 155 265 797 158 266 798 154 266 799 157 266 800 159 267 801 155 267 802 158 267 803 155 268 804 159 268 805 114 268 806 157 269 807 160 269 808 158 269 809 160 270 810 157 270 811 156 270 812 158 271 813 161 271 814 159 271 815 161 272 816 158 272 817 160 272 818 162 273 819 159 273 820 161 273 821 124 274 822 119 274 823 162 274 824 161 275 825 165 275 826 162 275 827 162 276 828 166 276 829 124 276 830 166 277 831 162 277 832 165 277 833 126 278 834 124 278 835 166 278 836 165 279 837 167 279 838 166 279 839 167 280 840 165 280 841 164 280 842 168 281 843 166 281 844 167 281 845 168 282 846 130 282 847 126 282 848 166 283 849 168 283 850 126 283 851 131 284 852 130 284 853 168 284 854 151 285 855 169 285 856 163 285 857 169 286 858 151 286 859 68 286 860 170 287 861 163 287 862 169 287 863 163 288 864 170 288 865 164 288 866 164 289 867 171 289 868 167 289 869 171 290 870 164 290 871 170 290 872 167 291 873 172 291 874 168 291 875 172 292 876 167 292 877 171 292 878 173 293 879 168 293 880 172 293 881 168 294 882 173 294 883 131 294 884 134 295 885 131 295 886 173 295 887 174 296 888 170 296 889 169 296 890 170 297 891 174 297 892 171 297 893 171 298 894 175 298 895 172 298 896 175 299 897 171 299 898 174 299 899 172 300 900 176 300 901 173 300 902 176 301 903 172 301 904 175 301 905 177 302 906 173 302 907 176 302 908 177 303 909 137 303 910 134 303 911 173 304 912 177 304 913 134 304 914 142 305 915 137 305 916 177 305 917 178 306 918 175 306 919 174 306 920 175 307 921 178 307 922 176 307 923 179 308 924 176 308 925 178 308 926 176 309 927 179 309 928 177 309 929 180 310 930 177 310 931 179 310 932 177 311 933 180 311 934 142 311 935 143 312 936 142 312 937 180 312 938 181 313 939 174 313 940 169 313 941 174 314 942 181 314 943 178 314 944 178 315 945 182 315 946 179 315 947 182 316 948 178 316 949 181 316 950 183 317 951 179 317 952 182 317 953 179 318 954 183 318 955 180 318 956 180 319 957 184 319 958 143 319 959 184 320 960 180 320 961 183 320 962 150 321 963 143 321 964 184 321 965 169 322 966 68 322 967 58 322 968 182 323 969 56 323 970 183 323 971 183 324 972 55 324 973 184 324 974 184 325 975 55 325 976 150 325 977 9 326 978 150 326 979 55 326 980 51 327 981 113 327 982 104 327 983 185 328 984 105 328 985 104 328 986 185 329 987 104 329 988 113 329 989 52 330 990 1 330 991 4 330 992 105 331 993 186 331 994 106 331 995 186 332 996 105 332 997 185 332 998 187 333 999 106 333 1000 186 333 1001 141 334 1002 107 334 1003 61 334 1004 188 335 1005 98 335 1006 187 335 1007 113 336 1008 115 336 1009 185 336 1010 189 337 1011 185 337 1012 115 337 1013 185 338 1014 189 338 1015 186 338 1016 186 339 1017 190 339 1018 187 339 1019 190 340 1020 186 340 1021 189 340 1022 191 341 1023 187 341 1024 190 341 1025 187 342 1026 191 342 1027 188 342 1028 115 343 1029 123 343 1030 189 343 1031 192 344 1032 189 344 1033 123 344 1034 189 345 1035 192 345 1036 190 345 1037 193 346 1038 190 346 1039 192 346 1040 190 347 1041 193 347 1042 191 347 1043 191 348 1044 194 348 1045 188 348 1046 194 349 1047 191 349 1048 193 349 1049 123 350 1050 129 350 1051 192 350 1052 192 351 1053 195 351 1054 193 351 1055 195 352 1056 192 352 1057 129 352 1058 193 353 1059 196 353 1060 194 353 1061 196 354 1062 193 354 1063 195 354 1064 195 355 1065 129 355 1066 132 355 1067 197 356 1068 195 356 1069 132 356 1070 195 357 1071 197 357 1072 196 357 1073 198 358 1074 196 358 1075 197 358 1076 196 359 1077 198 359 1078 194 359 1079 52 360 1080 194 360 1081 198 360 1082 194 361 1083 52 361 1084 188 361 1085 4 362 1086 188 362 1087 52 362 1088 188 363 1089 4 363 1090 98 363 1091 197 364 1092 199 364 1093 198 364 1094 60 365 1095 198 365 1096 199 365 1097 198 366 1098 60 366 1099 52 366 1100 61 367 1101 199 367 1102 141 367 1103 199 368 1104 61 368 1105 60 368 1106 60 369 1107 53 369 1108 52 369 1109 7 370 1110 8 370 1111 108 370 1112 6 371 1113 108 371 1114 8 371 1115 132 372 1116 199 372 1117 197 372 1118 132 373 1119 141 373 1120 199 373 1121 119 374 1122 159 374 1123 162 374 1124 114 375 1125 159 375 1126 119 375 1127 156 376 1128 200 376 1129 160 376 1130 163 377 1131 200 377 1132 151 377 1133 200 378 1134 156 378 1135 151 378 1136 164 379 1137 165 379 1138 201 379 1139 163 380 1140 164 380 1141 201 380 1142 161 381 1143 201 381 1144 165 381 1145 160 382 1146 201 382 1147 161 382 1148 163 383 1149 201 383 1150 200 383 1151 160 384 1152 200 384 1153 201 384 1154 62 385 1155 202 385 1156 59 385 1157 55 386 1158 203 386 1159 10 386 1160 203 387 1161 63 387 1162 10 387 1163 63 388 1164 203 388 1165 202 388 1166 63 389 1167 202 389 1168 62 389 1169 56 390 1170 204 390 1171 183 390 1172 204 391 1173 55 391 1174 183 391 1175 56 392 1176 202 392 1177 204 392 1178 56 393 1179 57 393 1180 202 393 1181 57 394 1182 59 394 1183 202 394 1184 55 395 1185 202 395 1186 203 395 1187 55 396 1188 204 396 1189 202 396 1190 58 397 1191 205 397 1192 64 397 1193 205 398 1194 67 398 1195 64 398 1196 67 399 1197 205 399 1198 68 399 1199 205 400 1200 58 400 1201 68 400 1202 58 401 1203 206 401 1204 169 401 1205 206 402 1206 181 402 1207 169 402 1208 181 403 1209 206 403 1210 182 403 1211 182 404 1212 206 404 1213 56 404 1214 206 405 1215 58 405 1216 56 405 1217 131 406 1218 134 406 1219 133 406 1220 125 407 1221 131 407 1222 133 407 1223 4 408 1224 5 408 1225 98 408 1226 98 409 1227 106 409 1228 187 409 1229</p>
        </triangles>
      </mesh>
    </geometry>
  </library_geometries>
  <library_visual_scenes>
    <visual_scene id="Scene" name="Scene">
      <node id="Light_004" name="Light.004" type="NODE">
        <matrix sid="transform">-0.2908646 -0.7711008 0.5663932 4.076245 0.9551712 -0.1998834 0.2183912 1.005454 -0.055189 0.6045247 0.7946723 5.903862 0 0 0 1</matrix>
        <instance_light url="#Light_004-light"/>
      </node>
      <node id="Camera_004" name="Camera.004" type="NODE">
        <matrix sid="transform">0.6859207 -0.3240135 0.6515582 7.358891 0.7276763 0.3054209 -0.6141704 -6.925791 -4.01133e-9 0.8953956 0.4452714 4.958309 0 0 0 1</matrix>
        <instance_camera url="#Camera_004-camera"/>
      </node>
      <node id="Camera_003" name="Camera.003" type="NODE">
        <matrix sid="transform">0.6859207 -0.3240135 0.6515582 7.358891 0.7276763 0.3054209 -0.6141704 -6.925791 -4.01133e-9 0.8953956 0.4452714 4.958309 0 0 0 1</matrix>
        <instance_camera url="#Camera_003-camera"/>
      </node>
      <node id="Light_003" name="Light.003" type="NODE">
        <matrix sid="transform">-0.2908649 -0.7711006 0.5663933 4.076245 0.9551711 -0.1998835 0.2183913 1.005454 -0.05518904 0.6045247 0.7946722 5.903862 0 0 0 1</matrix>
        <instance_light url="#Light_003-light"/>
      </node>
      <node id="th_proximal" name="th_proximal" type="NODE">
        <matrix sid="transform">9.99983e-4 0 0 0 0 0.001 0 0 0 0 0.001 0 0 0 0 1</matrix>
        <instance_geometry url="#th_proximal_001-mesh" name="th_proximal">
          <bind_material>
            <technique_common>
              <instance_material symbol="black_spec_007-material" target="#black_spec_007-material">
                <bind_vertex_input semantic="UVMap" input_semantic="TEXCOORD" input_set="0"/>
              </instance_material>
            </technique_common>
          </bind_material>
        </instance_geometry>
      </node>
      <node id="Light_002" name="Light.002" type="NODE">
        <matrix sid="transform">-0.2908646 -0.7711008 0.5663932 4.076245 0.9551712 -0.1998834 0.2183912 1.005454 -0.055189 0.6045247 0.7946723 5.903862 0 0 0 1</matrix>
        <instance_light url="#Light_002-light"/>
      </node>
      <node id="Camera_002" name="Camera.002" type="NODE">
        <matrix sid="transform">0.6859207 -0.3240135 0.6515582 7.358891 0.7276763 0.3054209 -0.6141704 -6.925791 -4.01133e-9 0.8953956 0.4452714 4.958309 0 0 0 1</matrix>
        <instance_camera url="#Camera_002-camera"/>
      </node>
      <node id="Camera_001" name="Camera.001" type="NODE">
        <matrix sid="transform">0.6859207 -0.3240135 0.6515582 7.358891 0.7276763 0.3054209 -0.6141704 -6.925791 -4.01133e-9 0.8953956 0.4452714 4.958309 0 0 0 1</matrix>
        <instance_camera url="#Camera_001-camera"/>
      </node>
      <node id="Light_001" name="Light.001" type="NODE">
        <matrix sid="transform">-0.2908649 -0.7711006 0.5663933 4.076245 0.9551711 -0.1998835 0.2183913 1.005454 -0.05518904 0.6045247 0.7946722 5.903862 0 0 0 1</matrix>
        <instance_light url="#Light_001-light"/>
      </node>
      <node id="Camera" name="Camera" type="NODE">
        <matrix sid="transform">0.6859207 -0.3240135 0.6515582 7.358891 0.7276763 0.3054208 -0.6141704 -6.925791 0 0.8953956 0.4452714 4.958309 0 0 0 1</matrix>
        <instance_camera url="#Camera-camera"/>
      </node>
      <node id="Light" name="Light" type="NODE">
        <matrix sid="transform">-0.2908646 -0.7711008 0.5663932 4.076245 0.9551712 -0.1998834 0.2183912 1.005454 -0.05518906 0.6045247 0.7946723 5.903862 0 0 0 1</matrix>
        <instance_light url="#Light-light"/>
      </node>
    </visual_scene>
  </library_visual_scenes>
  <scene>
    <instance_visual_scene url="#Scene"/>
  </scene>
</COLLADA>