<?xml version="1.0" encoding="utf-8"?>
<COLLADA xmlns="http://www.collada.org/2005/11/COLLADASchema" version="1.4.1" xmlns:xsi="http://www.w3.org/2001/XMLSchema-instance">
  <asset>
    <contributor>
      <author>Blender User</author>
      <authoring_tool>Blender 3.3.21 commit date:2024-07-15, commit time:08:57, hash:e016c21db151</authoring_tool>
    </contributor>
    <created>2025-10-31T15:00:52</created>
    <modified>2025-10-31T15:00:52</modified>
    <unit name="meter" meter="1"/>
    <up_axis>Z_UP</up_axis>
  </asset>
  <library_cameras>
    <camera id="Camera_003-camera" name="Camera.003">
      <optics>
        <technique_common>
          <perspective>
            <xfov sid="xfov">39.59775</xfov>
            <aspect_ratio>1.777778</aspect_ratio>
            <znear sid="znear">0.1</znear>
            <zfar sid="zfar">100</zfar>
          </perspective>
        </technique_common>
      </optics>
      <extra>
        <technique profile="blender">
          <shiftx sid="shiftx" type="float">0</shiftx>
          <shifty sid="shifty" type="float">0</shifty>
          <dof_distance sid="dof_distance" type="float">10</dof_distance>
        </technique>
      </extra>
    </camera>
    <camera id="Camera_002-camera" name="Camera.002">
      <optics>
        <technique_common>
          <perspective>
            <xfov sid="xfov">39.59775</xfov>
            <aspect_ratio>1.777778</aspect_ratio>
            <znear sid="znear">0.1</znear>
            <zfar sid="zfar">100</zfar>
          </perspective>
        </technique_common>
      </optics>
      <extra>
        <technique profile="blender">
          <shiftx sid="shiftx" type="float">0</shiftx>
          <shifty sid="shifty" type="float">0</shifty>
          <dof_distance sid="dof_distance" type="float">10</dof_distance>
        </technique>
      </extra>
    </camera>
    <camera id="Camera_001-camera" name="Camera.001">
      <optics>
        <technique_common>
          <perspective>
            <xfov sid="xfov">39.59775</xfov>
            <aspect_ratio>1.777778</aspect_ratio>
            <znear sid="znear">0.1</znear>
            <zfar sid="zfar">100</zfar>
          </perspective>
        </technique_common>
      </optics>
      <extra>
        <technique profile="blender">
          <shiftx sid="shiftx" type="float">0</shiftx>
          <shifty sid="shifty" type="float">0</shifty>
          <dof_distance sid="dof_distance" type="float">10</dof_distance>
        </technique>
      </extra>
    </camera>
    <camera id="Camera-camera" name="Camera">
      <optics>
        <technique_common>
          <perspective>
            <xfov sid="xfov">39.59775</xfov>
            <aspect_ratio>1.777778</aspect_ratio>
            <znear sid="znear">0.1</znear>
            <zfar sid="zfar">100</zfar>
          </perspective>
        </technique_common>
      </optics>
      <extra>
        <technique profile="blender">
          <shiftx sid="shiftx" type="float">0</shiftx>
          <shifty sid="shifty" type="float">0</shifty>
          <dof_distance sid="dof_distance" type="float">10</dof_distance>
        </technique>
      </extra>
    </camera>
  </library_cameras>
  <library_lights>
    <light id="Light_003-light" name="Light.003">
      <technique_common>
        <point>
          <color sid="color">1000 1000 1000</color>
          <constant_attenuation>1</constant_attenuation>
          <linear_attenuation>0</linear_attenuation>
          <quadratic_attenuation>0.001599967</quadratic_attenuation>
        </point>
      </technique_common>
      <extra>
        <technique profile="blender">
          <type sid="type" type="int">0</type>
          <flag sid="flag" type="int">0</flag>
          <mode sid="mode" type="int">2097153</mode>
          <gamma sid="blender_gamma" type="float">1</gamma>
          <red sid="red" type="float">1</red>
          <green sid="green" type="float">1</green>
          <blue sid="blue" type="float">1</blue>
          <shadow_r sid="blender_shadow_r" type="float">0</shadow_r>
          <shadow_g sid="blender_shadow_g" type="float">0</shadow_g>
          <shadow_b sid="blender_shadow_b" type="float">0</shadow_b>
          <energy sid="blender_energy" type="float">1000</energy>
          <dist sid="blender_dist" type="float">25</dist>
          <spotsize sid="spotsize" type="float">75</spotsize>
          <spotblend sid="spotblend" type="float">0.15</spotblend>
          <att1 sid="att1" type="float">0</att1>
          <att2 sid="att2" type="float">1</att2>
          <falloff_type sid="falloff_type" type="int">2</falloff_type>
          <clipsta sid="clipsta" type="float">0.04999995</clipsta>
          <clipend sid="clipend" type="float">40</clipend>
          <bias sid="bias" type="float">1</bias>
          <soft sid="soft" type="float">3</soft>
          <bufsize sid="bufsize" type="int">512</bufsize>
          <samp sid="samp" type="int">3</samp>
          <buffers sid="buffers" type="int">1</buffers>
          <area_shape sid="area_shape" type="int">1</area_shape>
          <area_size sid="area_size" type="float">0.1</area_size>
          <area_sizey sid="area_sizey" type="float">0.1</area_sizey>
          <area_sizez sid="area_sizez" type="float">1</area_sizez>
        </technique>
      </extra>
    </light>
    <light id="Light_002-light" name="Light.002">
      <technique_common>
        <point>
          <color sid="color">1000 1000 1000</color>
          <constant_attenuation>1</constant_attenuation>
          <linear_attenuation>0</linear_attenuation>
          <quadratic_attenuation>0.001599967</quadratic_attenuation>
        </point>
      </technique_common>
      <extra>
        <technique profile="blender">
          <type sid="type" type="int">0</type>
          <flag sid="flag" type="int">0</flag>
          <mode sid="mode" type="int">2097153</mode>
          <gamma sid="blender_gamma" type="float">1</gamma>
          <red sid="red" type="float">1</red>
          <green sid="green" type="float">1</green>
          <blue sid="blue" type="float">1</blue>
          <shadow_r sid="blender_shadow_r" type="float">0</shadow_r>
          <shadow_g sid="blender_shadow_g" type="float">0</shadow_g>
          <shadow_b sid="blender_shadow_b" type="float">0</shadow_b>
          <energy sid="blender_energy" type="float">1000</energy>
          <dist sid="blender_dist" type="float">25</dist>
          <spotsize sid="spotsize" type="float">75</spotsize>
          <spotblend sid="spotblend" type="float">0.15</spotblend>
          <att1 sid="att1" type="float">0</att1>
          <att2 sid="att2" type="float">1</att2>
          <falloff_type sid="falloff_type" type="int">2</falloff_type>
          <clipsta sid="clipsta" type="float">0.04999995</clipsta>
          <clipend sid="clipend" type="float">40</clipend>
          <bias sid="bias" type="float">1</bias>
          <soft sid="soft" type="float">3</soft>
          <bufsize sid="bufsize" type="int">512</bufsize>
          <samp sid="samp" type="int">3</samp>
          <buffers sid="buffers" type="int">1</buffers>
          <area_shape sid="area_shape" type="int">1</area_shape>
          <area_size sid="area_size" type="float">0.1</area_size>
          <area_sizey sid="area_sizey" type="float">0.1</area_sizey>
          <area_sizez sid="area_sizez" type="float">1</area_sizez>
        </technique>
      </extra>
    </light>
    <light id="Light_001-light" name="Light.001">
      <technique_common>
        <point>
          <color sid="color">1000 1000 1000</color>
          <constant_attenuation>1</constant_attenuation>
          <linear_attenuation>0</linear_attenuation>
          <quadratic_attenuation>0.001599967</quadratic_attenuation>
        </point>
      </technique_common>
      <extra>
        <technique profile="blender">
          <type sid="type" type="int">0</type>
          <flag sid="flag" type="int">0</flag>
          <mode sid="mode" type="int">2097153</mode>
          <gamma sid="blender_gamma" type="float">1</gamma>
          <red sid="red" type="float">1</red>
          <green sid="green" type="float">1</green>
          <blue sid="blue" type="float">1</blue>
          <shadow_r sid="blender_shadow_r" type="float">0</shadow_r>
          <shadow_g sid="blender_shadow_g" type="float">0</shadow_g>
          <shadow_b sid="blender_shadow_b" type="float">0</shadow_b>
          <energy sid="blender_energy" type="float">1000</energy>
          <dist sid="blender_dist" type="float">25</dist>
          <spotsize sid="spotsize" type="float">75</spotsize>
          <spotblend sid="spotblend" type="float">0.15</spotblend>
          <att1 sid="att1" type="float">0</att1>
          <att2 sid="att2" type="float">1</att2>
          <falloff_type sid="falloff_type" type="int">2</falloff_type>
          <clipsta sid="clipsta" type="float">0.04999995</clipsta>
          <clipend sid="clipend" type="float">40</clipend>
          <bias sid="bias" type="float">1</bias>
          <soft sid="soft" type="float">3</soft>
          <bufsize sid="bufsize" type="int">512</bufsize>
          <samp sid="samp" type="int">3</samp>
          <buffers sid="buffers" type="int">1</buffers>
          <area_shape sid="area_shape" type="int">1</area_shape>
          <area_size sid="area_size" type="float">0.1</area_size>
          <area_sizey sid="area_sizey" type="float">0.1</area_sizey>
          <area_sizez sid="area_sizez" type="float">1</area_sizez>
        </technique>
      </extra>
    </light>
    <light id="Light-light" name="Light">
      <technique_common>
        <point>
          <color sid="color">1000 1000 1000</color>
          <constant_attenuation>1</constant_attenuation>
          <linear_attenuation>0</linear_attenuation>
          <quadratic_attenuation>0.00111109</quadratic_attenuation>
        </point>
      </technique_common>
      <extra>
        <technique profile="blender">
          <type sid="type" type="int">0</type>
          <flag sid="flag" type="int">0</flag>
          <mode sid="mode" type="int">1</mode>
          <gamma sid="blender_gamma" type="float">1</gamma>
          <red sid="red" type="float">1</red>
          <green sid="green" type="float">1</green>
          <blue sid="blue" type="float">1</blue>
          <shadow_r sid="blender_shadow_r" type="float">0</shadow_r>
          <shadow_g sid="blender_shadow_g" type="float">0</shadow_g>
          <shadow_b sid="blender_shadow_b" type="float">0</shadow_b>
          <energy sid="blender_energy" type="float">1000</energy>
          <dist sid="blender_dist" type="float">29.99998</dist>
          <spotsize sid="spotsize" type="float">75</spotsize>
          <spotblend sid="spotblend" type="float">0.15</spotblend>
          <att1 sid="att1" type="float">0</att1>
          <att2 sid="att2" type="float">1</att2>
          <falloff_type sid="falloff_type" type="int">2</falloff_type>
          <clipsta sid="clipsta" type="float">0.04999995</clipsta>
          <clipend sid="clipend" type="float">30.002</clipend>
          <bias sid="bias" type="float">1</bias>
          <soft sid="soft" type="float">3</soft>
          <bufsize sid="bufsize" type="int">2880</bufsize>
          <samp sid="samp" type="int">3</samp>
          <buffers sid="buffers" type="int">1</buffers>
          <area_shape sid="area_shape" type="int">1</area_shape>
          <area_size sid="area_size" type="float">0.1</area_size>
          <area_sizey sid="area_sizey" type="float">0.1</area_sizey>
          <area_sizez sid="area_sizez" type="float">1</area_sizez>
        </technique>
      </extra>
    </light>
  </library_lights>
  <library_effects>
    <effect id="black_spec_004-effect">
      <profile_COMMON>
        <technique sid="common">
          <lambert>
            <emission>
              <color sid="emission">0 0 0 1</color>
            </emission>
            <diffuse>
              <color sid="diffuse">0.16355 0.16355 0.16355 1</color>
            </diffuse>
            <transparent opaque="A_ONE">
              <color sid="alpha">0 0 0 0</color>
            </transparent>
            <index_of_refraction>
              <float sid="ior">1.5</float>
            </index_of_refraction>
          </lambert>
        </technique>
      </profile_COMMON>
    </effect>
  </library_effects>
  <library_images/>
  <library_materials>
    <material id="black_spec_004-material" name="black_spec.004">
      <instance_effect url="#black_spec_004-effect"/>
    </material>
  </library_materials>
  <library_geometries>
    <geometry id="middle_001-mesh" name="middle_001">
      <mesh>
        <source id="middle_001-mesh-positions">
          <float_array id="middle_001-mesh-positions-array" count="672">-5.15497 -5.65164 5.67687 -6.98593 -7.50773 8.86243 -8.01397 -5.97789 7.98236 -8.48097 -4.31842 6.98785 -8.50017 0.02187997 5.46986 -8.50017 -3.88961 12.77786 -8.48937 -3.70556 18.59785 -8.50017 0.02187997 20.53786 -8.22567 3.7377 21.84346 -3.50017 7.97965 1.21886 -3.50017 7.0498 24.44685 3.49296 7.97965 1.21886 3.49983 7.0498 24.44685 -4.29807 7.00277 24.01886 -4.75757 7.78174 2.14586 -6.73177 6.6855 2.87236 -6.31127 6.25102 22.77386 -7.75257 5.53448 3.44444 -7.62757 4.9394 22.20461 -8.42967 3.69429 4.18787 -3.43169 -8.64405 15.62886 -3.50017 -8.93332 12.68886 3.42448 -8.64405 15.62886 3.49296 -8.93332 12.68886 -3.50017 -8.97607 9.81386 3.49296 -8.97607 9.81386 -6.41337 -7.45056 17.15486 -4.73277 -7.88683 17.09686 -7.46427 -4.93237 19.65934 -4.00017 -5.21445 19.76886 3.99983 -5.21445 19.76886 -3.50017 -8.70539 8.82587 -4.00017 -5.82319 5.84886 3.99983 -5.82319 5.84886 3.49296 -8.70539 8.82587 4.48796 -5.6171 20.77286 -8.11957 -5.83721 12.86186 -7.03567 -7.45782 12.93086 -7.07657 -7.15262 16.53586 -8.02707 -5.46231 17.55201 -5.41357 -8.54068 12.8283 -5.5264 -8.05887 15.99102 -5.66907 -8.47778 9.50586 -4.49517 -5.6171 20.77286 4.75036 -6.438 22.17986 4.75723 -6.97321 25.88187 4.75723 -6.48965 27.70586 4.75723 -4.19093 30.65686 4.75723 -2.54057 31.57185 4.75723 1.1798 31.95786 4.75723 2.98301 31.40186 4.75723 4.57411 30.38686 4.75723 6.68716 27.30086 4.75723 7.05771 25.45087 -4.75757 -6.438 22.17986 -4.75757 -6.97321 25.88187 -4.75757 -6.48965 27.70586 -4.75757 -4.19093 30.65686 -4.75757 -2.54057 31.57185 -4.75757 1.1798 31.95786 -4.75757 2.98301 31.40186 -4.75757 4.57411 30.38686 -4.75757 6.68716 27.30086 -4.75757 7.05771 25.45087 -5.90557 -6.46749 22.90086 -5.90557 -6.7143 26.07986 -5.87887 -4.6707 29.33165 -5.90557 -3.0593 31.08986 -5.90557 0.04374992 31.82587 -5.90557 3.14202 31.06985 -5.90557 5.5584 28.98886 -5.90557 6.76483 26.03687 -8.77364 -3.34911 22.56881 -8.45003 -3.33963 20.40928 -8.99996 -3.58678 25.82197 -8.99996 -2.60559 27.58099 -8.12147 0.02187997 29.93286 -8.99996 3.11434 27.46986 -8.12147 4.95033 25.05086 -9 0.02187997 28.7261 -8.99996 3.87812 25.2303 -9.00019 0.02641993 23.15286 -6.87887 -6.81239 2.17687 -6.52396 -4.8651 5.63609 -4.75757 -7.07768 3.79886 -4.75757 -7.78383 1.97186 -6.87887 -6.53824 -2.89314 -4.75757 -8.02808 0.02884989 -4.75757 -7.796 -1.91515 -6.87887 -5.85402 -4.57393 -4.75757 -5.98513 -5.35513 -6.40557 -4.61815 -6.29314 -4.75757 -4.51347 -6.64714 -5.90557 -1.56868 -7.33768 -4.75757 -2.77352 -7.54514 -5.90557 1.77076 -7.62013 -4.75757 1.0901 -7.97514 -4.75757 2.9849 -7.48114 -5.90557 4.79136 -6.19514 -4.75757 4.70447 -6.54414 -6.87887 3.66948 -6.17014 -5.90557 6.94247 -3.64114 -4.75757 6.14692 -5.22014 -4.75757 7.22694 -3.58614 -8.12147 6.00887 0.10429 -5.90557 7.63414 -0.42213 -4.75757 7.88062 -1.74014 4.75723 -7.07768 3.79886 4.75723 -7.78383 1.97186 4.75723 -8.02808 0.02884989 4.75723 -7.796 -1.91515 4.75723 -5.98513 -5.35513 4.75723 -4.51347 -6.64714 4.75723 -2.77352 -7.54514 4.75723 1.0901 -7.97514 4.75723 2.9849 -7.48114 4.75723 4.70447 -6.54414 4.75723 6.14692 -5.22014 4.75723 7.22694 -3.58614 4.75723 7.88062 -1.74014 -7.87887 -5.40786 2.46296 -8.5 -3.55834 4.34187 -9 -3.59913 -1.17314 -9 -2.21603 -3.07614 -9 0.02187997 4.39287 -9 0.02187997 -4.58014 -9 2.25979 -3.07614 -9 3.7448 -1.09914 -8.12147 1.63616 -5.70114 -8.12147 -5.891 -0.42914 -6.87887 -7.13355 0.48087 -8.12147 -5.60089 -1.87614 -8.121001 -4.85241 -4.18614 -8.12147 -1.44278 -5.74113 -8.121001 5.47326 -2.53608 -8.121001 4.61814 -4.13956 -6.75466 -5.90532 3.90648 -8.45823 -3.70615 5.68876 -8.121001 -3.83817 28.38669 -8.121001 -4.78404 25.9485 -8.121001 -3.16487 29.14326 -7.96933 -4.7289 22.71507 -8.121001 3.9973 28.01863 -8.121001 3.12703 29.12051 8.11379 3.12703 29.12051 8.11379 3.9973 28.01863 7.96212 -4.7289 22.71507 8.11379 -3.16488 29.14326 8.11379 -4.78404 25.9485 8.11379 -3.83817 28.38669 8.451022 -3.70615 5.68876 6.74746 -5.90533 3.90648 8.11379 4.61814 -4.13956 8.11379 5.47326 -2.53608 8.11426 -1.44278 -5.74114 8.11379 -4.85241 -4.18614 8.11426 -5.60089 -1.87615 6.87166 -7.13355 0.48086 8.11426 -5.891 -0.42914 8.11426 1.63616 -5.70114 9 3.7448 -1.09914 9 2.25979 -3.07614 9 0.02187997 -4.58014 9 0.02187997 4.39287 9 -2.21603 -3.07614 9 -3.59913 -1.17314 8.492792 -3.55834 4.34187 7.87166 -5.40786 2.46296 5.89836 7.63414 -0.42213 8.11426 6.00887 0.1042799 5.89836 6.94247 -3.64114 6.87166 3.66948 -6.17014 5.89836 4.79136 -6.19515 5.89836 1.77076 -7.62013 5.89836 -1.56868 -7.33768 6.39836 -4.61815 -6.29314 6.87166 -5.85402 -4.57393 6.87166 -6.53824 -2.89314 6.51675 -4.8651 5.63609 6.87166 -6.81239 2.17686 9.00019 0.02641993 23.15286 8.99996 3.87812 25.2303 9 0.02187997 28.7261 8.11426 4.95033 25.05086 8.99996 3.11434 27.46986 8.11426 0.02187997 29.93286 8.99996 -2.60559 27.58099 8.99996 -3.58678 25.82197 8.44282 -3.33963 20.40928 8.76643 -3.34911 22.56881 5.89836 6.76483 26.03687 5.89836 5.5584 28.98886 5.89836 3.14202 31.06985 5.89836 0.04373997 31.82587 5.89836 -3.0593 31.08986 5.87166 -4.6707 29.33165 5.89836 -6.7143 26.07986 5.89836 -6.46749 22.90086 5.66186 -8.47778 9.50586 5.51919 -8.05887 15.99102 5.40636 -8.54068 12.8283 8.019862 -5.46231 17.55201 7.06936 -7.15262 16.53586 7.02846 -7.45782 12.93086 8.11236 -5.83721 12.86186 7.45706 -4.93237 19.65934 4.72556 -7.88683 17.09686 6.40616 -7.45056 17.15486 8.42246 3.69429 4.18787 7.62036 4.9394 22.20461 7.74536 5.53448 3.44444 6.30406 6.25102 22.77386 6.72456 6.6855 2.87236 4.75036 7.78174 2.14586 4.29086 7.00277 24.01886 8.218461 3.7377 21.84346 8.49296 0.02187997 20.53786 8.48216 -3.70556 18.59785 8.49296 -3.88961 12.77786 8.49296 0.02187997 5.46986 8.47376 -4.31842 6.98785 8.00676 -5.97789 7.98236 6.97873 -7.50773 8.86243 5.14776 -5.65164 5.67686</float_array>
          <technique_common>
            <accessor source="#middle_001-mesh-positions-array" count="224" stride="3">
              <param name="X" type="float"/>
              <param name="Y" type="float"/>
              <param name="Z" type="float"/>
            </accessor>
          </technique_common>
        </source>
        <source id="middle_001-mesh-normals">
          <float_array id="middle_001-mesh-normals-array" count="1317">-0.4308437 -0.649775 -0.6262317 -0.9999811 -0.005441963 -0.002912938 -0.9999932 0.003272891 0.001752138 -0.9999958 -0.002897262 0 -0.9972825 0.07367265 0 0 0.9991997 0.03999942 0 0.9991997 0.03999936 -0.08009231 0.9959898 0.03987085 -0.127985 0.9910485 0.03798317 -0.4733932 0.8798836 0.04128032 -0.3648453 0.9306463 0.02802628 -0.7402926 0.6716015 0.03030383 -0.7114266 0.702241 0.0270155 -0.8974468 0.4406709 0.01995801 -0.9371277 0.3488443 0.009970188 -0.9996648 0.02320361 0.01149344 0 -0.9951945 0.09791904 0 -0.9951946 0.09791803 0 -0.9998895 0.0148676 0 -0.9998896 0.0148676 -0.1664447 -0.7293899 0.6635411 -0.07913184 -0.6939079 0.7157025 0.2982088 -0.7145281 0.6328674 0 -0.7700845 0.637942 0 -0.7700843 0.6379423 -0.2667284 -0.7581416 -0.5950439 -0.003214597 -0.7187208 -0.6952913 0 -0.7184547 -0.6955739 -0.9649717 -0.2618538 0.01619297 -0.9811874 -0.1924199 -0.01568681 -0.8295104 -0.5584884 -0.001850247 -0.831152 -0.5560352 -0.003340184 -0.4704337 -0.8747152 0.116472 -0.551264 -0.8318595 0.06417095 -0.5939166 -0.8045224 0.002608835 -0.5538441 -0.8321878 0.02683615 -0.2237417 -0.9746478 -0.001245677 -0.2443786 -0.9598802 0.1375104 -0.1929633 -0.9760427 0.1005285 -0.1999766 -0.9796924 0.01456767 0 -0.9281419 -0.3722265 0 -0.8637385 -0.5039403 0 -0.9897105 -0.1430849 0 -0.9897105 -0.1430851 0 -0.9666082 0.2562589 0 -0.9666083 0.2562585 0 -0.7888987 0.6145232 0 -0.7888987 0.6145234 0 -0.4848834 0.8745788 0 -0.4848835 0.8745788 0 -0.1032016 0.9946605 0 -0.1032016 0.9946605 0 0.2946503 0.9556053 0 0.2946503 0.9556053 0 0.5378109 0.8430656 0 0.8251108 0.5649709 0 0.825111 0.5649708 0 0.9805245 0.1963966 0 0.9805244 0.1963974 0 0.9999691 -0.007877469 0 0.999969 -0.007877588 -0.03267312 0.9982749 -0.04878216 -0.009523212 -0.8629254 -0.5052415 -0.1919041 -0.919463 -0.3431626 -0.06430727 -0.9876619 -0.1427887 -0.2317212 -0.9698637 -0.07529801 -0.1712378 -0.9523311 0.2524741 -0.5102789 -0.7262601 0.4606102 -0.3623155 -0.7352974 0.5727698 -0.4304507 -0.6686672 0.6062973 -0.1464968 -0.4796521 0.8651432 -0.2910674 -0.2207936 0.930876 -0.01222693 -0.1031938 0.9945862 -0.3725507 0.2734386 0.8868131 -0.2408308 0.2300807 0.9429016 -0.1669487 0.530263 0.8312336 -0.341415 0.613352 0.7122045 0.01943564 0.8249548 0.5648644 -0.3336294 0.8726415 0.3566346 -0.1482455 0.9696904 0.1942268 -0.3092325 0.9413067 -0.1353402 -0.2846054 0.9517839 -0.1144866 -0.8695221 -0.4758201 -0.1323885 -0.6381881 -0.1776778 0.7490972 -0.6397028 0.182208 0.7467132 -0.6795684 0.6790896 0.2775325 -0.6205103 0.782841 -0.04611998 -0.674286 0.7286875 -0.1198045 -0.7366421 0.6400831 0.2182936 -0.7738949 0.6002982 -0.2018142 -0.8658423 0.4766444 -0.1520771 -0.9728578 0.1373132 -0.1862606 -0.9664616 0.1219555 -0.2260062 -1 -3.07286e-5 3.40277e-5 -1 -4.42057e-5 2.51279e-5 -0.9889112 -0.009080529 -0.1482301 -0.9816676 -0.03341704 -0.1876489 -0.9958426 -0.05416417 -0.07323729 -0.3652097 -0.8683232 0.335614 -0.2206593 -0.8630692 -0.4543359 -0.351397 -0.8671309 -0.3529934 -0.2706477 -0.7448107 -0.6099238 -0.1186717 -0.6550875 -0.7461752 -0.1480126 0.2495017 -0.956996 -0.2248263 0.4662296 -0.8556185 -0.323383 0.4037371 -0.8558152 -0.4578673 0.3793115 -0.8040401 -0.6682094 0.5690326 -0.4792684 -0.1702607 0.6663377 -0.7259513 -0.3353989 0.7205531 -0.6068862 -0.1774426 0.821 -0.5426537 -0.608597 0.7757732 -0.1666905 -0.1675947 0.9851138 0.0382483 0 -0.964459 -0.2642328 0 -0.8529649 0.5219683 0 -0.9327527 0.360517 0 -0.932753 0.3605162 0 -0.9921913 0.1247254 0 -0.9929492 -0.1185408 0 -0.9929493 -0.1185408 0 -0.8848807 -0.465818 0 -0.8848807 -0.4658178 0 -0.6597496 -0.7514855 0 -0.6597496 -0.7514854 0 -0.4586273 -0.8886289 0 -0.4586273 -0.8886287 0 -0.1106116 -0.9938637 0 -0.1106116 -0.9938637 0 0.2522805 -0.9676542 0 0.2522805 -0.9676542 0 0.4784793 -0.878099 0 0.4784793 -0.8780989 0 0.6762115 -0.7367077 0 0.6762112 -0.7367078 0 0.8342383 -0.5514041 0 0.8342385 -0.5514038 0 0.9426452 -0.3337965 0 0.9994404 -0.03344899 0 0.9994404 -0.03344893 -0.2664284 -0.7572292 -0.5963389 -0.9148858 -0.3944765 0.08586263 -1 -5.22951e-7 0 -1 7.5987e-7 0 0 -0.9644593 -0.2642319 -0.9015758 0.2413129 -0.3590673 -0.9048529 0.3960403 0.1561837 -0.9446668 0.3108153 0.1048743 -0.8950632 0.1621923 0.4153982 -0.7455701 -0.6547908 0.1239928 -0.6509478 -0.7475754 -0.1319018 -0.6691771 -0.7286036 -0.1460788 -0.6962569 -0.6828007 -0.2213807 -0.6540214 -0.7006464 -0.2852208 -0.6178691 -0.5478946 -0.5639587 -0.5819758 -0.1764873 -0.7938239 -0.5841436 0.01054096 -0.8115819 -0.6510829 -0.06396824 -0.7563063 -0.6454933 0.2262088 -0.7294985 -0.5544749 0.8132171 0.1767367 -0.7471666 0.6646248 0.004000723 -0.1810144 -0.9485264 -0.2598682 -0.9391516 -0.3172228 0.1317731 -0.9225839 -0.378269 -0.07583957 -0.9238827 -0.3639879 -0.1181259 -0.9536356 -0.2434549 -0.1769428 -0.8967834 -0.2468067 -0.3672414 -0.7925674 0.007919132 -0.6097328 -0.9995639 -0.01586222 0.02491259 -0.8138718 -0.5658559 0.1319849 0 -0.9281416 -0.3722273 -0.8451275 -0.4195854 0.3312215 -0.6941264 -0.6321494 0.3443484 -0.6650183 -0.6222361 0.4130048 -0.478252 -0.8733886 0.0920186 -0.229071 -0.92338 0.308052 -0.2093656 -0.9321889 0.2952795 -0.06197011 -0.9154284 -0.3976814 -0.4499217 -0.8794833 -0.1551759 -0.4057807 -0.9075263 -0.108343 -0.3648151 -0.9238094 0.1161296 -0.3965522 -0.901983 0.1708018 -0.7276461 -0.2847145 -0.6240743 -0.9227433 -0.1600305 -0.3506211 -0.7871981 -0.5941376 0.1652868 -1 -5.69902e-7 0 -1 0 0 -0.9815131 0.1584257 0.1073932 -0.8991941 -0.1315225 0.4173152 -0.986153 -0.1390106 0.09043443 -0.918138 0.1839435 -0.3509807 -0.7380058 0.3131361 -0.5977402 -0.5108403 0.6155853 -0.6000808 -0.6340228 0.6823484 -0.3638898 -0.599562 0.7843323 -0.1592115 -0.9139865 0.3976141 -0.08082008 -0.965543 -0.2600507 0.01001548 -0.9811289 -0.1902423 0.03455662 -0.8548504 -0.5156144 0.05807447 -0.8313746 -0.5544453 0.03750705 -0.1485767 0.9888545 0.009583771 -0.4389213 0.8867076 0.1452512 -0.5765574 -0.5332469 -0.6190552 -0.3907976 -0.7105314 -0.5851686 -0.4412439 -0.7418122 0.5049937 -0.3716042 -0.8109436 0.4519745 -0.7235268 -0.5885977 0.360641 -0.7535559 -0.5141005 0.4097003 -0.6724578 -0.6263756 0.3942767 -0.9995062 -0.009485661 0.02995586 -0.9996454 -0.01262307 -0.02344697 -0.4829662 -0.788785 -0.3802129 -0.5139704 -0.8542717 -0.07781004 -0.4569495 -0.7523179 0.4745684 -0.202934 -0.8000521 0.5645657 -1 5.00517e-5 1.71886e-5 -1 2.74545e-5 3.40741e-5 -0.6404228 -0.7660621 -0.05484187 -0.8539637 -0.5091613 -0.1072424 -0.8606262 -0.5068731 -0.04901319 -0.7975283 -0.5624415 0.2181929 -0.8581109 -0.4484199 0.250131 -0.8561607 -0.3859924 0.3435097 -0.6438081 -0.1841194 0.7427054 -0.6489416 0.1926567 0.7360423 -0.7616205 0.5085409 0.4016473 -0.7538651 0.6255311 0.2009936 -0.6269865 0.7416952 0.2382776 -0.6361137 0.6055148 0.4782378 -0.5572704 0.5418428 0.629171 -0.4848111 -0.648437 0.5869308 -0.486981 -0.6524565 0.5806462 -0.4746266 -0.7434774 0.471138 -0.6403692 -0.7160717 0.2777927 -0.7971171 -0.5956583 -0.09897261 -0.6538111 -0.7543877 -0.05856895 -0.6414093 -0.7659845 -0.04314887 -0.928698 0.3272151 -0.1745005 -0.9443835 0.2629328 -0.1975001 -0.8832447 -0.1873546 0.429857 -0.799978 -0.1444203 0.5823901 -0.7990216 0.1523003 0.5816951 -0.8676676 0.1871144 0.4605881 -0.3371452 -0.07934474 -0.9381032 -0.2835558 -0.1060715 -0.9530714 -0.4067907 -0.2356238 -0.8826113 -0.1596757 -0.4527428 -0.8772273 -0.2126168 0.9210922 -0.3261648 -0.4111976 0.8912053 -0.1914935 0.4132519 0.8902965 -0.1912987 0.2138383 0.9208411 -0.3260751 0.160327 -0.4526945 -0.8771334 0.4085636 -0.2351003 -0.8819319 0.2851246 -0.1060202 -0.9526089 0.3389425 -0.07929027 -0.93746 0.8659065 0.1882663 0.4634242 0.7966517 0.1530938 0.5847294 0.7976155 -0.1451738 0.5854351 0.88165 -0.1885494 0.4325996 0.9435433 0.2648543 -0.1989431 0.9276479 0.3295259 -0.1757332 0.6414095 -0.7659844 -0.04314863 0.6538111 -0.7543877 -0.05856895 0.7945625 -0.5987599 -0.1007825 0.6403691 -0.7160718 0.2777926 0.4746266 -0.7434774 0.4711379 0.4869825 -0.65246 0.580641 0.4848083 -0.6484383 0.5869317 0.5572705 0.5418431 0.6291707 0.6361135 0.6055147 0.4782381 0.6269863 0.7416954 0.2382775 0.7511992 0.6284314 0.2019251 0.7589997 0.5109479 0.403549 0.6489416 0.1926568 0.7360422 0.6438079 -0.1841191 0.7427056 0.8542838 -0.3883087 0.3455654 0.8562532 -0.4511201 0.251637 0.7951483 -0.5653627 0.2193266 0.8606262 -0.506873 -0.04901301 0.8539633 -0.5091618 -0.1072424 0.6404228 -0.7660621 -0.05484193 1 2.74545e-5 3.40741e-5 1 5.00517e-5 1.71886e-5 0.2041163 -0.7996267 0.5647422 0.4585813 -0.7510766 0.4749602 0.5139696 -0.8542723 -0.07780992 0.482966 -0.7887853 -0.3802128 0.9996454 -0.01262265 -0.02344608 0.9995062 -0.009484946 0.02995592 0.6724578 -0.6263757 0.3942767 0.7535636 -0.514088 0.4097018 0.7235291 -0.5885999 0.3606325 0.3715867 -0.8109542 0.4519698 0.4412395 -0.7418107 0.5049995 0.3908005 -0.7105292 -0.5851695 0.5765573 -0.5332472 -0.6190551 0.4389218 0.8867073 0.1452516 0.1485767 0.9888545 0.009583353 0.8313751 -0.5544446 0.03750723 0.8548501 -0.5156149 0.05807423 0.981129 -0.1902415 0.0345565 0.965543 -0.260051 0.01001548 0.9127498 0.4003328 -0.08137232 0.5995616 0.7843325 -0.1592123 0.634023 0.6823483 -0.3638898 0.5108403 0.6155855 -0.6000806 0.7380057 0.3131367 -0.59774 0.9169527 0.1852121 -0.353404 0.9857593 -0.1409589 0.09170162 0.8967036 -0.1330488 0.4221622 0.981056 0.1603537 0.1087002 1 0 0 1 -5.69902e-7 0 0.7871972 -0.5941385 0.1652871 0.9216164 -0.1611464 -0.3530653 0.7276459 -0.2847162 -0.6240739 0.3976376 -0.9015215 0.1707147 0.3658428 -0.9234094 0.1160794 0.4068809 -0.9070404 -0.108285 0.4510862 -0.8789046 -0.1550743 0.06211298 -0.9155514 -0.397376 0.2093657 -0.9321888 0.2952796 0.2290709 -0.9233801 0.3080517 0.4782522 -0.8733886 0.092018 0.6650186 -0.6222363 0.4130041 0.6941259 -0.6321496 0.3443487 0.8451274 -0.4195854 0.3312217 0.8138716 -0.5658562 0.1319848 0.9995639 -0.01586222 0.02491259 0.7901511 0.007962226 -0.6128604 0.8953408 -0.2484307 -0.3696579 0.952925 -0.2452694 -0.1782613 0.9227703 -0.3665319 -0.1189514 0.9214546 -0.3809061 -0.07636743 0.9382562 -0.3197202 0.1321153 0.1810144 -0.9485264 -0.2598683 0.7471658 0.6646257 0.0040012 0.5544756 0.8132166 0.176736 0.6454932 0.2262088 -0.7294986 0.6510828 -0.06396842 -0.7563064 0.5841414 0.01054346 -0.8115835 0.5819731 -0.1764883 -0.7938258 0.617869 -0.5478947 -0.5639587 0.6540219 -0.7006456 -0.285221 0.6962556 -0.6828017 -0.2213821 0.6691759 -0.7286048 -0.1460779 0.6509477 -0.7475753 -0.1319023 0.7455691 -0.654792 0.1239931 0.8925245 0.1638181 0.4201948 0.9438554 0.3128599 0.1060934 0.9048534 0.3960394 0.1561833 0.9001884 0.2429192 -0.361457 1 7.5987e-7 0 1 -5.22951e-7 0 0.9143486 -0.3954679 0.0870164 0.2664281 -0.7572308 -0.5963369 0.1679552 0.9850311 0.03879439 0.6085965 0.7757737 -0.1666904 0.1784768 0.8208441 -0.5425505 0.337187 0.7200655 -0.6064741 0.1712492 0.6662222 -0.7258249 0.6682131 0.5690307 -0.4792654 0.4578718 0.3793083 -0.804039 0.3251225 0.4034799 -0.8552773 0.2261037 0.4660885 -0.8553587 0.1488841 0.2494687 -0.9568694 0.1191615 -0.6550488 -0.7461311 0.27151 -0.7444909 -0.6099309 0.3523969 -0.8667829 -0.3528512 0.2213412 -0.8629323 -0.4542642 0.3662389 -0.867946 0.3354681 0.9955754 -0.05587273 -0.0755499 0.9811118 -0.03502583 -0.1902449 0.9889112 -0.009080529 -0.1482301 1 -4.42057e-5 2.51279e-5 1 -3.07286e-5 3.40277e-5 0.9658662 0.1230143 -0.2279698 0.9722421 0.1381681 -0.1888249 0.8658415 0.4766459 -0.1520769 0.7713347 0.6031897 -0.2029905 0.7338811 0.6429178 0.2192604 0.674286 0.7286875 -0.1198045 0.6205102 0.7828412 -0.04611998 0.6795685 0.6790894 0.2775325 0.6397036 0.1822071 0.7467128 0.6381887 -0.1776779 0.7490966 0.8695223 -0.4758195 -0.1323885 0.2846054 0.9517839 -0.1144866 0.3119713 0.9400646 -0.1376681 0.1491181 0.9695616 0.194201 0.3354128 0.8720555 0.3563951 -0.01955258 0.8249532 0.5648627 0.3432292 0.6129203 0.711704 0.1679255 0.5301741 0.8310934 0.2421915 0.2299996 0.9425729 0.3744855 0.2732096 0.8860684 0.01229697 -0.1031938 0.9945852 0.292671 -0.2206811 0.9303997 0.1473598 -0.47959 0.865031 0.432581 -0.6679321 0.6055911 0.3642538 -0.734701 0.5723057 0.5125667 -0.7250987 0.4598993 0.1722383 -0.9521626 0.2524292 0.2330411 -0.9695493 -0.07527345 0.06438088 -0.9876402 -0.1429052 0.1919043 -0.9194633 -0.343162 0.009523212 -0.8629253 -0.5052418 0.03284174 0.9982591 -0.04899317 0.1999768 -0.9796924 0.01456767 0.1929633 -0.9760426 0.1005285 0.2443786 -0.9598802 0.1375104 0.2237417 -0.9746478 -0.001245677 0.5538441 -0.8321878 0.02683615 0.593914 -0.8045244 0.002610266 0.5512638 -0.8318596 0.06417095 0.4704334 -0.8747152 0.1164719 0.8311523 -0.5560349 -0.003338277 0.8295127 -0.5584851 -0.001850306 0.9811872 -0.1924207 -0.01568681 0.9649719 -0.2618535 0.01619297 0.003230571 -0.7187258 -0.6952863 0.2667278 -0.7581427 -0.595043 -0.2987011 -0.7141217 0.633094 0.07929217 -0.6939801 0.7156147 0.1664445 -0.7293896 0.6635413 0.9996648 0.02320313 0.01149338 0.9371277 0.3488443 0.009970128 0.8974459 0.4406729 0.01995801 0.7114266 0.702241 0.0270155 0.7402926 0.6716015 0.03030383 0.3648451 0.9306464 0.02802628 0.4733934 0.8798834 0.04128032 0.127985 0.9910485 0.03798317 0.08077067 0.995936 0.03984487 0.9972826 0.07367211 0 0.9999958 -0.002897083 0 0.9999932 0.003273248 0.001752138 0.9999811 -0.005442261 -0.002912938 0.4308458 -0.6497735 -0.6262319 0 -0.8637386 -0.5039403</float_array>
          <technique_common>
            <accessor source="#middle_001-mesh-normals-array" count="439" stride="3">
              <param name="X" type="float"/>
              <param name="Y" type="float"/>
              <param name="Z" type="float"/>
            </accessor>
          </technique_common>
        </source>
        <source id="middle_001-mesh-map-0">
          <float_array id="middle_001-mesh-map-0-array" count="2664">0.8168862 0.4238574 0.8319438 0.4694647 0.8003222 0.4694647 0.6279647 0.4063416 0.5578827 0.3780758 0.568951 0.2822056 0.6279647 0.4063416 0.568951 0.2822056 0.5760045 0.1856636 0.6279647 0.4063416 0.5760045 0.1856636 0.6384417 0.156062 0.7000113 0.1369805 0.6279647 0.4063416 0.6384417 0.156062 0.07588297 0.4872587 0.07588297 0.1008232 0.1907235 0.4872587 0.1908363 0.1008232 0.1907235 0.4872587 0.07588297 0.1008232 0.06278002 0.1078847 0.07588297 0.1008232 0.07588297 0.4872587 0.06278002 0.1078847 0.07588297 0.4872587 0.05523467 0.4716924 0.05523467 0.4716924 0.02281838 0.4586511 0.06278002 0.1078847 0.02972239 0.1278821 0.06278002 0.1078847 0.02281838 0.4586511 0.7509964 0.9444369 0.733544 0.933868 0.7626776 0.6137031 0.008111536 0.1361584 0.02972239 0.1278821 0.006060004 0.4481252 0.7000113 0.1369805 0.7194602 0.1318093 0.7162705 0.4438387 0.7162705 0.4438387 0.6871924 0.4302154 0.7000113 0.1369805 0.6871924 0.4302154 0.6279647 0.4063416 0.7000113 0.1369805 0.923003 0.2436715 0.9241286 0.2920598 0.8104117 0.2436715 0.809288 0.2920598 0.8104117 0.2436715 0.9241286 0.2920598 0.9241286 0.2920598 0.9241286 0.3396726 0.809288 0.2920598 0.809288 0.3396726 0.809288 0.2920598 0.9241286 0.3396726 0.7437775 0.4528594 0.7699775 0.4414352 0.7333906 0.5000183 0.7889581 0.4868813 0.7333906 0.5000183 0.7699775 0.4414352 0.7699775 0.4414352 0.7889581 0.4238574 0.7889581 0.4868813 0.9323298 0.1792562 0.923003 0.2436715 0.8104117 0.2436715 0.8009546 0.1792542 0.9323298 0.1792562 0.8104117 0.2436715 0.9813686 0.3572543 0.951297 0.4123526 0.9241286 0.3563853 0.1783676 0.7902741 0.1815162 0.7710745 0.2345952 0.7627431 0.1815162 0.6380754 0.2345952 0.646483 0.2345952 0.7627431 0.1815162 0.7710745 0.1815162 0.6380754 0.2345952 0.7627431 0.568951 0.2822056 0.5578827 0.3780758 0.5309956 0.360375 0.5367807 0.2794286 0.568951 0.2822056 0.5309956 0.360375 0.5367807 0.2794286 0.5309956 0.360375 0.5056896 0.3446505 0.5093775 0.2771086 0.5367807 0.2794286 0.5056896 0.3446505 0.9555495 0.2902299 0.9574004 0.2383871 0.9828549 0.2304702 0.9821845 0.2898628 0.9555495 0.2902299 0.9828549 0.2304702 0.9821845 0.2898628 0.9813686 0.3572543 0.9597451 0.3453926 0.9555495 0.2902299 0.9821845 0.2898628 0.9597451 0.3453926 0.9597451 0.3453926 0.9241286 0.3396726 0.9555495 0.2902299 0.923003 0.2436715 0.9574004 0.2383871 0.9555495 0.2902299 0.9555495 0.2902299 0.9241286 0.2920598 0.923003 0.2436715 0.9555495 0.2902299 0.9241286 0.3396726 0.9241286 0.2920598 0.7929396 0.1621139 0.9404597 0.1621139 0.9323298 0.1792562 0.9404597 0.1621139 0.788632 0.1377773 0.9447701 0.1377773 0.788632 0.1377773 0.7885202 0.07574051 0.9447701 0.1377773 0.9447711 0.07574051 0.9447701 0.1377773 0.7885202 0.07574051 0.7885202 0.07574051 0.7885183 0.04609596 0.9447711 0.07574051 0.9447692 0.04609596 0.9447711 0.07574051 0.7885183 0.04609596 0.7885183 0.04609596 0.7885125 4.88217e-7 0.9447692 0.04609596 0.9447634 4.88217e-7 0.9447692 0.04609596 0.7885125 4.88217e-7 0.1574189 0.8330932 0.1292079 0.8330883 0.1574189 0.6749109 0.1292079 0.674905 0.1574189 0.6749109 0.1292079 0.8330883 0.1292079 0.8330883 0.06780225 0.8330873 0.1292079 0.674905 0.06780225 0.674905 0.1292079 0.674905 0.06780225 0.8330873 0.06780225 0.8330873 0.03900963 0.8330922 0.06780225 0.674905 0.03900963 0.6749089 0.06780225 0.674905 0.03900963 0.8330922 0.03900963 0.8330922 0.01428824 0.833099 0.03900963 0.6749089 0.01428824 0.6749167 0.03900963 0.6749089 0.01428824 0.833099 0.2114943 4.88217e-7 0.2114856 0.05312043 0.05524235 4.88217e-7 0.05523467 0.05311846 0.05524235 4.88217e-7 0.2114856 0.05312043 0.2114856 0.05312043 0.2114846 0.08416324 0.05523467 0.05311846 0.05523371 0.08416128 0.05523467 0.05311846 0.2114846 0.08416324 0.1908363 0.1008232 0.05523371 0.08416128 0.2114846 0.08416324 0.05523371 0.08416128 0.1908363 0.1008232 0.07588297 0.1008232 0.05523371 0.08416128 0.07588297 0.1008232 0.06278002 0.1078847 0.9892168 0.181418 0.9404597 0.1621139 0.9447701 0.1377773 0.9636225 0.1257867 0.9892168 0.181418 0.9447701 0.1377773 0.9636225 0.1257867 0.9447701 0.1377773 0.9447711 0.07574051 0.9636225 0.07277798 0.9636225 0.1257867 0.9447711 0.07574051 0.9447711 0.07574051 0.9447692 0.04609596 0.9636225 0.07277798 0.9631788 0.02138048 0.9636225 0.07277798 0.9447692 0.04609596 0.9631788 0.02138048 0.9447692 0.04609596 0.9447634 4.88217e-7 0.1383293 0.6558225 0.1670023 0.6562775 0.1574189 0.6749109 0.1574189 0.6749109 0.1292079 0.674905 0.1383293 0.6558225 0.08657163 0.6558196 0.1383293 0.6558225 0.1292079 0.674905 0.1292079 0.674905 0.06780225 0.674905 0.08657163 0.6558196 0.08657163 0.6558196 0.06780225 0.674905 0.03900963 0.6749089 0.03683948 0.6558265 0.08657163 0.6558196 0.03900963 0.6749089 0.03900963 0.6749089 0.01428824 0.6749167 0.03683948 0.6558265 0 0.6558411 0.03683948 0.6558265 0.01428824 0.6749167 0.05524235 4.88217e-7 0.05523467 0.05311846 0.03638619 0.02408713 0.03638231 0.07417237 0.03638619 0.02408713 0.05523467 0.05311846 0.05523467 0.05311846 0.05523371 0.08416128 0.03638231 0.07417237 0.03638231 0.07417237 0.05523371 0.08416128 0.06278002 0.1078847 0.03638231 0.07417237 0.06278002 0.1078847 0.02972239 0.1278821 0.5848413 0.1199671 0.5832277 0.1558335 0.5557926 0.1671386 0.1383293 0.6558225 0.08657163 0.6558196 0.08940058 0.6189924 0.08657163 0.6558196 0.03683948 0.6558265 0.08940058 0.6189924 0.03638619 0.02408713 0.03638231 0.07417237 0 0.08891844 0.03638231 0.07417237 0.02972239 0.1278821 0 0.08891844 0.008111536 0.1361584 0 0.08891844 0.02972239 0.1278821 0.705307 0.08084923 0.6943486 0.04311197 0.7220262 0.08455574 0.7000113 0.1369805 0.705307 0.08084923 0.7220262 0.08455574 0.7220262 0.08455574 0.7194602 0.1318093 0.7000113 0.1369805 0.7000113 0.1369805 0.6384417 0.156062 0.6407473 0.1126458 0.7000113 0.1369805 0.6407473 0.1126458 0.705307 0.08084923 0.6006969 0.0372436 0.644548 0.02007204 0.6407473 0.1126458 0.583396 0.0657711 0.6006969 0.0372436 0.6407473 0.1126458 0.5848413 0.1199671 0.6384417 0.156062 0.5832277 0.1558335 0.6384417 0.156062 0.5848413 0.1199671 0.6407473 0.1126458 0.583396 0.0657711 0.6407473 0.1126458 0.5848413 0.1199671 0.4171904 0.8277003 0.4462521 0.8276984 0.4193668 0.8629642 0.3076445 0.8629633 0.2950104 0.8276974 0.3535481 0.8277003 0.3360026 0.8629642 0.3076445 0.8629633 0.3535481 0.8277003 0.3076445 0.8629633 0.2779868 0.8550922 0.2950104 0.8276974 0.6955456 0.8277081 0.7221791 0.8277003 0.6979786 0.855103 0.5716623 0.8277072 0.6015182 0.827713 0.5911579 0.8467945 0.5448734 0.8467818 0.5455718 0.8276984 0.5716623 0.8277072 0.5911579 0.8467945 0.5448734 0.8467818 0.5716623 0.8277072 0.5448734 0.8467818 0.5911579 0.8467945 0.5632035 0.8629633 0.2571533 0.6189923 0.2571533 0.6870563 0.2459592 0.6327418 0.5247923 0.8276876 0.5455718 0.8276984 0.5448734 0.8467818 0.03639584 0.6074871 0.03638619 0.5670119 0.05524235 0.5925125 0.05523759 0.5663518 0.05524235 0.5925125 0.03638619 0.5670119 0.03638327 0.5141907 0.03638619 0.5670119 0 0.5039987 0.07588297 0.4872587 0.05523467 0.5362914 0.03638327 0.5141907 0.809288 0.3563853 0.809288 0.3396726 0.9241286 0.3563853 0.4462521 0.8276984 0.4782994 0.6821032 0.4782994 0.8151034 0.4782994 0.6821032 0.4462521 0.8276984 0.4462521 0.6695151 0.4462521 0.8276984 0.4171904 0.8277003 0.4462521 0.6695151 0.4171904 0.669517 0.4462521 0.6695151 0.4171904 0.8277003 0.4171904 0.8277003 0.3856667 0.8277003 0.4171904 0.669517 0.3856667 0.669518 0.4171904 0.669517 0.3856667 0.8277003 0.3856667 0.8277003 0.3535481 0.8277003 0.3856667 0.669518 0.3535481 0.669518 0.3856667 0.669518 0.3535481 0.8277003 0.3535481 0.8277003 0.2950104 0.8276974 0.3535481 0.669518 0.2950104 0.6695141 0.3535481 0.669518 0.2950104 0.8276974 0.7221791 0.8277003 0.6955456 0.8277081 0.7221791 0.669517 0.6955456 0.6695258 0.7221791 0.669517 0.6955456 0.8277081 0.6955456 0.8277081 0.6653511 0.827713 0.6955456 0.6695258 0.6653511 0.6695307 0.6955456 0.6695258 0.6653511 0.827713 0.6653511 0.827713 0.6015182 0.827713 0.6653511 0.6695307 0.6015182 0.6695297 0.6653511 0.6695307 0.6015182 0.827713 0.6015182 0.827713 0.5716623 0.8277072 0.6015182 0.6695297 0.5716623 0.6695248 0.6015182 0.6695297 0.5716623 0.8277072 0.5716623 0.8277072 0.5455718 0.8276984 0.5716623 0.6695248 0.5455718 0.669516 0.5716623 0.6695248 0.5455718 0.8276984 0.5455718 0.8276984 0.5247923 0.8276876 0.5455718 0.669516 0.5247923 0.6695053 0.5455718 0.669516 0.5247923 0.8276876 0.05524235 0.5925125 0.05523759 0.5663518 0.2114933 0.5925125 0.2114894 0.5663518 0.2114933 0.5925125 0.05523759 0.5663518 0.05523759 0.5663518 0.05523467 0.5362914 0.2114894 0.5663518 0.2114856 0.5362914 0.2114894 0.5663518 0.05523467 0.5362914 0.05523467 0.5362914 0.07588297 0.4872587 0.2114856 0.5362914 0.1907235 0.4872587 0.2114856 0.5362914 0.07588297 0.4872587 0.9813686 0.3572543 0.9241286 0.3563853 0.9597451 0.3453926 0.5363867 0.4524489 0.5685136 0.4225602 0.5644236 0.5141517 0.5857644 0.5467333 0.5644236 0.5141517 0.627629 0.4242455 0.6213896 0.5732885 0.5857644 0.5467333 0.627629 0.4242455 0.9241286 0.3396726 0.9241286 0.3563853 0.809288 0.3396726 0.6591068 0.5498794 0.6463367 0.5930163 0.6213896 0.5732885 0.7220262 0.4996634 0.6871924 0.4302154 0.7162705 0.4438387 0.7220262 0.4996634 0.6848154 0.5180867 0.6871924 0.4302154 0.6871924 0.4302154 0.627629 0.4242455 0.6279647 0.4063416 0.5059047 0.4841263 0.5123467 0.4561827 0.5266596 0.5001555 0.3360026 0.8629642 0.3919819 0.8629652 0.3755679 0.8836207 0.3755679 0.8836207 0.3515182 0.8836197 0.3360026 0.8629642 0.5304072 0.5243926 0.5410655 0.5632878 0.5133137 0.5405877 0.3076445 0.8629633 0.3360026 0.8629642 0.3127776 0.883611 0.5420219 0.5983985 0.5233571 0.5689863 0.5410655 0.5632878 0.6461471 0.8467954 0.6979786 0.855103 0.6473783 0.8836227 0.6473783 0.8836227 0.5972961 0.8836197 0.6461471 0.8467954 0.5911579 0.8467945 0.6461471 0.8467954 0.5972961 0.8836197 0.5632035 0.8629633 0.5911579 0.8467945 0.5972961 0.8836197 0 0.5039987 0.006060004 0.4481252 0.03638327 0.5141907 0.7509964 0.9444369 0.7626776 1 0.733544 0.933868 0.9241286 0.3396726 0.9597451 0.3453926 0.9241286 0.3563853 0.5363867 0.4524489 0.5644236 0.5141517 0.5266596 0.5001555 0.5304072 0.5243926 0.5266596 0.5001555 0.5644236 0.5141517 0.5644236 0.5141517 0.5410655 0.5632878 0.5304072 0.5243926 0.5644236 0.5141517 0.5857644 0.5467333 0.5410655 0.5632878 0.5857644 0.5467333 0.6213896 0.5732885 0.5958561 0.5915146 0.6463367 0.5930163 0.5958561 0.5915146 0.6213896 0.5732885 0.5760045 0.1856636 0.5832277 0.1558335 0.6384417 0.156062 0.5760045 0.1856636 0.5557926 0.1671386 0.5832277 0.1558335 0.8009546 0.1792542 0.7929396 0.1621139 0.9323298 0.1792562 0.5760045 0.1856636 0.546109 0.2017865 0.5557926 0.1671386 0.511919 0.2069342 0.5557926 0.1671386 0.546109 0.2017865 0.546109 0.2017865 0.516919 0.2174465 0.511919 0.2069342 0.9574004 0.2383871 0.9719645 0.2198407 0.9828549 0.2304702 0.9443669 0.2202664 0.9719645 0.2198407 0.9574004 0.2383871 0.9574004 0.2383871 0.923003 0.2436715 0.9443669 0.2202664 0.9323298 0.1792562 0.9404597 0.1621139 0.9892168 0.181418 0.3360026 0.8629642 0.3535481 0.8277003 0.3919819 0.8629652 0.3856667 0.8277003 0.3919819 0.8629652 0.3535481 0.8277003 0.4171904 0.8277003 0.3919819 0.8629652 0.3856667 0.8277003 0.4193668 0.8629642 0.3919819 0.8629652 0.4171904 0.8277003 0.5420219 0.5983985 0.5410655 0.5632878 0.5958561 0.5915146 0.5857644 0.5467333 0.5958561 0.5915146 0.5410655 0.5632878 0.5123467 0.4561827 0.5363867 0.4524489 0.5266596 0.5001555 0.627629 0.4242455 0.6591068 0.5498794 0.6213896 0.5732885 0.627629 0.4242455 0.6848154 0.5180867 0.6591068 0.5498794 0.6871924 0.4302154 0.6848154 0.5180867 0.627629 0.4242455 0.6279647 0.4063416 0.627629 0.4242455 0.5685136 0.4225602 0.5685136 0.4225602 0.627629 0.4242455 0.5644236 0.5141517 0.6591068 0.5498794 0.6962859 0.5691757 0.6463367 0.5930163 0.6962859 0.5691757 0.6783025 0.6021968 0.6463367 0.5930163 0.02041673 0.6060693 1.44677e-5 0.5732064 0.03638619 0.5670119 1.06096e-5 0.5473524 0.03638619 0.5670119 1.44677e-5 0.5732064 0.03638619 0.5670119 1.06096e-5 0.5473524 0 0.5039987 0.7114133 0.543142 0.6848154 0.5180867 0.7220262 0.4996634 0.568951 0.2822056 0.546109 0.2017865 0.5760045 0.1856636 0.568951 0.2822056 0.5367807 0.2794286 0.546109 0.2017865 0.5367807 0.2794286 0.516919 0.2174465 0.546109 0.2017865 0.5367807 0.2794286 0.5093775 0.2771086 0.516919 0.2174465 0.07588297 0.4872587 0.03638327 0.5141907 0.05523467 0.4716924 0.05523467 0.4716924 0.03638327 0.5141907 0.02281838 0.4586511 0.8409913 0.6476561 0.8145352 0.6331707 0.8409913 0.6137025 0.4752743 0.834301 0.5134274 0.8818319 0.47365 0.8570588 0.4465892 0.8608962 0.4752743 0.834301 0.47365 0.8570588 0.4193668 0.8629642 0.4752743 0.834301 0.4465892 0.8608962 0.5123467 0.4561827 0.5283104 0.4280868 0.5363867 0.4524489 0.5283104 0.4280868 0.546368 0.4000827 0.5363867 0.4524489 0.546368 0.4000827 0.5685136 0.4225602 0.5363867 0.4524489 0.5685136 0.4225602 0.5669935 0.4000827 0.6279647 0.4063416 0.5669935 0.4000827 0.5578827 0.3780758 0.6279647 0.4063416 0.2627446 0.8409076 0.2446443 0.8282071 0.2627446 0.8017789 0.2446443 0.8282071 0.2257733 0.816277 0.2627446 0.8017789 0.4752743 0.834301 0.4193668 0.8629642 0.4462521 0.8276984 0.4752743 0.834301 0.4462521 0.8276984 0.4782994 0.8151034 0.6943486 0.04311197 0.705307 0.08084923 0.6407473 0.1126458 0.6943486 0.04311197 0.6407473 0.1126458 0.644548 0.02007204 0.9636225 0.1257867 0.9975096 0.1310067 0.9892168 0.181418 0.5616689 0.1165418 0.5848413 0.1199671 0.5557926 0.1671386 0.5631389 0.06280082 0.5848413 0.1199671 0.5616689 0.1165418 0.5803337 0.02296817 0.583396 0.0657711 0.5631389 0.06280082 0.583396 0.0657711 0.5803337 0.02296817 0.6006969 0.0372436 0.5918924 0.01087403 0.6006969 0.0372436 0.5803337 0.02296817 0.1425982 0.6190041 0.1383293 0.6558225 0.08940058 0.6189924 0.03683948 0.6558265 0.03962981 0.6190071 0.08940058 0.6189924 0.7084724 0.03459161 0.6943486 0.04311197 0.694978 0.01567614 0.6943486 0.04311197 0.7084724 0.03459161 0.7220262 0.08455574 1.15741e-5 0.03879809 0.03638619 0.02408713 0 0.08891844 0.03638619 0.02408713 1.15741e-5 0.03879809 1.44677e-5 0.01972836 0 0.6558411 0.03962981 0.6190071 0.03683948 0.6558265 0.1383293 0.6558225 0.1425982 0.6190041 0.1670023 0.6562775 0.1425982 0.6190041 0.1546074 0.619009 0.1670023 0.6562775 0.9631788 0.02138048 0.9999971 0.03807163 0.9636225 0.07277798 0.9999971 0.03807163 1 0.07733207 0.9636225 0.07277798 0.5848413 0.1199671 0.5631389 0.06280082 0.583396 0.0657711 0.9636225 0.07277798 1 0.07733207 0.9636225 0.1257867 1 0.07733207 0.9975096 0.1310067 0.9636225 0.1257867 0.6848154 0.5180867 0.7114133 0.543142 0.6962859 0.5691757 0.6848154 0.5180867 0.6962859 0.5691757 0.6591068 0.5498794 0.6006969 0.0372436 0.5918924 0.01087403 0.644548 0.02007204 0.6446613 4.88217e-7 0.644548 0.02007204 0.5918924 0.01087403 0.6446613 4.88217e-7 0.694978 0.01567614 0.644548 0.02007204 0.6943486 0.04311197 0.644548 0.02007204 0.694978 0.01567614 0.6461471 0.8467954 0.5911579 0.8467945 0.6015182 0.827713 0.6461471 0.8467954 0.6015182 0.827713 0.6653511 0.827713 0.6979786 0.855103 0.6461471 0.8467954 0.6653511 0.827713 0.6979786 0.855103 0.6653511 0.827713 0.6955456 0.8277081 0.03638619 0.5670119 0.05523467 0.5362914 0.05523759 0.5663518 0.03638619 0.5670119 0.03638327 0.5141907 0.05523467 0.5362914 0.2302299 0.5670119 0.2114856 0.5362914 0.230226 0.5141907 0.2302299 0.5670119 0.2114894 0.5663518 0.2114856 0.5362914 0.697979 0.6422393 0.6955456 0.6695258 0.6653511 0.6695307 0.697979 0.6422393 0.6653511 0.6695307 0.6461471 0.6505566 0.6461471 0.6505566 0.6653511 0.6695307 0.6015182 0.6695297 0.6461471 0.6505566 0.6015182 0.6695297 0.5911579 0.6505556 0.4666559 0.5590853 0.467277 0.5865211 0.4168557 0.5821262 0.4169604 0.6021977 0.4168557 0.5821262 0.467277 0.5865211 0.4169604 0.6021977 0.3641919 0.5913237 0.4168557 0.5821262 0.3730052 0.5649536 0.4168557 0.5821262 0.3641919 0.5913237 0.4571226 0.08411097 0.4314145 0.05231732 0.4685844 0.03302246 0.4571226 0.08411097 0.4685844 0.03302246 0.4837118 0.0590552 0.7333935 0.07733017 0.7697798 0.1257867 0.7358849 0.1310067 0.7697798 0.07277798 0.7697798 0.1257867 0.7333935 0.07733017 0.3571432 0.4822316 0.3557042 0.5364266 0.3354389 0.5393974 0.7333906 0.03807163 0.7697798 0.07277798 0.7333935 0.07733017 0.7702128 0.02138048 0.7697798 0.07277798 0.7333906 0.03807163 0.1425982 0.8889061 0.1670032 0.8516288 0.1546074 0.8889101 0.1383293 0.8520624 0.1670032 0.8516288 0.1425982 0.8889061 0 0.8520799 0.03683948 0.8520653 0.03962981 0.8889091 0.2302299 0.02408909 0.2666209 0.01972836 0.266618 0.03880006 0.266618 0.03880006 0.2666219 0.08891844 0.2302299 0.02408909 0.4666559 0.5590853 0.4943248 0.517642 0.480771 0.5676066 0.480771 0.5676066 0.467277 0.5865211 0.4666559 0.5590853 0.03683948 0.8520653 0.08940058 0.8889101 0.03962981 0.8889091 0.1425982 0.8889061 0.08940058 0.8889101 0.1383293 0.8520624 0.3641919 0.5913237 0.3526332 0.5792306 0.3730052 0.5649536 0.3557042 0.5364266 0.3730052 0.5649536 0.3526332 0.5792306 0.3526332 0.5792306 0.3354389 0.5393974 0.3557042 0.5364266 0.3354389 0.5393974 0.3339685 0.4856559 0.3571432 0.4822316 0.3339685 0.4856559 0.3280907 0.435059 0.3571432 0.4822316 0.7697798 0.1257867 0.7441797 0.181418 0.7358849 0.1310067 0.4666559 0.5590853 0.4168557 0.5821262 0.413055 0.4895514 0.4666559 0.5590853 0.413055 0.4895514 0.4776142 0.521349 0.4752743 0.6630188 0.4782994 0.6821032 0.4462521 0.6695151 0.4752743 0.6630188 0.4462521 0.6695151 0.4193663 0.6343625 0.1966031 0.8284182 0.214409 0.8017793 0.214409 0.8419221 0.1783671 0.8159179 0.214409 0.8017793 0.1966031 0.8284182 0.339294 0.2021145 0.4002651 0.1958556 0.3301837 0.2241224 0.3408145 0.1796375 0.4002651 0.1958556 0.339294 0.2021145 0.3186631 0.2021141 0.3086862 0.1497483 0.3408145 0.1796375 0.3006065 0.1741099 0.3086862 0.1497483 0.3186631 0.2021141 0.2846433 0.1460149 0.3086862 0.1497483 0.3006065 0.1741099 0.4465892 0.6364247 0.4752743 0.6630188 0.4193663 0.6343625 0.47365 0.6402581 0.4752743 0.6630188 0.4465892 0.6364247 0.4752743 0.6630188 0.47365 0.6402581 0.5134274 0.615489 0.814535 0.6791588 0.8416677 0.659161 0.8416677 0.6922923 0.2113727 0.4716924 0.2437977 0.4586531 0.230226 0.5141907 0.1907235 0.4872587 0.2113727 0.4716924 0.230226 0.5141907 0.3090807 0.3227691 0.2892161 0.3847512 0.2816746 0.3250882 0.3090807 0.3227691 0.3184084 0.4004113 0.2892161 0.3847512 0.341252 0.3199921 0.3184084 0.4004113 0.3090807 0.3227691 0.341252 0.3199921 0.3483054 0.4165331 0.3184084 0.4004113 0.4837118 0.0590552 0.4943248 0.1025348 0.4571226 0.08411097 0.2302299 0.5670119 0.2666219 0.5040007 0.2666171 0.5473524 0.2666171 0.5473524 0.2666209 0.5732084 0.2302299 0.5670119 0.2462263 0.6060693 0.2302299 0.5670119 0.2666209 0.5732084 0.4685844 0.03302246 0.4186357 0.009181857 0.4505982 0 0.4314145 0.05231732 0.4186357 0.009181857 0.4685844 0.03302246 0.3408145 0.1796375 0.3367318 0.08804649 0.3999367 0.1779512 0.4002651 0.1958556 0.3408145 0.1796375 0.3999367 0.1779512 0.4594924 0.1719813 0.3999367 0.1779512 0.4571226 0.08411097 0.3999367 0.1779512 0.4314145 0.05231732 0.4571226 0.08411097 0.3999367 0.1779512 0.3936977 0.02890974 0.4314145 0.05231732 0.2846433 0.1460149 0.2989596 0.1020432 0.3086862 0.1497483 0.3580726 0.05546486 0.3133655 0.03890889 0.3681555 0.01068264 0.314317 0.003799736 0.3681555 0.01068264 0.3133655 0.03890889 0.4193663 0.6343625 0.4171904 0.669517 0.3919819 0.6343634 0.4171904 0.669517 0.3856667 0.669518 0.3919819 0.6343634 0.3856667 0.669518 0.3535481 0.669518 0.3919819 0.6343634 0.3360026 0.6343625 0.3919819 0.6343634 0.3535481 0.669518 0.8009546 0.1792542 0.7441797 0.181418 0.7929396 0.1621139 0.7760105 0.2383871 0.789043 0.2202664 0.8104117 0.2436715 0.789043 0.2202664 0.7760105 0.2383871 0.7614434 0.2198407 0.7760105 0.2383871 0.7505522 0.2304702 0.7614434 0.2198407 0.3184084 0.4004113 0.2842146 0.3952625 0.2892161 0.3847512 0.2842146 0.3952625 0.3184084 0.4004113 0.3280907 0.435059 0.3483054 0.4165331 0.3280907 0.435059 0.3184084 0.4004113 0.3483054 0.4165331 0.3555287 0.4463652 0.3280907 0.435059 0.3483054 0.4165331 0.4107421 0.4461352 0.3555287 0.4463652 0.4186357 0.009181857 0.3936977 0.02890974 0.3681555 0.01068264 0.3580726 0.05546486 0.3681555 0.01068264 0.3936977 0.02890974 0.3367318 0.08804649 0.3133655 0.03890889 0.3580726 0.05546486 0.3367318 0.08804649 0.3027077 0.0778042 0.3133655 0.03890889 0.3027077 0.0778042 0.3367318 0.08804649 0.2989596 0.1020432 0.3086862 0.1497483 0.2989596 0.1020432 0.3367318 0.08804649 0.809288 0.3396726 0.809288 0.3563853 0.7736696 0.3453906 0.7914919 0.6692655 0.7740424 0.6798343 0.8031706 0.6137028 0.2666219 0.5040007 0.230226 0.5141907 0.2605657 0.4481272 0.5632035 0.6343625 0.5972961 0.6137021 0.5911579 0.6505556 0.5911579 0.6505556 0.5972961 0.6137021 0.6461471 0.6505566 0.6473783 0.613706 0.6461471 0.6505566 0.5972961 0.6137021 0.6461471 0.6505566 0.6473783 0.613706 0.697979 0.6422393 0.314317 0.003799736 0.3133655 0.03890889 0.2956537 0.03321045 0.3076445 0.6343615 0.3127776 0.6137089 0.3360026 0.6343625 0.3027077 0.0778042 0.2856103 0.06160956 0.3133655 0.03890889 0.3755679 0.6137031 0.3360026 0.6343625 0.3515177 0.6137021 0.3360026 0.6343625 0.3755679 0.6137031 0.3919819 0.6343634 0.2782014 0.1180704 0.2989596 0.1020432 0.2846433 0.1460149 0.4594924 0.1719813 0.4002651 0.1958556 0.3999367 0.1779512 0.4943248 0.1025348 0.4594924 0.1719813 0.4571226 0.08411097 0.4943248 0.1025348 0.4885677 0.1583595 0.4594924 0.1719813 0.4314145 0.05231732 0.3936977 0.02890974 0.4186357 0.009181857 0.3936977 0.02890974 0.3999367 0.1779512 0.3580726 0.05546486 0.3580726 0.05546486 0.3999367 0.1779512 0.3367318 0.08804649 0.3086862 0.1497483 0.3367318 0.08804649 0.3408145 0.1796375 0.7520424 0.3572524 0.7736696 0.3453906 0.809288 0.3563853 0.1907235 0.4872587 0.230226 0.5141907 0.2114856 0.5362914 0.230226 0.5141907 0.2666219 0.5040007 0.2302299 0.5670119 0.2114894 0.5663518 0.2302299 0.5670119 0.2114933 0.5925125 0.2302386 0.6074871 0.2114933 0.5925125 0.2302299 0.5670119 0.5247923 0.6695053 0.5448734 0.650542 0.5455718 0.669516 0.2571523 0.7666227 0.2459592 0.7528762 0.2571523 0.6985616 0.5448734 0.650542 0.5632035 0.6343625 0.5911579 0.6505556 0.5911579 0.6505556 0.5716623 0.6695248 0.5448734 0.650542 0.5448734 0.650542 0.5716623 0.6695248 0.5455718 0.669516 0.5716623 0.6695248 0.5911579 0.6505556 0.6015182 0.6695297 0.6955456 0.6695258 0.697979 0.6422393 0.7221791 0.669517 0.3076445 0.6343615 0.2950104 0.6695141 0.2779868 0.6422277 0.3360026 0.6343625 0.3535481 0.669518 0.3076445 0.6343615 0.3076445 0.6343615 0.3535481 0.669518 0.2950104 0.6695141 0.4171904 0.669517 0.4193663 0.6343625 0.4462521 0.6695151 0.3557042 0.5364266 0.3571432 0.4822316 0.413055 0.4895514 0.4107421 0.4461352 0.413055 0.4895514 0.3571432 0.4822316 0.3571432 0.4822316 0.3555287 0.4463652 0.4107421 0.4461352 0.3557042 0.5364266 0.413055 0.4895514 0.3730052 0.5649536 0.3730052 0.5649536 0.413055 0.4895514 0.4168557 0.5821262 0.4723103 0.4652162 0.4776142 0.521349 0.413055 0.4895514 0.4723103 0.4652162 0.413055 0.4895514 0.4107421 0.4461352 0.4943248 0.517642 0.4723103 0.4652162 0.4917573 0.4703884 0.4723103 0.4652162 0.4943248 0.517642 0.4776142 0.521349 0.4776142 0.521349 0.4943248 0.517642 0.4666559 0.5590853 0.2585123 0.1361603 0.2368898 0.1278821 0.2666219 0.08891844 0.2302251 0.07417237 0.2666219 0.08891844 0.2368898 0.1278821 0.2302299 0.02408909 0.2666219 0.08891844 0.2302251 0.07417237 0.08657163 0.8520585 0.08940058 0.8889101 0.03683948 0.8520653 0.1383293 0.8520624 0.08940058 0.8889101 0.08657163 0.8520585 0.3571432 0.4822316 0.3280907 0.435059 0.3555287 0.4463652 0.2302251 0.07417237 0.2368898 0.1278821 0.2038264 0.1078867 0.2302251 0.07417237 0.2038264 0.1078867 0.2114846 0.08416324 0.2114856 0.05312043 0.2302251 0.07417237 0.2114846 0.08416324 0.2302251 0.07417237 0.2114856 0.05312043 0.2302299 0.02408909 0.2114943 4.88217e-7 0.2302299 0.02408909 0.2114856 0.05312043 0 0.8520799 0.01428824 0.833099 0.03683948 0.8520653 0.03900963 0.8330922 0.03683948 0.8520653 0.01428824 0.833099 0.03683948 0.8520653 0.03900963 0.8330922 0.08657163 0.8520585 0.08657163 0.8520585 0.03900963 0.8330922 0.06780225 0.8330873 0.1292079 0.8330883 0.08657163 0.8520585 0.06780225 0.8330873 0.08657163 0.8520585 0.1292079 0.8330883 0.1383293 0.8520624 0.1574189 0.8330932 0.1383293 0.8520624 0.1292079 0.8330883 0.1383293 0.8520624 0.1574189 0.8330932 0.1670032 0.8516288 0.7702128 0.02138048 0.7885125 4.88217e-7 0.7885183 0.04609596 0.7702128 0.02138048 0.7885183 0.04609596 0.7697798 0.07277798 0.7885202 0.07574051 0.7697798 0.07277798 0.7885183 0.04609596 0.7697798 0.07277798 0.7885202 0.07574051 0.7697798 0.1257867 0.7697798 0.1257867 0.7885202 0.07574051 0.788632 0.1377773 0.7697798 0.1257867 0.788632 0.1377773 0.7441797 0.181418 0.7441797 0.181418 0.788632 0.1377773 0.7929396 0.1621139 0.2114846 0.08416324 0.2038264 0.1078867 0.1908363 0.1008232 0.7778652 0.2902299 0.809288 0.2920598 0.809288 0.3396726 0.7778652 0.2902299 0.8104117 0.2436715 0.809288 0.2920598 0.8104117 0.2436715 0.7778652 0.2902299 0.7760105 0.2383871 0.7736696 0.3453906 0.7778652 0.2902299 0.809288 0.3396726 0.7778652 0.2902299 0.7736696 0.3453906 0.7512245 0.2898628 0.7512245 0.2898628 0.7736696 0.3453906 0.7520424 0.3572524 0.7512245 0.2898628 0.7505522 0.2304702 0.7778652 0.2902299 0.7778652 0.2902299 0.7505522 0.2304702 0.7760105 0.2383871 0.2816746 0.3250882 0.2779868 0.2575482 0.3090807 0.3227691 0.3090807 0.3227691 0.2779868 0.2575482 0.3032956 0.2418227 0.3090807 0.3227691 0.3032956 0.2418227 0.341252 0.3199921 0.341252 0.3199921 0.3032956 0.2418227 0.3301837 0.2241224 0.1783676 0.6189924 0.2345952 0.646483 0.1815162 0.6380754 0.809288 0.3563853 0.7821062 0.4123526 0.7520424 0.3572524 0.7698897 0.57014 0.7888346 0.5247007 0.7888346 0.5877342 0.7888346 0.5247007 0.7698897 0.57014 0.7333906 0.5115237 0.7437012 0.5586888 0.7333906 0.5115237 0.7698897 0.57014 0.4594924 0.1719813 0.4723103 0.4652162 0.4002651 0.1958556 0.4885677 0.1583595 0.4723103 0.4652162 0.4594924 0.1719813 0.4723103 0.4652162 0.4885677 0.1583595 0.4917573 0.4703884 0.2585123 0.1361603 0.2605657 0.4481272 0.2368898 0.1278821 0.7914919 0.6692655 0.8031706 0.9999995 0.7740424 0.6798343 0.2368898 0.1278821 0.2437977 0.4586531 0.2038264 0.1078867 0.2113727 0.4716924 0.2038264 0.1078867 0.2437977 0.4586531 0.2038264 0.1078867 0.2113727 0.4716924 0.1907235 0.4872587 0.2038264 0.1078867 0.1907235 0.4872587 0.1908363 0.1008232 0.4723103 0.4652162 0.4107421 0.4461352 0.4002651 0.1958556 0.4002651 0.1958556 0.4107421 0.4461352 0.3483054 0.4165331 0.4002651 0.1958556 0.3483054 0.4165331 0.341252 0.3199921 0.4002651 0.1958556 0.341252 0.3199921 0.3301837 0.2241224 0.8298741 0.5115236 0.8298741 0.5601481 0.800199 0.5491065 0.7929396 0.1621139 0.788632 0.1377773 0.9404597 0.1621139</float_array>
          <technique_common>
            <accessor source="#middle_001-mesh-map-0-array" count="1332" stride="2">
              <param name="S" type="float"/>
              <param name="T" type="float"/>
            </accessor>
          </technique_common>
        </source>
        <vertices id="middle_001-mesh-vertices">
          <input semantic="POSITION" source="#middle_001-mesh-positions"/>
        </vertices>
        <triangles material="black_spec_004-material" count="444">
          <input semantic="VERTEX" source="#middle_001-mesh-vertices" offset="0"/>
          <input semantic="NORMAL" source="#middle_001-mesh-normals" offset="1"/>
          <input semantic="TEXCOORD" source="#middle_001-mesh-map-0" offset="2" set="0"/>
          <p>0 0 0 1 0 1 2 0 2 4 1 3 3 1 4 5 1 5 4 2 6 5 2 7 6 2 8 4 3 9 6 3 10 7 3 11 8 4 12 4 4 13 7 4 14 9 5 15 10 5 16 11 5 17 12 6 18 11 6 19 10 6 20 13 7 21 10 7 22 9 7 23 13 8 24 9 8 25 14 8 26 14 9 27 15 9 28 13 9 29 16 10 30 13 10 31 15 10 32 15 11 33 17 11 34 16 11 35 18 12 36 16 12 37 17 12 38 8 13 39 18 13 40 17 13 41 17 14 42 19 14 43 8 14 44 19 15 45 4 15 46 8 15 47 20 16 48 21 16 49 22 16 50 23 17 51 22 17 52 21 17 53 21 18 54 24 18 55 23 18 56 25 19 57 23 19 58 24 19 59 26 20 60 27 20 61 28 20 62 29 21 63 28 21 64 27 21 65 27 22 66 20 22 67 29 22 68 29 23 69 20 23 70 22 23 71 30 24 72 29 24 73 22 24 74 1 25 75 0 25 76 31 25 77 0 26 78 32 26 79 31 26 80 33 27 81 34 27 82 31 27 83 32 27 84 33 27 85 31 27 86 5 28 87 3 28 88 2 28 89 36 29 90 5 29 91 2 29 92 36 30 93 2 30 94 1 30 95 37 31 96 36 31 97 1 31 98 40 32 99 41 32 100 38 32 101 37 33 102 40 33 103 38 33 104 37 34 105 1 34 106 42 34 107 40 35 108 37 35 109 42 35 110 42 36 111 24 36 112 40 36 113 20 37 114 41 37 115 40 37 116 40 38 117 21 38 118 20 38 119 40 39 120 24 39 121 21 39 122 35 40 123 43 40 124 29 40 125 43 41 126 44 41 127 54 41 128 44 42 129 45 42 130 54 42 131 55 43 132 54 43 133 45 43 134 45 44 135 46 44 136 55 44 137 56 45 138 55 45 139 46 45 140 46 46 141 47 46 142 56 46 143 57 47 144 56 47 145 47 47 146 47 48 147 48 48 148 57 48 149 58 49 150 57 49 151 48 49 152 48 50 153 49 50 154 58 50 155 59 51 156 58 51 157 49 51 158 49 52 159 50 52 160 59 52 161 60 53 162 59 53 163 50 53 164 50 54 165 51 54 166 60 54 167 61 54 168 60 54 169 51 54 170 51 55 171 52 55 172 61 55 173 62 56 174 61 56 175 52 56 176 52 57 177 53 57 178 62 57 179 63 58 180 62 58 181 53 58 182 12 59 183 63 59 184 53 59 185 63 60 186 12 60 187 10 60 188 63 61 189 10 61 190 13 61 191 28 62 192 43 62 193 54 62 194 64 63 195 28 63 196 54 63 197 64 64 198 54 64 199 55 64 200 65 65 201 64 65 202 55 65 203 55 66 204 56 66 205 65 66 206 66 67 207 65 67 208 56 67 209 66 68 210 56 68 211 57 68 212 67 69 213 66 69 214 57 69 215 57 70 216 58 70 217 67 70 218 68 71 219 67 71 220 58 71 221 58 72 222 59 72 223 68 72 224 68 73 225 59 73 226 60 73 227 69 74 228 68 74 229 60 74 230 60 75 231 61 75 232 69 75 233 70 76 234 69 76 235 61 76 236 61 77 237 62 77 238 70 77 239 71 78 240 70 78 241 62 78 242 62 79 243 63 79 244 71 79 245 71 80 246 63 80 247 13 80 248 71 81 249 13 81 250 16 81 251 72 82 252 73 82 253 28 82 254 67 83 255 68 83 256 76 83 257 68 84 258 69 84 259 76 84 260 70 85 261 71 85 262 78 85 263 71 86 264 16 86 265 78 86 266 18 87 267 78 87 268 16 87 269 80 88 270 77 88 271 78 88 272 8 89 273 80 89 274 78 89 275 78 90 276 18 90 277 8 90 278 8 91 279 7 91 280 81 91 281 8 92 282 81 92 283 80 92 284 75 93 285 79 93 286 81 93 287 74 94 288 75 94 289 81 94 290 72 95 291 7 95 292 73 95 293 7 96 294 72 96 295 81 96 296 74 97 297 81 97 298 72 97 299 85 98 300 84 98 301 82 98 302 89 99 303 90 99 304 88 99 305 86 100 306 89 100 307 88 100 308 89 101 309 91 101 310 90 101 311 92 102 312 90 102 313 91 102 314 97 103 315 96 103 316 95 103 317 98 104 318 99 104 319 97 104 320 95 105 321 98 105 322 97 105 323 98 106 324 95 106 325 100 106 326 100 107 327 101 107 328 98 107 329 102 108 330 99 108 331 98 108 332 98 109 333 101 109 334 102 109 335 103 110 336 102 110 337 101 110 338 105 111 339 101 111 340 104 111 341 9 112 342 106 112 343 105 112 344 34 113 345 25 113 346 31 113 347 84 114 348 33 114 349 32 114 350 33 114 351 84 114 352 107 114 353 84 115 354 85 115 355 107 115 356 108 116 357 107 116 358 85 116 359 85 117 360 87 117 361 108 117 362 109 117 363 108 117 364 87 117 365 87 118 366 88 118 367 109 118 368 110 119 369 109 119 370 88 119 371 88 120 372 90 120 373 110 120 374 111 121 375 110 121 376 90 121 377 90 122 378 92 122 379 111 122 380 112 123 381 111 123 382 92 123 383 92 124 384 94 124 385 112 124 386 113 125 387 112 125 388 94 125 389 94 126 390 96 126 391 113 126 392 114 127 393 113 127 394 96 127 395 96 128 396 97 128 397 114 128 398 115 129 399 114 129 400 97 129 401 97 130 402 99 130 403 115 130 404 116 131 405 115 131 406 99 131 407 99 132 408 102 132 409 116 132 410 117 133 411 116 133 412 102 133 413 102 134 414 103 134 415 117 134 416 118 135 417 117 135 418 103 135 419 103 136 420 106 136 421 118 136 422 119 136 423 118 136 424 106 136 425 106 137 426 9 137 427 119 137 428 11 138 429 119 138 430 9 138 431 1 139 432 31 139 433 42 139 434 120 140 435 121 140 436 122 140 437 123 141 438 122 141 439 124 141 440 125 142 441 123 142 442 124 142 443 24 143 444 31 143 445 25 143 446 126 144 447 128 144 448 125 144 449 104 145 450 19 145 451 17 145 452 104 146 453 127 146 454 19 146 455 19 147 456 124 147 457 4 147 458 130 148 459 82 148 460 129 148 461 86 149 462 130 149 463 129 149 464 129 150 465 131 150 466 86 150 467 131 151 468 132 151 469 86 151 470 89 152 471 86 152 472 132 152 473 91 153 474 89 153 475 132 153 476 93 154 477 91 154 478 133 154 479 133 155 480 128 155 481 93 155 482 95 156 483 93 156 484 128 156 485 100 157 486 95 157 487 128 157 488 104 158 489 17 158 490 105 158 491 15 159 492 105 159 493 17 159 494 24 160 495 42 160 496 31 160 497 120 161 498 122 161 499 129 161 500 131 162 501 129 162 502 122 162 503 122 163 504 132 163 505 131 163 506 122 164 507 123 164 508 132 164 509 123 165 510 125 165 511 133 165 512 128 166 513 133 166 514 125 166 515 6 167 516 73 167 517 7 167 518 6 168 519 28 168 520 73 168 521 30 169 522 35 169 523 29 169 524 6 170 525 39 170 526 28 170 527 26 171 528 28 171 529 39 171 530 39 172 531 38 172 532 26 172 533 41 173 534 26 173 535 38 173 536 27 174 537 26 174 538 41 174 539 41 175 540 20 175 541 27 175 542 29 176 543 43 176 544 28 176 545 86 177 546 88 177 547 130 177 548 87 178 549 130 178 550 88 178 551 85 179 552 130 179 553 87 179 554 82 180 555 130 180 556 85 180 557 91 181 558 132 181 559 133 181 560 123 182 561 133 182 562 132 182 563 82 183 564 120 183 565 129 183 566 124 184 567 126 184 568 125 184 569 124 185 570 127 185 571 126 185 572 19 186 573 127 186 574 124 186 575 4 187 576 124 187 577 121 187 578 121 188 579 124 188 580 122 188 581 126 189 582 135 189 583 128 189 584 135 190 585 100 190 586 128 190 587 100 191 588 135 191 589 101 191 590 134 192 591 101 192 592 135 192 593 101 193 594 134 193 595 104 193 596 134 194 597 127 194 598 104 194 599 5 195 600 39 195 601 6 195 602 5 196 603 36 196 604 39 196 605 36 197 606 38 197 607 39 197 608 36 198 609 37 198 610 38 198 611 9 199 612 105 199 613 14 199 614 14 200 615 105 200 616 15 200 617 2 201 618 3 201 619 83 201 620 0 202 621 2 202 622 83 202 623 136 203 624 0 203 625 83 203 626 82 204 627 0 204 628 136 204 629 82 205 630 136 205 631 120 205 632 136 206 633 83 206 634 120 206 635 83 207 636 121 207 637 120 207 638 121 208 639 137 208 640 4 208 641 137 209 642 3 209 643 4 209 644 3 210 645 137 210 646 83 210 647 137 211 648 121 211 649 83 211 650 0 212 651 82 212 652 84 212 653 0 213 654 84 213 655 32 213 656 77 214 657 80 214 658 81 214 659 77 215 660 81 215 661 79 215 662 64 216 663 141 216 664 28 216 665 141 217 666 72 217 667 28 217 668 139 218 669 72 218 670 141 218 671 138 219 672 74 219 673 139 219 674 74 220 675 138 220 676 75 220 677 140 221 678 75 221 679 138 221 680 140 222 681 67 222 682 76 222 683 69 223 684 143 223 685 76 223 686 142 224 687 77 224 688 143 224 689 77 225 690 142 225 691 78 225 692 142 226 693 70 226 694 78 226 695 70 227 696 142 227 697 143 227 698 70 228 699 143 228 700 69 228 701 67 229 702 140 229 703 66 229 704 140 230 705 138 230 706 66 230 707 66 231 708 138 231 709 65 231 710 138 232 711 139 232 712 65 232 713 72 233 714 139 233 715 74 233 716 65 234 717 139 234 718 64 234 719 139 235 720 141 235 721 64 235 722 127 236 723 134 236 724 135 236 725 127 237 726 135 237 727 126 237 728 75 238 729 140 238 730 79 238 731 76 239 732 79 239 733 140 239 734 76 240 735 143 240 736 79 240 737 77 241 738 79 241 739 143 241 740 93 242 741 95 242 742 96 242 743 93 243 744 96 243 745 94 243 746 91 244 747 93 244 748 94 244 749 91 245 750 94 245 751 92 245 752 101 246 753 106 246 754 103 246 755 101 247 756 105 247 757 106 247 758 170 248 759 119 248 760 168 248 761 170 249 762 118 249 763 119 249 764 175 250 765 112 250 766 113 250 767 175 251 768 113 251 769 174 251 770 174 252 771 113 252 772 114 252 773 174 253 774 114 253 775 173 253 776 184 254 777 144 254 778 182 254 779 185 255 780 182 255 781 144 255 782 185 256 783 147 256 784 182 256 785 186 257 786 182 257 787 147 257 788 160 258 789 161 258 790 152 258 791 160 259 792 152 259 793 153 259 794 148 260 795 197 260 796 146 260 797 196 261 798 197 261 799 148 261 800 189 262 801 187 262 802 148 262 803 149 263 804 196 263 805 148 263 806 195 264 807 196 264 808 149 264 809 147 265 810 195 265 811 149 265 812 194 266 813 195 266 814 147 266 815 191 267 816 192 267 817 144 267 818 191 268 819 144 268 820 145 268 821 145 269 822 183 269 823 191 269 824 184 270 825 183 270 826 145 270 827 145 271 828 144 271 829 184 271 830 192 272 831 185 272 832 144 272 833 147 273 834 185 273 835 194 273 836 147 274 837 149 274 838 186 274 839 187 275 840 186 275 841 149 275 842 149 276 843 148 276 844 187 276 845 148 277 846 146 277 847 189 277 848 146 278 849 205 278 850 189 278 851 197 279 852 205 279 853 146 279 854 184 280 855 182 280 856 180 280 857 184 281 858 180 281 859 181 281 860 223 282 861 33 282 862 107 282 863 223 283 864 107 283 865 179 283 866 150 284 867 178 284 868 166 284 869 220 285 870 178 285 871 150 285 872 150 286 873 219 286 874 220 286 875 166 287 876 219 287 877 150 287 878 178 288 879 167 288 880 166 288 881 151 289 882 167 289 883 178 289 884 179 290 885 167 290 886 151 290 887 151 291 888 223 291 889 179 291 890 178 292 891 223 292 892 151 292 893 223 293 894 178 293 895 221 293 896 221 294 897 178 294 898 220 294 899 213 295 900 212 295 901 168 295 902 11 296 903 213 296 904 168 296 905 204 297 906 202 297 907 203 297 908 204 298 909 201 298 910 202 298 911 218 299 912 201 299 913 204 299 914 218 300 915 217 300 916 201 300 917 153 301 918 169 301 919 160 301 920 170 302 921 169 302 922 153 302 923 153 303 924 152 303 925 170 303 926 171 304 927 170 304 928 152 304 929 152 305 930 159 305 931 171 305 932 161 306 933 159 306 934 152 306 935 166 307 936 165 307 937 163 307 938 219 308 939 166 308 940 163 308 941 208 309 942 163 309 943 160 309 944 163 310 945 161 310 946 160 310 947 163 311 948 162 311 949 161 311 950 179 312 951 158 312 952 167 312 953 164 313 954 155 313 955 154 313 956 175 314 957 154 314 958 155 314 959 179 315 960 108 315 961 157 315 962 108 316 963 109 316 964 157 316 965 109 317 966 110 317 967 157 317 968 177 318 969 157 318 970 110 318 971 30 319 972 205 319 973 35 319 974 199 320 975 206 320 976 22 320 977 206 321 978 199 321 979 207 321 980 199 322 981 202 322 982 207 322 983 201 323 984 207 323 985 202 323 986 207 324 987 201 324 988 205 324 989 217 325 990 205 325 991 201 325 992 217 326 993 188 326 994 205 326 995 217 327 996 216 327 997 188 327 998 159 328 999 162 328 1000 154 328 1001 164 329 1002 154 329 1003 162 329 1004 165 330 1005 155 330 1006 164 330 1007 165 331 1008 156 331 1009 155 331 1010 156 332 1011 165 332 1012 158 332 1013 167 333 1014 158 333 1015 165 333 1016 25 334 1017 34 334 1018 198 334 1019 212 335 1020 210 335 1021 168 335 1022 169 336 1023 168 336 1024 210 336 1025 171 337 1026 159 337 1027 173 337 1028 173 338 1029 159 338 1030 174 338 1031 154 339 1032 174 339 1033 159 339 1034 174 340 1035 154 340 1036 175 340 1037 175 341 1038 155 341 1039 176 341 1040 176 342 1041 155 342 1042 177 342 1043 156 343 1044 177 343 1045 155 343 1046 158 344 1047 177 344 1048 156 344 1049 177 345 1050 158 345 1051 157 345 1052 157 346 1053 158 346 1054 179 346 1055 208 347 1056 219 347 1057 163 347 1058 169 348 1059 208 348 1060 160 348 1061 169 349 1062 210 349 1063 208 349 1064 161 350 1065 162 350 1066 159 350 1067 162 351 1068 163 351 1069 164 351 1070 164 352 1071 163 352 1072 165 352 1073 167 353 1074 165 353 1075 166 353 1076 222 354 1077 198 354 1078 34 354 1079 11 355 1080 168 355 1081 119 355 1082 168 356 1083 169 356 1084 170 356 1085 118 357 1086 170 357 1087 117 357 1088 172 358 1089 117 358 1090 170 358 1091 117 359 1092 172 359 1093 116 359 1094 171 360 1095 172 360 1096 170 360 1097 172 361 1098 171 361 1099 173 361 1100 173 362 1101 115 362 1102 172 362 1103 172 363 1104 115 363 1105 116 363 1106 115 364 1107 173 364 1108 114 364 1109 112 365 1110 175 365 1111 111 365 1112 176 366 1113 111 366 1114 175 366 1115 177 367 1116 110 367 1117 176 367 1118 176 368 1119 110 368 1120 111 368 1121 108 369 1122 179 369 1123 107 369 1124 187 370 1125 189 370 1126 180 370 1127 216 371 1128 180 371 1129 189 371 1130 189 372 1131 188 372 1132 216 372 1133 187 373 1134 180 373 1135 186 373 1136 186 374 1137 180 374 1138 182 374 1139 215 375 1140 181 375 1141 180 375 1142 215 376 1143 180 376 1144 216 376 1145 183 377 1146 215 377 1147 209 377 1148 215 378 1149 183 378 1150 181 378 1151 181 379 1152 183 379 1153 184 379 1154 209 380 1155 211 380 1156 183 380 1157 190 381 1158 183 381 1159 211 381 1160 191 382 1161 183 382 1162 190 382 1163 193 383 1164 185 383 1165 192 383 1166 194 384 1167 185 384 1168 193 384 1169 189 385 1170 205 385 1171 188 385 1172 190 386 1173 211 386 1174 214 386 1175 190 387 1176 214 387 1177 53 387 1178 52 388 1179 190 388 1180 53 388 1181 190 389 1182 52 389 1183 191 389 1184 51 390 1185 191 390 1186 52 390 1187 191 391 1188 51 391 1189 192 391 1190 50 392 1191 192 392 1192 51 392 1193 192 393 1194 50 393 1195 193 393 1196 193 394 1197 50 394 1198 49 394 1199 48 395 1200 193 395 1201 49 395 1202 193 396 1203 48 396 1204 194 396 1205 47 397 1206 194 397 1207 48 397 1208 194 398 1209 47 398 1210 195 398 1211 195 399 1212 47 399 1213 46 399 1214 195 400 1215 46 400 1216 196 400 1217 45 401 1218 196 401 1219 46 401 1220 196 402 1221 45 402 1222 197 402 1223 197 403 1224 45 403 1225 44 403 1226 197 404 1227 44 404 1228 205 404 1229 205 405 1230 44 405 1231 35 405 1232 53 406 1233 214 406 1234 12 406 1235 200 407 1236 23 407 1237 25 407 1238 200 408 1239 22 408 1240 23 408 1241 22 409 1242 200 409 1243 199 409 1244 198 410 1245 200 410 1246 25 410 1247 200 411 1248 198 411 1249 203 411 1250 203 412 1251 198 412 1252 222 412 1253 203 413 1254 202 413 1255 200 413 1256 200 414 1257 202 414 1258 199 414 1259 203 415 1260 222 415 1261 204 415 1262 204 416 1263 222 416 1264 221 416 1265 204 417 1266 221 417 1267 218 417 1268 218 418 1269 221 418 1270 220 418 1271 223 419 1272 34 419 1273 33 419 1274 34 420 1275 223 420 1276 222 420 1277 206 421 1278 30 421 1279 22 421 1280 30 422 1281 206 422 1282 205 422 1283 207 423 1284 205 423 1285 206 423 1286 208 424 1287 215 424 1288 219 424 1289 210 425 1290 215 425 1291 208 425 1292 215 426 1293 210 426 1294 209 426 1295 209 427 1296 210 427 1297 211 427 1298 212 428 1299 211 428 1300 210 428 1301 211 429 1302 212 429 1303 214 429 1304 213 430 1305 214 430 1306 212 430 1307 214 431 1308 213 431 1309 11 431 1310 214 432 1311 11 432 1312 12 432 1313 215 433 1314 216 433 1315 219 433 1316 219 434 1317 216 434 1318 217 434 1319 219 435 1320 217 435 1321 218 435 1322 219 436 1323 218 436 1324 220 436 1325 223 437 1326 221 437 1327 222 437 1328 35 438 1329 44 438 1330 43 438 1331</p>
        </triangles>
      </mesh>
    </geometry>
  </library_geometries>
  <library_visual_scenes>
    <visual_scene id="Scene" name="Scene">
      <node id="Light_003" name="Light.003" type="NODE">
        <matrix sid="transform">-0.2908646 -0.7711008 0.5663932 4.076245 0.9551712 -0.1998834 0.2183912 1.005454 -0.055189 0.6045247 0.7946723 5.903862 0 0 0 1</matrix>
        <instance_light url="#Light_003-light"/>
      </node>
      <node id="Camera_003" name="Camera.003" type="NODE">
        <matrix sid="transform">0.6859207 -0.3240135 0.6515582 7.358891 0.7276763 0.3054209 -0.6141704 -6.925791 -4.01133e-9 0.8953956 0.4452714 4.958309 0 0 0 1</matrix>
        <instance_camera url="#Camera_003-camera"/>
      </node>
      <node id="Camera_002" name="Camera.002" type="NODE">
        <matrix sid="transform">0.6859207 -0.3240135 0.6515582 7.358891 0.7276763 0.3054209 -0.6141704 -6.925791 -4.01133e-9 0.8953956 0.4452714 4.958309 0 0 0 1</matrix>
        <instance_camera url="#Camera_002-camera"/>
      </node>
      <node id="Light_002" name="Light.002" type="NODE">
        <matrix sid="transform">-0.2908649 -0.7711006 0.5663933 4.076245 0.9551711 -0.1998835 0.2183913 1.005454 -0.05518904 0.6045247 0.7946722 5.903862 0 0 0 1</matrix>
        <instance_light url="#Light_002-light"/>
      </node>
      <node id="middle" name="middle" type="NODE">
        <matrix sid="transform">0.001 0 0 0 0 0.001 0 -4e-5 0 0 0.001 -1.74846e-12 0 0 0 1</matrix>
        <instance_geometry url="#middle_001-mesh" name="middle">
          <bind_material>
            <technique_common>
              <instance_material symbol="black_spec_004-material" target="#black_spec_004-material">
                <bind_vertex_input semantic="UVMap" input_semantic="TEXCOORD" input_set="0"/>
              </instance_material>
            </technique_common>
          </bind_material>
        </instance_geometry>
      </node>
      <node id="Light_001" name="Light.001" type="NODE">
        <matrix sid="transform">-0.2908646 -0.7711008 0.5663932 4.076245 0.9551712 -0.1998834 0.2183912 1.005454 -0.055189 0.6045247 0.7946723 5.903862 0 0 0 1</matrix>
        <instance_light url="#Light_001-light"/>
      </node>
      <node id="Camera_001" name="Camera.001" type="NODE">
        <matrix sid="transform">0.6859207 -0.3240135 0.6515582 7.358891 0.7276763 0.3054209 -0.6141704 -6.925791 -4.01133e-9 0.8953956 0.4452714 4.958309 0 0 0 1</matrix>
        <instance_camera url="#Camera_001-camera"/>
      </node>
      <node id="Camera" name="Camera" type="NODE">
        <matrix sid="transform">0.6859207 -0.3240135 0.6515582 7.358891 0.7276763 0.3054208 -0.6141704 -6.925791 0 0.8953956 0.4452714 4.958309 0 0 0 1</matrix>
        <instance_camera url="#Camera-camera"/>
      </node>
      <node id="Light" name="Light" type="NODE">
        <matrix sid="transform">-0.2908646 -0.7711008 0.5663932 4.076245 0.9551712 -0.1998834 0.2183912 1.005454 -0.05518906 0.6045247 0.7946723 5.903862 0 0 0 1</matrix>
        <instance_light url="#Light-light"/>
      </node>
    </visual_scene>
  </library_visual_scenes>
  <scene>
    <instance_visual_scene url="#Scene"/>
  </scene>
</COLLADA>